{"glyphs":{"0":{"ha":936,"x_min":92,"x_max":844,"o":"m 459 -24 q 190 76 289 -24 q 92 398 92 176 q 185 719 92 615 q 478 822 279 822 q 665 782 583 822 q 796 652 747 741 q 844 424 844 564 q 803 162 844 260 q 676 20 761 64 q 459 -24 592 -24 m 375 148 q 419 78 389 106 q 481 49 449 49 q 523 53 508 49 q 547 70 538 58 q 582 178 568 96 q 595 351 595 260 q 562 650 595 555 q 517 721 546 693 q 448 749 488 749 q 412 745 425 749 q 389 729 399 741 q 366 673 377 714 q 348 576 355 633 q 341 457 341 519 q 348 282 341 360 q 375 148 355 205 z "},"1":{"ha":690,"x_min":79,"x_max":600,"o":"m 79 659 l 92 728 l 477 817 l 477 98 l 600 68 l 583 0 l 83 0 l 96 58 l 246 98 l 246 659 l 79 659 z "},"2":{"ha":848,"x_min":73,"x_max":768,"o":"m 110 571 l 112 762 q 273 808 185 794 q 411 822 360 822 q 581 796 508 822 q 694 722 654 770 q 734 608 734 673 q 676 434 734 522 q 538 273 618 347 q 332 98 458 199 l 290 64 l 602 98 l 680 222 l 768 213 l 719 0 l 98 0 l 73 60 q 241 243 114 108 q 313 319 260 262 q 393 408 366 376 q 459 505 430 451 q 488 608 488 559 q 478 672 488 648 q 431 722 466 704 q 350 739 396 739 q 310 738 328 739 q 273 731 293 736 l 197 557 l 110 571 z "},"3":{"ha":802,"x_min":89,"x_max":719,"o":"m 469 443 q 579 419 526 441 q 666 355 632 397 q 701 250 701 312 q 613 66 701 130 q 402 -20 526 1 q 125 -44 277 -42 l 113 15 q 282 62 210 37 q 407 135 354 88 q 459 253 459 182 q 392 360 459 328 q 231 393 326 393 l 246 452 l 528 725 q 372 706 442 713 q 224 696 302 699 l 177 575 l 89 588 l 98 812 l 227 805 l 696 809 l 719 741 l 469 443 z "},"4":{"ha":901,"x_min":32,"x_max":839,"o":"m 814 159 l 711 159 l 711 -20 l 480 -56 l 480 159 l 69 159 l 32 224 l 332 822 l 575 771 l 279 268 l 480 281 l 480 450 l 711 493 l 711 295 l 839 303 l 814 159 z "},"5":{"ha":744,"x_min":70,"x_max":656,"o":"m 70 14 q 228 63 161 37 q 345 137 295 90 q 394 255 394 184 q 338 381 394 342 q 192 420 282 420 q 82 417 141 420 l 133 805 l 656 805 l 590 674 l 316 706 l 308 484 q 386 487 344 487 q 520 459 463 487 q 607 383 576 432 q 637 270 637 334 q 557 70 637 138 q 360 -21 478 1 q 83 -45 243 -43 l 70 14 z "},"6":{"ha":846,"x_min":62,"x_max":763,"o":"m 332 138 q 381 75 351 100 q 451 51 412 51 q 484 55 471 51 q 507 70 496 58 q 527 117 520 83 q 534 218 534 150 q 520 318 534 277 q 473 389 507 360 q 378 429 439 417 l 391 471 q 443 490 411 483 q 500 498 475 498 q 636 470 576 498 q 729 390 696 441 q 763 272 763 339 q 716 108 763 174 q 592 9 669 41 q 427 -22 516 -22 q 225 21 307 -22 q 103 144 143 64 q 62 333 62 224 q 130 569 62 461 q 313 750 197 677 q 568 853 428 823 l 654 829 q 392 608 486 728 q 298 338 298 488 q 306 223 298 271 q 332 138 314 174 z "},"7":{"ha":862,"x_min":94,"x_max":793,"o":"m 572 701 l 237 684 l 185 544 l 94 554 l 105 814 l 243 805 l 764 805 l 793 722 l 391 -45 l 159 0 l 572 701 z "},"8":{"ha":837,"x_min":95,"x_max":742,"o":"m 95 189 q 136 312 95 262 q 250 404 177 361 q 178 457 207 430 q 132 521 149 484 q 115 610 115 559 q 155 723 115 675 q 264 797 194 771 q 423 822 334 822 q 637 774 555 822 q 720 623 720 726 q 685 508 720 555 q 588 420 650 462 q 702 328 663 378 q 742 197 742 277 q 424 -22 742 -22 q 188 28 281 -22 q 95 189 95 78 m 493 471 q 510 523 507 498 q 513 589 513 548 q 495 666 513 628 q 447 727 477 703 q 386 750 417 750 q 362 747 371 750 q 345 738 353 745 q 326 710 330 727 q 321 668 321 693 q 352 573 321 615 q 415 519 368 551 q 493 471 463 486 m 316 231 q 335 139 316 180 q 385 77 353 99 q 454 54 416 54 q 494 62 484 54 q 515 95 511 75 q 519 149 519 115 q 487 251 519 209 q 418 308 470 273 q 336 357 366 342 q 320 302 323 331 q 316 231 316 273 z "},"9":{"ha":859,"x_min":79,"x_max":781,"o":"m 136 16 q 375 140 287 66 q 500 300 464 213 q 536 492 536 387 q 522 612 536 551 q 476 712 507 674 q 391 751 445 751 q 345 739 363 751 q 314 612 314 717 q 321 517 314 555 q 346 452 328 478 q 429 411 368 421 l 440 356 q 348 351 417 351 q 230 366 283 351 q 141 414 176 381 q 96 484 113 441 q 79 578 79 527 q 162 760 79 699 q 406 822 245 822 q 614 781 530 822 q 740 664 699 739 q 781 488 781 589 q 749 277 781 368 q 634 111 717 185 q 421 -11 537 24 q 148 -45 305 -45 l 136 16 z "},"\r":{"ha":261,"x_min":0,"x_max":0,"o":""}," ":{"ha":407,"x_min":0,"x_max":0,"o":""},"A":{"ha":1010,"x_min":-31,"x_max":1039,"o":"m 1039 64 l 1019 0 l 543 0 l 553 56 l 660 108 l 610 268 q 314 260 461 260 l 281 260 q 247 159 260 199 q 229 108 233 119 l 346 54 l 335 0 l -31 0 l -19 63 l 92 111 l 393 939 l 597 962 l 929 108 l 1039 64 m 574 385 l 450 783 q 323 385 442 738 l 574 385 z "},"Á":{"ha":1010,"x_min":-31,"x_max":1039,"o":"m 1039 64 l 1019 0 l 543 0 l 553 56 l 660 108 l 610 268 q 314 260 461 260 l 281 260 q 247 159 260 199 q 229 108 233 119 l 346 54 l 335 0 l -31 0 l -19 63 l 92 111 l 393 939 l 597 962 l 929 108 l 1039 64 m 574 385 l 450 783 q 323 385 442 738 l 574 385 m 353 1082 l 583 1228 l 699 1228 l 724 1110 l 371 1008 l 353 1082 z "},"Ă":{"ha":1010,"x_min":-31,"x_max":1039,"o":"m 1039 64 l 1019 0 l 543 0 l 553 56 l 660 108 l 610 268 q 314 260 461 260 l 281 260 q 247 159 260 199 q 229 108 233 119 l 346 54 l 335 0 l -31 0 l -19 63 l 92 111 l 393 939 l 597 962 l 929 108 l 1039 64 m 574 385 l 450 783 q 323 385 442 738 l 574 385 m 496 997 q 380 1019 432 997 q 298 1080 328 1040 q 268 1173 268 1120 q 272 1208 268 1194 q 286 1227 277 1223 l 378 1227 q 421 1138 395 1164 q 496 1112 448 1112 q 565 1138 540 1112 q 606 1227 591 1164 l 699 1227 q 711 1211 706 1223 q 715 1179 715 1198 q 686 1083 715 1124 q 606 1019 656 1042 q 496 997 556 997 z "},"Â":{"ha":1010,"x_min":-31,"x_max":1039,"o":"m 1039 64 l 1019 0 l 543 0 l 553 56 l 660 108 l 610 268 q 314 260 461 260 l 281 260 q 247 159 260 199 q 229 108 233 119 l 346 54 l 335 0 l -31 0 l -19 63 l 92 111 l 393 939 l 597 962 l 929 108 l 1039 64 m 574 385 l 450 783 q 323 385 442 738 l 574 385 m 249 1054 l 449 1224 l 536 1224 l 737 1054 l 670 1000 l 493 1084 l 316 1000 l 249 1054 z "},"Ä":{"ha":1010,"x_min":-31,"x_max":1039,"o":"m 1039 64 l 1019 0 l 543 0 l 553 56 l 660 108 l 610 268 q 314 260 461 260 l 281 260 q 247 159 260 199 q 229 108 233 119 l 346 54 l 335 0 l -31 0 l -19 63 l 92 111 l 393 939 l 597 962 l 929 108 l 1039 64 m 574 385 l 450 783 q 323 385 442 738 l 574 385 m 199 1126 q 221 1170 199 1142 q 272 1220 243 1198 q 318 1242 300 1242 q 360 1219 332 1242 q 411 1169 389 1197 q 433 1124 433 1141 q 411 1080 433 1109 q 360 1029 389 1052 q 314 1007 332 1007 q 271 1030 299 1007 q 221 1081 243 1053 q 199 1126 199 1110 m 551 1126 q 573 1170 551 1142 q 624 1220 595 1198 q 670 1242 652 1242 q 712 1219 684 1242 q 763 1169 741 1197 q 785 1124 785 1141 q 763 1080 785 1109 q 712 1029 741 1052 q 666 1007 684 1007 q 623 1030 651 1007 q 573 1081 595 1053 q 551 1126 551 1110 z "},"À":{"ha":1010,"x_min":-31,"x_max":1039,"o":"m 1039 64 l 1019 0 l 543 0 l 553 56 l 660 108 l 610 268 q 314 260 461 260 l 281 260 q 247 159 260 199 q 229 108 233 119 l 346 54 l 335 0 l -31 0 l -19 63 l 92 111 l 393 939 l 597 962 l 929 108 l 1039 64 m 574 385 l 450 783 q 323 385 442 738 l 574 385 m 307 1111 l 331 1228 l 448 1228 l 676 1084 l 660 1006 l 307 1111 z "},"Ā":{"ha":1010,"x_min":-31,"x_max":1039,"o":"m 1039 64 l 1019 0 l 543 0 l 553 56 l 660 108 l 610 268 q 314 260 461 260 l 281 260 q 247 159 260 199 q 229 108 233 119 l 346 54 l 335 0 l -31 0 l -19 63 l 92 111 l 393 939 l 597 962 l 929 108 l 1039 64 m 574 385 l 450 783 q 323 385 442 738 l 574 385 m 288 1164 l 720 1164 l 698 1044 q 487 1038 616 1040 q 264 1036 358 1036 l 288 1164 z "},"Ą":{"ha":1010,"x_min":-31,"x_max":1040,"o":"m 729 -33 q 664 -95 690 -59 q 637 -153 637 -131 q 649 -202 637 -178 q 682 -235 661 -226 q 705 -241 694 -241 q 760 -232 726 -241 q 823 -208 793 -222 l 844 -239 q 747 -315 801 -289 q 633 -342 693 -342 q 546 -326 587 -342 q 480 -275 505 -309 q 455 -188 455 -240 q 472 -122 455 -151 q 514 -73 490 -93 q 577 -24 538 -52 q 611 0 594 -12 q 639 24 628 13 q 666 80 666 52 q 659 110 666 88 l 610 269 q 393 260 524 260 q 283 261 358 260 q 229 108 258 188 l 346 55 l 334 0 l -31 0 l -18 63 l 92 111 l 393 939 l 597 962 l 929 108 l 1040 65 l 1019 0 l 824 0 q 775 -8 798 0 q 729 -33 753 -17 m 574 385 l 450 783 q 327 385 399 597 l 574 385 z "},"Å":{"ha":1010,"x_min":-31,"x_max":1039,"o":"m 1039 64 l 1019 0 l 543 0 l 553 56 l 660 108 l 610 268 q 314 260 461 260 l 281 260 q 247 159 260 199 q 229 108 233 119 l 346 54 l 335 0 l -31 0 l -19 63 l 92 111 l 391 933 q 361 974 372 950 q 350 1027 350 998 q 368 1099 350 1067 q 419 1150 386 1132 q 496 1168 452 1168 q 563 1152 532 1168 q 614 1106 595 1136 q 633 1039 633 1077 q 603 948 633 985 l 929 108 l 1039 64 m 486 1084 q 456 1071 468 1084 q 445 1038 445 1057 q 458 1000 445 1016 q 496 984 471 984 q 526 997 515 984 q 537 1028 537 1009 q 524 1068 537 1052 q 486 1084 510 1084 m 574 385 l 450 783 q 323 385 442 738 l 574 385 z "},"Ã":{"ha":1010,"x_min":-31,"x_max":1039,"o":"m 1039 64 l 1019 0 l 543 0 l 553 56 l 660 108 l 610 268 q 314 260 461 260 l 281 260 q 247 159 260 199 q 229 108 233 119 l 346 54 l 335 0 l -31 0 l -19 63 l 92 111 l 393 939 l 597 962 l 929 108 l 1039 64 m 574 385 l 450 783 q 323 385 442 738 l 574 385 m 226 1139 q 286 1204 262 1180 q 340 1243 311 1227 q 404 1259 370 1259 q 470 1242 441 1259 q 533 1197 499 1226 q 567 1171 555 1179 q 591 1163 579 1163 q 655 1185 614 1163 q 741 1243 697 1207 l 757 1143 q 697 1080 721 1103 q 643 1041 673 1057 q 578 1025 612 1025 q 514 1041 542 1025 q 451 1086 486 1057 q 418 1113 431 1104 q 393 1121 406 1121 q 327 1098 369 1121 q 245 1040 284 1075 l 226 1139 z "},"Æ":{"ha":1358,"x_min":-35,"x_max":1335,"o":"m 596 269 q 475 261 545 262 q 295 260 405 260 l 216 108 l 336 56 l 323 0 l -35 0 l -23 62 l 79 106 l 452 845 l 366 884 l 378 939 l 1159 939 l 1258 947 l 1284 709 l 1189 692 l 1124 832 q 838 879 992 852 l 838 503 q 922 520 864 511 q 999 530 981 529 l 1044 645 l 1114 629 l 1102 304 l 1031 313 l 999 422 q 923 431 985 422 q 838 447 861 440 l 838 67 q 983 92 863 74 q 1162 116 1104 111 l 1244 252 l 1335 240 l 1280 0 l 467 0 l 477 60 l 596 112 l 596 269 m 596 783 l 558 783 l 358 385 l 596 385 l 596 783 z "},"B":{"ha":986,"x_min":36,"x_max":937,"o":"m 47 58 l 166 111 l 166 828 l 39 885 l 51 939 l 336 939 q 644 928 535 939 q 824 869 753 917 q 895 719 895 822 q 832 571 895 627 q 671 499 769 516 q 807 463 747 493 q 902 380 868 432 q 937 262 937 328 q 891 116 937 173 q 743 29 846 58 q 466 0 640 0 l 36 0 l 47 58 m 642 713 q 578 836 642 798 q 417 885 514 874 l 417 55 q 556 91 500 68 q 645 154 612 113 q 677 262 677 195 q 650 364 677 321 q 582 433 623 407 q 492 471 540 459 l 498 511 q 605 590 568 538 q 642 713 642 641 z "},"C":{"ha":886,"x_min":48,"x_max":860,"o":"m 513 -24 q 271 30 376 -24 q 107 189 165 83 q 48 447 48 294 q 93 676 48 573 q 221 848 138 779 q 373 933 287 903 q 557 962 458 962 q 631 959 588 962 q 707 950 674 956 l 813 954 l 830 691 l 736 676 l 680 814 q 598 847 645 838 q 496 856 552 856 q 378 829 402 856 q 329 705 345 792 q 312 519 312 617 q 334 349 312 418 q 396 224 355 279 q 480 151 432 176 q 570 127 528 127 q 702 136 600 127 q 839 151 803 144 l 860 111 q 717 11 809 45 q 513 -24 625 -24 z "},"Ć":{"ha":886,"x_min":48,"x_max":860,"o":"m 513 -24 q 271 30 376 -24 q 107 189 165 83 q 48 447 48 294 q 93 676 48 573 q 221 848 138 779 q 373 933 287 903 q 557 962 458 962 q 631 959 588 962 q 707 950 674 956 l 813 954 l 830 691 l 736 676 l 680 814 q 598 847 645 838 q 496 856 552 856 q 378 829 402 856 q 329 705 345 792 q 312 519 312 617 q 334 349 312 418 q 396 224 355 279 q 480 151 432 176 q 570 127 528 127 q 702 136 600 127 q 839 151 803 144 l 860 111 q 717 11 809 45 q 513 -24 625 -24 m 374 1082 l 604 1228 l 720 1228 l 745 1110 l 392 1008 l 374 1082 z "},"Č":{"ha":886,"x_min":48,"x_max":860,"o":"m 513 -24 q 271 30 376 -24 q 107 189 165 83 q 48 447 48 294 q 93 676 48 573 q 221 848 138 779 q 373 933 287 903 q 557 962 458 962 q 631 959 588 962 q 707 950 674 956 l 813 954 l 830 691 l 736 676 l 680 814 q 598 847 645 838 q 496 856 552 856 q 378 829 402 856 q 329 705 345 792 q 312 519 312 617 q 334 349 312 418 q 396 224 355 279 q 480 151 432 176 q 570 127 528 127 q 702 136 600 127 q 839 151 803 144 l 860 111 q 717 11 809 45 q 513 -24 625 -24 m 271 1185 l 335 1239 l 513 1154 l 691 1239 l 755 1185 l 562 1027 l 464 1027 l 271 1185 z "},"Ç":{"ha":886,"x_min":48,"x_max":860,"o":"m 860 111 q 729 15 812 50 q 543 -23 646 -19 l 531 -64 q 597 -77 565 -64 q 650 -115 629 -90 q 670 -172 670 -140 q 628 -266 670 -228 q 520 -321 585 -303 q 386 -339 455 -339 l 375 -285 q 503 -231 472 -254 q 534 -189 534 -208 q 493 -155 534 -168 q 376 -136 452 -142 q 443 -20 391 -71 q 235 50 324 -7 q 97 208 146 107 q 48 447 48 308 q 93 676 48 573 q 221 848 138 779 q 373 933 287 903 q 557 962 458 962 q 631 959 588 962 q 707 950 674 956 l 813 954 l 830 691 l 736 676 l 680 814 q 598 847 645 838 q 496 856 552 856 q 378 829 402 856 q 329 705 345 792 q 312 519 312 617 q 334 349 312 418 q 396 224 355 279 q 480 151 432 176 q 570 127 528 127 q 702 136 600 127 q 839 151 803 144 l 860 111 z "},"D":{"ha":1065,"x_min":36,"x_max":1015,"o":"m 167 111 l 167 828 l 40 884 l 52 939 l 383 939 q 550 935 479 939 q 692 916 621 931 q 817 869 763 901 q 968 706 922 808 q 1015 474 1015 603 q 909 149 1015 261 q 706 33 833 65 q 401 0 579 0 l 36 0 l 47 57 l 167 111 m 417 73 q 599 132 526 90 q 713 257 673 174 q 753 473 753 340 q 628 784 753 680 q 535 837 592 814 q 417 868 479 859 l 417 73 z "},"Ð":{"ha":1050,"x_min":14,"x_max":1015,"o":"m 817 869 q 968 706 922 808 q 1015 474 1015 603 q 909 149 1015 261 q 706 33 833 65 q 401 0 579 0 l 36 0 l 47 57 l 167 111 l 167 405 l 14 400 l 40 536 l 167 536 l 167 828 l 40 884 l 52 939 l 383 939 q 550 935 479 939 q 692 916 621 931 q 817 869 763 901 m 417 73 q 599 132 526 90 q 713 257 673 174 q 753 473 753 340 q 628 784 753 680 q 535 837 592 814 q 417 868 479 859 l 417 536 l 615 536 l 587 418 l 417 413 l 417 73 z "},"Ď":{"ha":1065,"x_min":36,"x_max":1015,"o":"m 167 111 l 167 828 l 40 884 l 52 939 l 383 939 q 550 935 479 939 q 692 916 621 931 q 817 869 763 901 q 968 706 922 808 q 1015 474 1015 603 q 909 149 1015 261 q 706 33 833 65 q 401 0 579 0 l 36 0 l 47 57 l 167 111 m 417 73 q 599 132 526 90 q 713 257 673 174 q 753 473 753 340 q 628 784 753 680 q 535 837 592 814 q 417 868 479 859 l 417 73 m 244 1185 l 308 1239 l 486 1154 l 664 1239 l 728 1185 l 535 1027 l 437 1027 l 244 1185 z "},"Đ":{"ha":1050,"x_min":14,"x_max":1015,"o":"m 817 869 q 968 706 922 808 q 1015 474 1015 603 q 909 149 1015 261 q 706 33 833 65 q 401 0 579 0 l 36 0 l 47 57 l 167 111 l 167 405 l 14 400 l 40 536 l 167 536 l 167 828 l 40 884 l 52 939 l 383 939 q 550 935 479 939 q 692 916 621 931 q 817 869 763 901 m 417 73 q 599 132 526 90 q 713 257 673 174 q 753 473 753 340 q 628 784 753 680 q 535 837 592 814 q 417 868 479 859 l 417 536 l 615 536 l 587 418 l 417 413 l 417 73 z "},"E":{"ha":939,"x_min":32,"x_max":913,"o":"m 742 116 l 824 252 l 913 240 l 861 0 l 32 0 l 43 61 l 168 113 l 168 828 l 41 884 l 53 939 l 739 939 l 838 947 l 864 709 l 768 692 l 705 832 l 418 879 l 418 503 q 579 530 502 521 l 625 644 l 694 631 l 682 303 l 611 315 l 579 422 q 418 447 488 430 l 418 67 l 742 116 z "},"É":{"ha":939,"x_min":32,"x_max":913,"o":"m 742 116 l 824 252 l 913 240 l 861 0 l 32 0 l 43 61 l 168 113 l 168 828 l 41 884 l 53 939 l 739 939 l 838 947 l 864 709 l 768 692 l 705 832 l 418 879 l 418 503 q 579 530 502 521 l 625 644 l 694 631 l 682 303 l 611 315 l 579 422 q 418 447 488 430 l 418 67 l 742 116 m 326 1082 l 556 1228 l 673 1228 l 697 1110 l 345 1008 l 326 1082 z "},"Ě":{"ha":939,"x_min":32,"x_max":913,"o":"m 742 116 l 824 252 l 913 240 l 861 0 l 32 0 l 43 61 l 168 113 l 168 828 l 41 884 l 53 939 l 739 939 l 838 947 l 864 709 l 768 692 l 705 832 l 418 879 l 418 503 q 579 530 502 521 l 625 644 l 694 631 l 682 303 l 611 315 l 579 422 q 418 447 488 430 l 418 67 l 742 116 m 224 1185 l 288 1239 l 465 1154 l 644 1239 l 707 1185 l 515 1027 l 416 1027 l 224 1185 z "},"Ê":{"ha":939,"x_min":32,"x_max":913,"o":"m 742 116 l 824 252 l 913 240 l 861 0 l 32 0 l 43 61 l 168 113 l 168 828 l 41 884 l 53 939 l 739 939 l 838 947 l 864 709 l 768 692 l 705 832 l 418 879 l 418 503 q 579 530 502 521 l 625 644 l 694 631 l 682 303 l 611 315 l 579 422 q 418 447 488 430 l 418 67 l 742 116 m 222 1054 l 422 1224 l 510 1224 l 711 1054 l 644 1000 l 467 1084 l 290 1000 l 222 1054 z "},"Ë":{"ha":939,"x_min":32,"x_max":913,"o":"m 742 116 l 824 252 l 913 240 l 861 0 l 32 0 l 43 61 l 168 113 l 168 828 l 41 884 l 53 939 l 739 939 l 838 947 l 864 709 l 768 692 l 705 832 l 418 879 l 418 503 q 579 530 502 521 l 625 644 l 694 631 l 682 303 l 611 315 l 579 422 q 418 447 488 430 l 418 67 l 742 116 m 172 1126 q 195 1170 172 1142 q 245 1220 217 1198 q 292 1242 274 1242 q 334 1219 306 1242 q 385 1169 362 1197 q 407 1124 407 1141 q 385 1080 407 1109 q 334 1029 363 1052 q 288 1007 305 1007 q 245 1030 273 1007 q 195 1081 217 1053 q 172 1126 172 1110 m 524 1126 q 547 1170 524 1142 q 597 1220 569 1198 q 644 1242 626 1242 q 686 1219 658 1242 q 736 1169 714 1197 q 759 1124 759 1141 q 737 1080 759 1109 q 686 1029 715 1052 q 640 1007 657 1007 q 597 1030 625 1007 q 547 1081 569 1053 q 524 1126 524 1110 z "},"Ė":{"ha":939,"x_min":32,"x_max":913,"o":"m 742 116 l 824 252 l 913 240 l 861 0 l 32 0 l 43 61 l 168 113 l 168 828 l 41 884 l 53 939 l 739 939 l 838 947 l 864 709 l 768 692 l 705 832 l 418 879 l 418 503 q 579 530 502 521 l 625 644 l 694 631 l 682 303 l 611 315 l 579 422 q 418 447 488 430 l 418 67 l 742 116 m 460 1007 q 418 1030 446 1007 q 368 1081 390 1053 q 345 1126 345 1110 q 368 1170 345 1142 q 418 1220 390 1198 q 465 1242 447 1242 q 507 1219 479 1242 q 557 1169 535 1197 q 580 1124 580 1141 q 558 1080 580 1109 q 507 1029 536 1052 q 460 1007 478 1007 z "},"È":{"ha":939,"x_min":32,"x_max":913,"o":"m 742 116 l 824 252 l 913 240 l 861 0 l 32 0 l 43 61 l 168 113 l 168 828 l 41 884 l 53 939 l 739 939 l 838 947 l 864 709 l 768 692 l 705 832 l 418 879 l 418 503 q 579 530 502 521 l 625 644 l 694 631 l 682 303 l 611 315 l 579 422 q 418 447 488 430 l 418 67 l 742 116 m 280 1111 l 304 1228 l 422 1228 l 650 1084 l 633 1006 l 280 1111 z "},"Ē":{"ha":939,"x_min":32,"x_max":913,"o":"m 742 116 l 824 252 l 913 240 l 861 0 l 32 0 l 43 61 l 168 113 l 168 828 l 41 884 l 53 939 l 739 939 l 838 947 l 864 709 l 768 692 l 705 832 l 418 879 l 418 503 q 579 530 502 521 l 625 644 l 694 631 l 682 303 l 611 315 l 579 422 q 418 447 488 430 l 418 67 l 742 116 m 261 1164 l 693 1164 l 671 1044 q 460 1038 589 1040 q 237 1036 332 1036 l 261 1164 z "},"Ę":{"ha":939,"x_min":32,"x_max":913,"o":"m 741 -241 q 794 -232 761 -241 q 861 -208 827 -222 l 880 -239 q 783 -315 838 -289 q 669 -342 729 -342 q 582 -326 623 -342 q 516 -275 541 -309 q 491 -188 491 -240 q 557 -66 491 -122 q 661 0 600 -28 l 32 0 l 43 61 l 168 113 l 168 828 l 41 884 l 53 939 l 739 939 l 838 947 l 864 709 l 768 692 l 705 832 l 418 879 l 418 503 q 579 530 502 521 l 625 644 l 694 631 l 682 303 l 611 315 l 579 422 q 418 447 488 430 l 418 67 l 742 116 l 824 252 l 913 240 l 861 0 l 800 0 q 702 -89 730 -56 q 673 -153 673 -121 q 685 -202 673 -178 q 718 -235 697 -226 q 741 -241 728 -241 z "},"F":{"ha":889,"x_min":27,"x_max":882,"o":"m 33 884 l 45 939 l 771 939 l 857 947 l 882 707 l 788 693 l 723 832 l 410 879 l 410 503 q 597 530 488 516 l 643 644 l 713 629 l 701 300 l 629 311 l 597 422 q 410 439 507 427 l 410 106 l 610 69 l 584 0 l 27 0 l 39 59 l 160 113 l 160 828 l 33 884 z "},"G":{"ha":1036,"x_min":48,"x_max":1027,"o":"m 500 396 l 510 452 l 1027 452 l 1017 391 l 935 332 l 934 145 q 839 62 900 101 q 702 0 779 24 q 547 -24 625 -24 q 332 8 427 -24 q 172 102 237 39 q 80 246 112 161 q 48 443 48 332 q 97 684 48 576 q 234 861 145 791 q 376 936 297 909 q 547 962 455 962 q 762 940 658 962 l 871 949 l 901 690 l 806 677 l 759 789 q 653 843 715 825 q 527 862 590 862 q 442 855 482 862 q 385 835 401 848 q 326 708 346 802 q 307 490 307 614 q 331 295 307 377 q 396 163 355 213 q 577 82 463 82 q 637 87 606 82 q 688 102 669 93 l 688 338 l 500 396 z "},"Ğ":{"ha":1036,"x_min":48,"x_max":1027,"o":"m 500 396 l 510 452 l 1027 452 l 1017 391 l 935 332 l 934 145 q 839 62 900 101 q 702 0 779 24 q 547 -24 625 -24 q 332 8 427 -24 q 172 102 237 39 q 80 246 112 161 q 48 443 48 332 q 97 684 48 576 q 234 861 145 791 q 376 936 297 909 q 547 962 455 962 q 762 940 658 962 l 871 949 l 901 690 l 806 677 l 759 789 q 653 843 715 825 q 527 862 590 862 q 442 855 482 862 q 385 835 401 848 q 326 708 346 802 q 307 490 307 614 q 331 295 307 377 q 396 163 355 213 q 577 82 463 82 q 637 87 606 82 q 688 102 669 93 l 688 338 l 500 396 m 544 996 q 428 1017 480 996 q 346 1079 376 1039 q 316 1171 316 1119 q 320 1207 316 1192 q 334 1226 325 1222 l 427 1226 q 470 1137 443 1162 q 544 1111 496 1111 q 613 1137 588 1111 q 654 1226 639 1163 l 747 1226 q 759 1209 754 1222 q 764 1177 764 1196 q 734 1082 764 1123 q 654 1018 705 1040 q 544 996 604 996 z "},"Ģ":{"ha":1036,"x_min":48,"x_max":1027,"o":"m 500 396 l 510 452 l 1027 452 l 1017 391 l 935 332 l 934 145 q 839 62 900 101 q 702 0 779 24 q 547 -24 625 -24 q 332 8 427 -24 q 172 102 237 39 q 80 246 112 161 q 48 443 48 332 q 97 684 48 576 q 234 861 145 791 q 376 936 297 909 q 547 962 455 962 q 762 940 658 962 l 871 949 l 901 690 l 806 677 l 759 789 q 653 843 715 825 q 527 862 590 862 q 442 855 482 862 q 385 835 401 848 q 326 708 346 802 q 307 490 307 614 q 331 295 307 377 q 396 163 355 213 q 577 82 463 82 q 637 87 606 82 q 688 102 669 93 l 688 338 l 500 396 m 490 -72 q 570 -83 531 -72 q 638 -119 609 -95 q 673 -162 662 -139 q 684 -216 684 -186 q 649 -304 684 -267 q 565 -361 614 -342 q 477 -380 515 -380 l 456 -325 q 521 -280 500 -296 q 548 -255 541 -264 q 553 -236 554 -246 q 529 -211 553 -222 q 463 -191 505 -199 l 490 -72 z "},"H":{"ha":1183,"x_min":34,"x_max":1150,"o":"m 551 58 l 537 0 l 34 0 l 46 58 l 167 113 l 167 828 l 40 884 l 52 939 l 535 939 l 522 878 l 411 824 l 411 530 l 772 530 l 772 828 l 654 884 l 666 939 l 1150 939 l 1139 882 l 1017 827 l 1017 111 l 1144 54 l 1133 0 l 629 0 l 641 58 l 772 113 l 772 414 q 411 399 627 406 l 411 114 l 551 58 z "},"I":{"ha":586,"x_min":35,"x_max":551,"o":"m 167 112 l 167 828 l 40 884 l 52 939 l 551 939 l 541 882 l 417 827 l 417 112 l 547 55 l 535 0 l 35 0 l 47 58 l 167 112 z "},"Í":{"ha":586,"x_min":35,"x_max":551,"o":"m 167 112 l 167 828 l 40 884 l 52 939 l 551 939 l 541 882 l 417 827 l 417 112 l 547 55 l 535 0 l 35 0 l 47 58 l 167 112 m 153 1082 l 383 1228 l 500 1228 l 524 1110 l 172 1008 l 153 1082 z "},"Î":{"ha":586,"x_min":35,"x_max":551,"o":"m 167 112 l 167 828 l 40 884 l 52 939 l 551 939 l 541 882 l 417 827 l 417 112 l 547 55 l 535 0 l 35 0 l 47 58 l 167 112 m 49 1054 l 249 1224 l 336 1224 l 537 1054 l 470 1000 l 293 1084 l 116 1000 l 49 1054 z "},"Ï":{"ha":586,"x_min":-1,"x_max":585,"o":"m 167 112 l 167 828 l 40 884 l 52 939 l 551 939 l 541 882 l 417 827 l 417 112 l 547 55 l 535 0 l 35 0 l 47 58 l 167 112 m -1 1126 q 21 1170 -1 1142 q 72 1220 43 1198 q 118 1242 100 1242 q 160 1219 132 1242 q 211 1169 189 1197 q 233 1124 233 1141 q 211 1080 233 1109 q 160 1029 189 1052 q 114 1007 132 1007 q 71 1030 99 1007 q 21 1081 43 1053 q -1 1126 -1 1110 m 351 1126 q 373 1170 351 1142 q 424 1220 395 1198 q 470 1242 452 1242 q 512 1219 484 1242 q 563 1169 541 1197 q 585 1124 585 1141 q 563 1080 585 1109 q 512 1029 541 1052 q 466 1007 484 1007 q 423 1030 451 1007 q 373 1081 395 1053 q 351 1126 351 1110 z "},"İ":{"ha":586,"x_min":35,"x_max":551,"o":"m 167 112 l 167 828 l 40 884 l 52 939 l 551 939 l 541 882 l 417 827 l 417 112 l 547 55 l 535 0 l 35 0 l 47 58 l 167 112 m 288 1007 q 245 1030 273 1007 q 195 1081 217 1053 q 172 1126 172 1110 q 195 1170 172 1142 q 245 1220 217 1198 q 292 1242 274 1242 q 334 1219 306 1242 q 385 1169 362 1197 q 407 1124 407 1141 q 385 1080 407 1109 q 334 1029 363 1052 q 288 1007 305 1007 z "},"Ì":{"ha":586,"x_min":35,"x_max":551,"o":"m 167 112 l 167 828 l 40 884 l 52 939 l 551 939 l 541 882 l 417 827 l 417 112 l 547 55 l 535 0 l 35 0 l 47 58 l 167 112 m 106 1111 l 131 1228 l 248 1228 l 476 1084 l 460 1006 l 106 1111 z "},"Ī":{"ha":586,"x_min":35,"x_max":551,"o":"m 167 112 l 167 828 l 40 884 l 52 939 l 551 939 l 541 882 l 417 827 l 417 112 l 547 55 l 535 0 l 35 0 l 47 58 l 167 112 m 88 1164 l 520 1164 l 498 1044 q 288 1038 416 1040 q 64 1036 159 1036 l 88 1164 z "},"Į":{"ha":586,"x_min":36,"x_max":551,"o":"m 167 112 l 167 828 l 40 884 l 52 939 l 551 939 l 539 882 l 417 827 l 417 112 l 547 57 l 535 0 q 431 -27 479 0 q 354 -92 383 -55 q 325 -153 325 -129 q 337 -202 325 -178 q 369 -235 349 -226 q 392 -241 380 -241 q 450 -231 414 -241 q 511 -207 485 -222 l 531 -239 q 479 -287 505 -266 q 412 -325 452 -308 q 321 -342 371 -342 q 233 -326 274 -342 q 168 -275 193 -309 q 142 -188 142 -240 q 200 -74 142 -121 q 336 0 257 -27 l 36 0 l 45 59 l 167 112 z "},"J":{"ha":559,"x_min":20,"x_max":538,"o":"m 20 884 l 31 939 l 538 939 l 527 882 l 413 827 l 413 322 q 385 83 413 182 q 286 -91 356 -16 q 90 -224 216 -166 l 50 -192 q 121 -16 80 -126 q 163 119 163 94 l 163 828 l 20 884 z "},"K":{"ha":1095,"x_min":35,"x_max":1098,"o":"m 168 112 l 168 828 l 40 884 l 52 939 l 526 939 l 515 880 l 418 825 l 418 112 l 548 55 l 536 0 l 35 0 l 46 58 l 168 112 m 970 110 l 1098 56 l 1086 0 l 688 0 l 701 59 l 465 475 l 709 831 l 625 887 l 638 939 l 1085 939 l 1072 880 l 947 831 l 715 509 l 970 110 z "},"Ķ":{"ha":1095,"x_min":35,"x_max":1098,"o":"m 168 112 l 168 828 l 40 884 l 52 939 l 526 939 l 515 880 l 418 825 l 418 112 l 548 55 l 536 0 l 35 0 l 46 58 l 168 112 m 970 110 l 1098 56 l 1086 0 l 688 0 l 701 59 l 465 475 l 709 831 l 625 887 l 638 939 l 1085 939 l 1072 880 l 947 831 l 715 509 l 970 110 m 455 -72 q 535 -83 496 -72 q 604 -119 574 -95 q 638 -162 627 -139 q 650 -216 650 -186 q 614 -304 650 -267 q 530 -361 579 -342 q 442 -380 481 -380 l 422 -325 q 486 -280 466 -296 q 513 -255 507 -264 q 519 -236 519 -246 q 494 -211 518 -222 q 428 -191 470 -199 l 455 -72 z "},"L":{"ha":868,"x_min":35,"x_max":875,"o":"m 784 251 l 875 240 l 819 0 l 35 0 l 46 58 l 168 113 l 168 828 l 40 884 l 52 939 l 557 939 l 546 881 l 418 826 l 418 68 l 702 117 l 784 251 z "},"Ĺ":{"ha":868,"x_min":35,"x_max":875,"o":"m 784 251 l 875 240 l 819 0 l 35 0 l 46 58 l 168 113 l 168 828 l 40 884 l 52 939 l 557 939 l 546 881 l 418 826 l 418 68 l 702 117 l 784 251 m 168 1082 l 397 1228 l 514 1228 l 538 1110 l 186 1008 l 168 1082 z "},"Ľ":{"ha":868,"x_min":35,"x_max":875,"o":"m 611 573 q 706 794 669 689 l 625 827 l 640 925 q 743 942 695 936 q 840 948 791 947 q 856 908 851 927 q 860 868 860 889 q 836 766 860 823 q 769 654 811 710 q 677 555 728 599 l 611 573 m 784 251 l 875 240 l 819 0 l 35 0 l 46 58 l 168 113 l 168 828 l 40 884 l 52 939 l 557 939 l 546 881 l 418 826 l 418 68 l 702 117 l 784 251 z "},"Ļ":{"ha":868,"x_min":35,"x_max":875,"o":"m 784 251 l 875 240 l 819 0 l 35 0 l 46 58 l 168 113 l 168 828 l 40 884 l 52 939 l 557 939 l 546 881 l 418 826 l 418 68 l 702 117 l 784 251 m 348 -72 q 428 -83 389 -72 q 496 -119 467 -95 q 531 -162 520 -139 q 543 -216 543 -186 q 507 -304 543 -267 q 423 -361 472 -342 q 335 -380 374 -380 l 315 -325 q 379 -280 359 -296 q 406 -255 399 -264 q 412 -236 412 -246 q 387 -211 411 -222 q 321 -191 363 -199 l 348 -72 z "},"Ł":{"ha":868,"x_min":-16,"x_max":875,"o":"m 875 240 l 819 0 l 35 0 l 46 58 l 168 113 l 168 342 l 15 271 l -16 416 l 168 498 l 168 828 l 40 884 l 52 939 l 557 939 l 546 881 l 418 826 l 418 610 l 709 741 l 739 609 l 418 459 l 418 68 l 702 117 l 784 251 l 875 240 z "},"M":{"ha":1442,"x_min":37,"x_max":1407,"o":"m 42 884 l 54 939 l 439 939 l 726 221 l 989 939 l 1407 939 l 1396 876 l 1274 821 l 1274 111 l 1404 56 l 1392 0 l 899 0 l 910 57 l 1030 111 l 1030 779 q 919 418 983 603 q 771 17 855 234 l 559 -10 l 273 775 q 296 496 291 636 q 303 154 302 355 q 304 111 304 140 l 425 55 l 414 0 l 37 0 l 47 57 l 166 111 l 166 828 l 42 884 z "},"N":{"ha":1086,"x_min":39,"x_max":1061,"o":"m 166 111 l 166 828 l 39 883 l 51 939 l 396 939 l 823 250 q 801 507 806 378 q 797 828 797 635 l 660 882 l 671 939 l 1061 939 l 1050 882 l 937 827 l 937 10 l 718 -17 l 277 698 q 299 437 295 567 q 304 111 304 307 l 446 55 l 433 0 l 39 0 l 50 56 l 166 111 z "},"Ń":{"ha":1086,"x_min":39,"x_max":1061,"o":"m 166 111 l 166 828 l 39 883 l 51 939 l 396 939 l 823 250 q 801 507 806 378 q 797 828 797 635 l 660 882 l 671 939 l 1061 939 l 1050 882 l 937 827 l 937 10 l 718 -17 l 277 698 q 299 437 295 567 q 304 111 304 307 l 446 55 l 433 0 l 39 0 l 50 56 l 166 111 m 391 1082 l 621 1228 l 738 1228 l 762 1110 l 410 1008 l 391 1082 z "},"Ň":{"ha":1086,"x_min":39,"x_max":1061,"o":"m 166 111 l 166 828 l 39 883 l 51 939 l 396 939 l 823 250 q 801 507 806 378 q 797 828 797 635 l 660 882 l 671 939 l 1061 939 l 1050 882 l 937 827 l 937 10 l 718 -17 l 277 698 q 299 437 295 567 q 304 111 304 307 l 446 55 l 433 0 l 39 0 l 50 56 l 166 111 m 289 1185 l 353 1239 l 530 1154 l 709 1239 l 772 1185 l 580 1027 l 481 1027 l 289 1185 z "},"Ņ":{"ha":1086,"x_min":39,"x_max":1061,"o":"m 166 111 l 166 828 l 39 883 l 51 939 l 396 939 l 823 250 q 801 507 806 378 q 797 828 797 635 l 660 882 l 671 939 l 1061 939 l 1050 882 l 937 827 l 937 10 l 718 -17 l 277 698 q 299 437 295 567 q 304 111 304 307 l 446 55 l 433 0 l 39 0 l 50 56 l 166 111 m 456 -72 q 536 -83 497 -72 q 604 -119 575 -95 q 639 -162 628 -139 q 650 -216 650 -186 q 615 -304 650 -267 q 531 -361 580 -342 q 443 -380 481 -380 l 422 -325 q 487 -280 467 -296 q 514 -255 507 -264 q 519 -236 520 -246 q 495 -211 519 -222 q 429 -191 471 -199 l 456 -72 z "},"Ñ":{"ha":1086,"x_min":39,"x_max":1061,"o":"m 166 111 l 166 828 l 39 883 l 51 939 l 396 939 l 823 250 q 801 507 806 378 q 797 828 797 635 l 660 882 l 671 939 l 1061 939 l 1050 882 l 937 827 l 937 10 l 718 -17 l 277 698 q 299 437 295 567 q 304 111 304 307 l 446 55 l 433 0 l 39 0 l 50 56 l 166 111 m 264 1139 q 325 1204 300 1180 q 379 1243 349 1227 q 442 1259 408 1259 q 509 1242 479 1259 q 572 1197 538 1226 q 606 1171 594 1179 q 629 1163 618 1163 q 694 1185 652 1163 q 780 1243 736 1207 l 795 1143 q 735 1080 760 1103 q 681 1041 711 1057 q 617 1025 651 1025 q 553 1041 581 1025 q 490 1086 525 1057 q 457 1113 469 1104 q 432 1121 444 1121 q 365 1098 408 1121 q 283 1040 323 1075 l 264 1139 z "},"O":{"ha":1046,"x_min":47,"x_max":999,"o":"m 47 422 q 105 691 47 568 q 279 888 164 814 q 553 962 393 962 q 777 908 675 962 q 939 753 879 854 q 999 517 999 652 q 939 247 999 370 q 766 50 878 123 q 505 -24 654 -24 q 272 30 376 -24 q 107 185 168 84 q 47 422 47 286 m 372 193 q 458 114 406 142 q 570 85 509 85 q 636 95 604 85 q 686 127 669 105 q 725 251 711 161 q 739 419 739 341 q 734 565 739 509 q 712 669 728 620 q 657 766 693 724 q 573 830 621 808 q 475 853 526 853 q 415 848 441 853 q 373 827 390 844 q 322 701 338 793 q 307 520 307 608 q 319 329 307 406 q 372 193 332 252 z "},"Ó":{"ha":1046,"x_min":47,"x_max":999,"o":"m 47 422 q 105 691 47 568 q 279 888 164 814 q 553 962 393 962 q 777 908 675 962 q 939 753 879 854 q 999 517 999 652 q 939 247 999 370 q 766 50 878 123 q 505 -24 654 -24 q 272 30 376 -24 q 107 185 168 84 q 47 422 47 286 m 372 193 q 458 114 406 142 q 570 85 509 85 q 636 95 604 85 q 686 127 669 105 q 725 251 711 161 q 739 419 739 341 q 734 565 739 509 q 712 669 728 620 q 657 766 693 724 q 573 830 621 808 q 475 853 526 853 q 415 848 441 853 q 373 827 390 844 q 322 701 338 793 q 307 520 307 608 q 319 329 307 406 q 372 193 332 252 m 392 1082 l 622 1228 l 739 1228 l 763 1110 l 410 1008 l 392 1082 z "},"Ô":{"ha":1046,"x_min":47,"x_max":999,"o":"m 47 422 q 105 691 47 568 q 279 888 164 814 q 553 962 393 962 q 777 908 675 962 q 939 753 879 854 q 999 517 999 652 q 939 247 999 370 q 766 50 878 123 q 505 -24 654 -24 q 272 30 376 -24 q 107 185 168 84 q 47 422 47 286 m 372 193 q 458 114 406 142 q 570 85 509 85 q 636 95 604 85 q 686 127 669 105 q 725 251 711 161 q 739 419 739 341 q 734 565 739 509 q 712 669 728 620 q 657 766 693 724 q 573 830 621 808 q 475 853 526 853 q 415 848 441 853 q 373 827 390 844 q 322 701 338 793 q 307 520 307 608 q 319 329 307 406 q 372 193 332 252 m 288 1054 l 488 1224 l 576 1224 l 777 1054 l 709 1000 l 532 1084 l 355 1000 l 288 1054 z "},"Ö":{"ha":1046,"x_min":47,"x_max":999,"o":"m 47 422 q 105 691 47 568 q 279 888 164 814 q 553 962 393 962 q 777 908 675 962 q 939 753 879 854 q 999 517 999 652 q 939 247 999 370 q 766 50 878 123 q 505 -24 654 -24 q 272 30 376 -24 q 107 185 168 84 q 47 422 47 286 m 372 193 q 458 114 406 142 q 570 85 509 85 q 636 95 604 85 q 686 127 669 105 q 725 251 711 161 q 739 419 739 341 q 734 565 739 509 q 712 669 728 620 q 657 766 693 724 q 573 830 621 808 q 475 853 526 853 q 415 848 441 853 q 373 827 390 844 q 322 701 338 793 q 307 520 307 608 q 319 329 307 406 q 372 193 332 252 m 238 1126 q 260 1170 238 1142 q 311 1220 283 1198 q 357 1242 340 1242 q 400 1219 372 1242 q 450 1169 428 1197 q 473 1124 473 1141 q 451 1080 473 1109 q 400 1029 429 1052 q 353 1007 371 1007 q 311 1030 338 1007 q 260 1081 283 1053 q 238 1126 238 1110 m 590 1126 q 612 1170 590 1142 q 663 1220 635 1198 q 709 1242 692 1242 q 752 1219 724 1242 q 802 1169 780 1197 q 825 1124 825 1141 q 803 1080 825 1109 q 752 1029 781 1052 q 705 1007 723 1007 q 663 1030 690 1007 q 612 1081 635 1053 q 590 1126 590 1110 z "},"Ò":{"ha":1046,"x_min":47,"x_max":999,"o":"m 47 422 q 105 691 47 568 q 279 888 164 814 q 553 962 393 962 q 777 908 675 962 q 939 753 879 854 q 999 517 999 652 q 939 247 999 370 q 766 50 878 123 q 505 -24 654 -24 q 272 30 376 -24 q 107 185 168 84 q 47 422 47 286 m 372 193 q 458 114 406 142 q 570 85 509 85 q 636 95 604 85 q 686 127 669 105 q 725 251 711 161 q 739 419 739 341 q 734 565 739 509 q 712 669 728 620 q 657 766 693 724 q 573 830 621 808 q 475 853 526 853 q 415 848 441 853 q 373 827 390 844 q 322 701 338 793 q 307 520 307 608 q 319 329 307 406 q 372 193 332 252 m 346 1111 l 370 1228 l 488 1228 l 715 1084 l 699 1006 l 346 1111 z "},"Ő":{"ha":1046,"x_min":47,"x_max":999,"o":"m 47 422 q 105 691 47 568 q 279 888 164 814 q 553 962 393 962 q 777 908 675 962 q 939 753 879 854 q 999 517 999 652 q 939 247 999 370 q 766 50 878 123 q 505 -24 654 -24 q 272 30 376 -24 q 107 185 168 84 q 47 422 47 286 m 372 193 q 458 114 406 142 q 570 85 509 85 q 636 95 604 85 q 686 127 669 105 q 725 251 711 161 q 739 419 739 341 q 734 565 739 509 q 712 669 728 620 q 657 766 693 724 q 573 830 621 808 q 475 853 526 853 q 415 848 441 853 q 373 827 390 844 q 322 701 338 793 q 307 520 307 608 q 319 329 307 406 q 372 193 332 252 m 450 1234 l 579 1234 l 593 1164 l 370 997 l 313 1086 l 450 1234 m 707 1234 l 836 1234 l 850 1164 l 627 997 l 570 1086 l 707 1234 z "},"Ō":{"ha":1046,"x_min":47,"x_max":999,"o":"m 47 422 q 105 691 47 568 q 279 888 164 814 q 553 962 393 962 q 777 908 675 962 q 939 753 879 854 q 999 517 999 652 q 939 247 999 370 q 766 50 878 123 q 505 -24 654 -24 q 272 30 376 -24 q 107 185 168 84 q 47 422 47 286 m 372 193 q 458 114 406 142 q 570 85 509 85 q 636 95 604 85 q 686 127 669 105 q 725 251 711 161 q 739 419 739 341 q 734 565 739 509 q 712 669 728 620 q 657 766 693 724 q 573 830 621 808 q 475 853 526 853 q 415 848 441 853 q 373 827 390 844 q 322 701 338 793 q 307 520 307 608 q 319 329 307 406 q 372 193 332 252 m 327 1164 l 759 1164 l 737 1044 q 526 1038 655 1040 q 303 1036 397 1036 l 327 1164 z "},"Ø":{"ha":1046,"x_min":47,"x_max":999,"o":"m 810 888 q 948 735 898 831 q 999 517 999 640 q 939 247 999 370 q 766 50 878 123 q 505 -24 654 -24 q 420 -18 462 -24 l 372 -129 l 216 -98 l 271 31 q 107 185 167 84 q 47 422 47 286 q 105 691 47 568 q 279 888 164 814 q 553 962 393 962 q 667 949 610 962 l 703 1033 l 858 1000 l 810 888 m 307 519 q 309 390 307 439 q 319 291 311 340 q 346 203 328 243 l 614 825 q 548 849 583 841 q 478 857 513 857 q 417 851 444 857 q 373 826 390 845 q 322 700 338 792 q 307 519 307 608 m 686 127 q 724 253 709 162 q 739 418 739 344 q 736 580 739 522 q 722 685 734 638 l 469 98 q 570 81 516 81 q 686 127 656 81 z "},"Õ":{"ha":1046,"x_min":47,"x_max":999,"o":"m 47 422 q 105 691 47 568 q 279 888 164 814 q 553 962 393 962 q 777 908 675 962 q 939 753 879 854 q 999 517 999 652 q 939 247 999 370 q 766 50 878 123 q 505 -24 654 -24 q 272 30 376 -24 q 107 185 168 84 q 47 422 47 286 m 372 193 q 458 114 406 142 q 570 85 509 85 q 636 95 604 85 q 686 127 669 105 q 725 251 711 161 q 739 419 739 341 q 734 565 739 509 q 712 669 728 620 q 657 766 693 724 q 573 830 621 808 q 475 853 526 853 q 415 848 441 853 q 373 827 390 844 q 322 701 338 793 q 307 520 307 608 q 319 329 307 406 q 372 193 332 252 m 265 1139 q 326 1204 301 1180 q 379 1243 350 1227 q 443 1259 409 1259 q 509 1242 480 1259 q 572 1197 538 1226 q 607 1171 595 1179 q 630 1163 618 1163 q 695 1185 653 1163 q 781 1243 736 1207 l 796 1143 q 736 1080 760 1103 q 682 1041 712 1057 q 618 1025 652 1025 q 553 1041 581 1025 q 490 1086 526 1057 q 457 1113 470 1104 q 433 1121 445 1121 q 366 1098 408 1121 q 284 1040 323 1075 l 265 1139 z "},"Œ":{"ha":1409,"x_min":47,"x_max":1383,"o":"m 661 0 q 505 -24 585 -24 q 272 30 376 -24 q 107 185 168 84 q 47 422 47 286 q 105 691 47 568 q 279 888 164 814 q 553 962 393 962 q 705 939 632 962 l 1210 939 l 1309 947 l 1335 708 l 1240 692 l 1175 832 l 909 879 l 909 503 q 987 520 933 511 q 1057 530 1040 529 l 1101 643 l 1171 630 l 1160 304 l 1088 314 l 1057 422 q 986 431 1043 422 q 909 447 930 440 l 909 67 l 1213 116 l 1295 252 l 1383 240 l 1331 0 l 661 0 m 570 85 q 616 89 593 85 q 659 104 640 94 l 659 774 q 574 832 623 811 q 475 852 526 852 q 415 848 441 852 q 373 826 390 843 q 322 700 338 792 q 307 519 307 608 q 319 328 307 405 q 372 192 332 251 q 458 113 406 141 q 570 85 509 85 z "},"P":{"ha":929,"x_min":35,"x_max":906,"o":"m 168 111 l 168 828 l 41 884 l 52 939 l 441 939 q 589 936 534 939 q 695 922 644 933 q 789 885 747 910 q 874 793 843 853 q 906 661 906 734 q 878 543 906 596 q 798 456 850 490 q 661 404 741 420 q 501 389 581 389 l 509 434 q 599 497 567 467 q 646 567 631 527 q 661 666 661 606 q 628 788 661 740 q 541 860 595 837 q 418 884 486 882 l 418 111 l 589 55 l 578 0 l 35 0 l 46 58 l 168 111 z "},"Þ":{"ha":933,"x_min":35,"x_max":907,"o":"m 826 696 q 907 498 907 627 q 878 379 907 433 q 797 293 850 326 q 662 241 739 257 q 502 225 584 225 l 510 270 q 602 334 569 301 q 648 409 634 368 q 662 509 662 450 q 594 666 662 614 q 418 721 526 717 l 418 112 l 574 55 l 563 0 l 35 0 l 47 58 l 168 112 l 168 828 l 41 884 l 52 939 l 551 939 l 541 882 l 418 827 l 418 776 q 610 771 540 776 q 733 749 681 766 q 826 696 785 732 z "},"Q":{"ha":1046,"x_min":47,"x_max":999,"o":"m 999 517 q 941 252 999 374 q 778 58 883 130 l 993 -176 l 970 -220 q 826 -198 901 -220 q 681 -130 751 -175 q 557 -21 610 -85 q 505 -24 535 -24 q 272 30 376 -24 q 107 185 168 84 q 47 422 47 286 q 105 691 47 568 q 279 888 164 814 q 553 962 393 962 q 777 908 675 962 q 939 753 879 854 q 999 517 999 652 m 372 193 q 458 114 406 142 q 570 85 509 85 q 636 95 604 85 q 686 127 669 105 q 725 251 711 161 q 739 419 739 341 q 734 565 739 509 q 712 669 728 620 q 657 766 693 724 q 573 830 621 808 q 475 853 526 853 q 415 848 441 853 q 373 827 390 844 q 322 701 338 793 q 307 520 307 608 q 319 329 307 406 q 372 193 332 252 z "},"R":{"ha":1025,"x_min":35,"x_max":1035,"o":"m 168 111 l 168 828 l 41 884 l 52 939 l 509 939 q 823 870 720 939 q 920 683 920 805 q 871 546 920 602 q 735 460 822 490 l 913 116 l 1035 54 l 1023 0 l 672 0 l 686 59 l 496 465 q 626 563 583 501 q 669 693 669 624 q 631 796 669 754 q 537 860 594 838 q 418 884 479 881 l 418 119 l 549 64 l 531 0 l 35 0 l 47 56 l 168 111 z "},"Ŕ":{"ha":1025,"x_min":35,"x_max":1035,"o":"m 168 111 l 168 828 l 41 884 l 52 939 l 509 939 q 823 870 720 939 q 920 683 920 805 q 871 546 920 602 q 735 460 822 490 l 913 116 l 1035 54 l 1023 0 l 672 0 l 686 59 l 496 465 q 626 563 583 501 q 669 693 669 624 q 631 796 669 754 q 537 860 594 838 q 418 884 479 881 l 418 119 l 549 64 l 531 0 l 35 0 l 47 56 l 168 111 m 321 1082 l 551 1228 l 668 1228 l 692 1110 l 340 1008 l 321 1082 z "},"Ř":{"ha":1025,"x_min":35,"x_max":1035,"o":"m 168 111 l 168 828 l 41 884 l 52 939 l 509 939 q 823 870 720 939 q 920 683 920 805 q 871 546 920 602 q 735 460 822 490 l 913 116 l 1035 54 l 1023 0 l 672 0 l 686 59 l 496 465 q 626 563 583 501 q 669 693 669 624 q 631 796 669 754 q 537 860 594 838 q 418 884 479 881 l 418 119 l 549 64 l 531 0 l 35 0 l 47 56 l 168 111 m 219 1185 l 283 1239 l 460 1154 l 639 1239 l 703 1185 l 510 1027 l 412 1027 l 219 1185 z "},"Ŗ":{"ha":1025,"x_min":35,"x_max":1035,"o":"m 168 111 l 168 828 l 41 884 l 52 939 l 509 939 q 823 870 720 939 q 920 683 920 805 q 871 546 920 602 q 735 460 822 490 l 913 116 l 1035 54 l 1023 0 l 672 0 l 686 59 l 496 465 q 626 563 583 501 q 669 693 669 624 q 631 796 669 754 q 537 860 594 838 q 418 884 479 881 l 418 119 l 549 64 l 531 0 l 35 0 l 47 56 l 168 111 m 436 -72 q 516 -83 477 -72 q 585 -119 555 -95 q 620 -162 608 -139 q 631 -216 631 -186 q 595 -304 631 -267 q 511 -361 560 -342 q 423 -380 462 -380 l 403 -325 q 467 -280 447 -296 q 494 -255 488 -264 q 500 -236 500 -246 q 475 -211 499 -222 q 409 -191 451 -199 l 436 -72 z "},"S":{"ha":809,"x_min":37,"x_max":758,"o":"m 540 874 q 494 872 515 874 q 389 843 434 865 q 319 787 344 820 q 310 772 313 780 q 307 753 307 764 q 357 677 307 721 q 520 573 408 634 q 647 494 597 532 q 727 404 696 456 q 758 280 758 351 q 707 120 758 189 q 561 14 656 52 q 336 -24 466 -24 q 165 0 246 -24 q 37 58 83 24 l 92 292 l 189 273 l 210 82 q 300 88 261 82 q 468 161 406 104 q 495 194 488 179 q 503 227 503 209 q 485 271 503 250 q 429 316 467 291 q 298 397 391 341 q 174 484 220 445 q 102 575 127 524 q 76 697 76 626 q 123 840 76 780 q 258 931 171 899 q 460 962 345 962 q 631 943 530 962 l 707 945 l 730 684 l 632 667 l 540 874 z "},"Ś":{"ha":809,"x_min":37,"x_max":758,"o":"m 540 874 q 494 872 515 874 q 389 843 434 865 q 319 787 344 820 q 310 772 313 780 q 307 753 307 764 q 357 677 307 721 q 520 573 408 634 q 647 494 597 532 q 727 404 696 456 q 758 280 758 351 q 707 120 758 189 q 561 14 656 52 q 336 -24 466 -24 q 165 0 246 -24 q 37 58 83 24 l 92 292 l 189 273 l 210 82 q 300 88 261 82 q 468 161 406 104 q 495 194 488 179 q 503 227 503 209 q 485 271 503 250 q 429 316 467 291 q 298 397 391 341 q 174 484 220 445 q 102 575 127 524 q 76 697 76 626 q 123 840 76 780 q 258 931 171 899 q 460 962 345 962 q 631 943 530 962 l 707 945 l 730 684 l 632 667 l 540 874 m 264 1082 l 494 1228 l 610 1228 l 635 1110 l 282 1008 l 264 1082 z "},"Š":{"ha":809,"x_min":37,"x_max":758,"o":"m 540 874 q 494 872 515 874 q 389 843 434 865 q 319 787 344 820 q 310 772 313 780 q 307 753 307 764 q 357 677 307 721 q 520 573 408 634 q 647 494 597 532 q 727 404 696 456 q 758 280 758 351 q 707 120 758 189 q 561 14 656 52 q 336 -24 466 -24 q 165 0 246 -24 q 37 58 83 24 l 92 292 l 189 273 l 210 82 q 300 88 261 82 q 468 161 406 104 q 495 194 488 179 q 503 227 503 209 q 485 271 503 250 q 429 316 467 291 q 298 397 391 341 q 174 484 220 445 q 102 575 127 524 q 76 697 76 626 q 123 840 76 780 q 258 931 171 899 q 460 962 345 962 q 631 943 530 962 l 707 945 l 730 684 l 632 667 l 540 874 m 161 1185 l 225 1239 l 403 1154 l 581 1239 l 645 1185 l 452 1027 l 354 1027 l 161 1185 z "},"Ş":{"ha":809,"x_min":37,"x_max":758,"o":"m 758 280 q 719 136 758 199 q 604 33 679 73 q 425 -19 528 -7 l 412 -64 q 478 -77 446 -64 q 530 -115 510 -90 q 551 -172 551 -140 q 508 -266 551 -228 q 401 -321 466 -303 q 267 -339 336 -339 l 256 -285 q 384 -231 353 -254 q 414 -189 414 -208 q 373 -155 414 -168 q 257 -136 332 -142 q 320 -24 271 -73 q 158 2 235 -21 q 37 58 81 26 l 92 292 l 189 273 l 210 82 q 300 88 261 82 q 468 161 406 104 q 495 194 488 179 q 503 227 503 209 q 485 271 503 250 q 429 316 467 291 q 298 397 391 341 q 174 484 220 445 q 102 575 127 524 q 76 697 76 626 q 123 840 76 780 q 258 931 171 899 q 460 962 345 962 q 631 943 530 962 l 707 945 l 730 684 l 632 667 l 540 874 q 494 872 515 874 q 389 843 434 865 q 319 787 344 820 q 310 772 313 780 q 307 753 307 764 q 357 677 307 721 q 520 573 408 634 q 647 494 597 532 q 727 404 696 456 q 758 280 758 351 z "},"Ș":{"ha":809,"x_min":37,"x_max":758,"o":"m 540 874 q 494 872 515 874 q 389 843 434 865 q 319 787 344 820 q 310 772 313 780 q 307 753 307 764 q 357 677 307 721 q 520 573 408 634 q 647 494 597 532 q 727 404 696 456 q 758 280 758 351 q 707 120 758 189 q 561 14 656 52 q 336 -24 466 -24 q 165 0 246 -24 q 37 58 83 24 l 92 292 l 189 273 l 210 82 q 300 88 261 82 q 468 161 406 104 q 495 194 488 179 q 503 227 503 209 q 485 271 503 250 q 429 316 467 291 q 298 397 391 341 q 174 484 220 445 q 102 575 127 524 q 76 697 76 626 q 123 840 76 780 q 258 931 171 899 q 460 962 345 962 q 631 943 530 962 l 707 945 l 730 684 l 632 667 l 540 874 m 313 -72 q 394 -83 355 -72 q 462 -119 433 -95 q 497 -162 486 -139 q 508 -216 508 -186 q 473 -304 508 -267 q 388 -361 437 -342 q 300 -380 339 -380 l 280 -325 q 345 -280 324 -296 q 371 -255 365 -264 q 377 -236 378 -246 q 352 -211 376 -222 q 286 -191 328 -199 l 313 -72 z "},"T":{"ha":993,"x_min":-1,"x_max":988,"o":"m 372 115 l 372 874 l 184 840 l 96 669 l -1 685 l 55 945 l 146 939 l 869 939 l 956 949 l 988 684 l 886 667 l 809 839 l 616 874 l 616 114 l 778 60 l 766 0 l 217 0 l 230 60 l 372 115 z "},"Ť":{"ha":993,"x_min":-1,"x_max":988,"o":"m 372 115 l 372 874 l 184 840 l 96 669 l -1 685 l 55 945 l 146 939 l 869 939 l 956 949 l 988 684 l 886 667 l 809 839 l 616 874 l 616 114 l 778 60 l 766 0 l 217 0 l 230 60 l 372 115 m 256 1185 l 319 1239 l 497 1154 l 675 1239 l 739 1185 l 547 1027 l 448 1027 l 256 1185 z "},"Ț":{"ha":993,"x_min":-1,"x_max":988,"o":"m 372 115 l 372 874 l 184 840 l 96 669 l -1 685 l 55 945 l 146 939 l 869 939 l 956 949 l 988 684 l 886 667 l 809 839 l 616 874 l 616 114 l 778 60 l 766 0 l 217 0 l 230 60 l 372 115 m 404 -72 q 484 -83 445 -72 q 552 -119 523 -95 q 587 -162 576 -139 q 598 -216 598 -186 q 563 -304 598 -267 q 478 -361 528 -342 q 391 -380 429 -380 l 370 -325 q 435 -280 414 -296 q 461 -255 455 -264 q 467 -236 468 -246 q 443 -211 467 -222 q 376 -191 418 -199 l 404 -72 z "},"U":{"ha":1086,"x_min":27,"x_max":1072,"o":"m 387 363 q 413 231 387 288 q 493 140 439 173 q 624 108 546 108 q 700 118 665 108 q 758 151 735 129 q 809 323 809 203 l 809 828 l 675 884 l 687 939 l 1072 939 l 1062 882 l 958 825 l 958 359 q 846 71 958 165 q 524 -24 734 -24 q 237 62 332 -24 q 143 318 143 147 l 143 828 l 27 885 l 39 939 l 532 939 l 517 870 l 387 821 l 387 363 z "},"Ú":{"ha":1086,"x_min":27,"x_max":1072,"o":"m 387 363 q 413 231 387 288 q 493 140 439 173 q 624 108 546 108 q 700 118 665 108 q 758 151 735 129 q 809 323 809 203 l 809 828 l 675 884 l 687 939 l 1072 939 l 1062 882 l 958 825 l 958 359 q 846 71 958 165 q 524 -24 734 -24 q 237 62 332 -24 q 143 318 143 147 l 143 828 l 27 885 l 39 939 l 532 939 l 517 870 l 387 821 l 387 363 m 440 1082 l 670 1228 l 787 1228 l 811 1110 l 458 1008 l 440 1082 z "},"Û":{"ha":1086,"x_min":27,"x_max":1072,"o":"m 387 363 q 413 231 387 288 q 493 140 439 173 q 624 108 546 108 q 700 118 665 108 q 758 151 735 129 q 809 323 809 203 l 809 828 l 675 884 l 687 939 l 1072 939 l 1062 882 l 958 825 l 958 359 q 846 71 958 165 q 524 -24 734 -24 q 237 62 332 -24 q 143 318 143 147 l 143 828 l 27 885 l 39 939 l 532 939 l 517 870 l 387 821 l 387 363 m 336 1054 l 536 1224 l 624 1224 l 825 1054 l 758 1000 l 581 1084 l 404 1000 l 336 1054 z "},"Ü":{"ha":1086,"x_min":27,"x_max":1072,"o":"m 387 363 q 413 231 387 288 q 493 140 439 173 q 624 108 546 108 q 700 118 665 108 q 758 151 735 129 q 809 323 809 203 l 809 828 l 675 884 l 687 939 l 1072 939 l 1062 882 l 958 825 l 958 359 q 846 71 958 165 q 524 -24 734 -24 q 237 62 332 -24 q 143 318 143 147 l 143 828 l 27 885 l 39 939 l 532 939 l 517 870 l 387 821 l 387 363 m 286 1126 q 309 1170 286 1142 q 359 1220 331 1198 q 406 1242 388 1242 q 448 1219 420 1242 q 498 1169 476 1197 q 521 1124 521 1141 q 499 1080 521 1109 q 448 1029 477 1052 q 401 1007 419 1007 q 359 1030 387 1007 q 309 1081 331 1053 q 286 1126 286 1110 m 638 1126 q 661 1170 638 1142 q 711 1220 683 1198 q 758 1242 740 1242 q 800 1219 772 1242 q 850 1169 828 1197 q 873 1124 873 1141 q 851 1080 873 1109 q 800 1029 829 1052 q 753 1007 771 1007 q 711 1030 739 1007 q 661 1081 683 1053 q 638 1126 638 1110 z "},"Ù":{"ha":1086,"x_min":27,"x_max":1072,"o":"m 387 363 q 413 231 387 288 q 493 140 439 173 q 624 108 546 108 q 700 118 665 108 q 758 151 735 129 q 809 323 809 203 l 809 828 l 675 884 l 687 939 l 1072 939 l 1062 882 l 958 825 l 958 359 q 846 71 958 165 q 524 -24 734 -24 q 237 62 332 -24 q 143 318 143 147 l 143 828 l 27 885 l 39 939 l 532 939 l 517 870 l 387 821 l 387 363 m 394 1111 l 418 1228 l 536 1228 l 764 1084 l 747 1006 l 394 1111 z "},"Ű":{"ha":1086,"x_min":27,"x_max":1072,"o":"m 387 363 q 413 231 387 288 q 493 140 439 173 q 624 108 546 108 q 700 118 665 108 q 758 151 735 129 q 809 323 809 203 l 809 828 l 675 884 l 687 939 l 1072 939 l 1062 882 l 958 825 l 958 359 q 846 71 958 165 q 524 -24 734 -24 q 237 62 332 -24 q 143 318 143 147 l 143 828 l 27 885 l 39 939 l 532 939 l 517 870 l 387 821 l 387 363 m 498 1234 l 627 1234 l 642 1164 l 418 997 l 361 1086 l 498 1234 m 755 1234 l 884 1234 l 899 1164 l 675 997 l 618 1086 l 755 1234 z "},"Ū":{"ha":1086,"x_min":27,"x_max":1072,"o":"m 387 363 q 413 231 387 288 q 493 140 439 173 q 624 108 546 108 q 700 118 665 108 q 758 151 735 129 q 809 323 809 203 l 809 828 l 675 884 l 687 939 l 1072 939 l 1062 882 l 958 825 l 958 359 q 846 71 958 165 q 524 -24 734 -24 q 237 62 332 -24 q 143 318 143 147 l 143 828 l 27 885 l 39 939 l 532 939 l 517 870 l 387 821 l 387 363 m 375 1164 l 807 1164 l 785 1044 q 574 1038 703 1040 q 351 1036 446 1036 l 375 1164 z "},"Ų":{"ha":1086,"x_min":21,"x_max":1072,"o":"m 387 363 q 413 231 387 288 q 493 140 439 173 q 624 108 546 108 q 767 162 725 108 q 809 323 809 216 l 809 828 l 677 884 l 688 939 l 1072 939 l 1062 882 l 958 825 l 958 359 q 922 171 958 246 q 804 41 886 96 q 675 -60 724 -12 q 627 -153 627 -109 q 638 -202 627 -178 q 671 -235 650 -226 q 694 -241 683 -241 q 751 -231 715 -241 q 813 -207 787 -220 l 833 -239 q 736 -315 791 -289 q 623 -342 682 -342 q 535 -326 576 -342 q 469 -275 494 -309 q 444 -188 444 -240 q 500 -74 444 -127 q 572 -22 532 -45 q 524 -24 550 -24 q 234 62 331 -24 q 137 318 137 148 l 137 828 l 21 884 l 33 939 l 531 939 l 518 870 l 387 821 l 387 363 z "},"Ů":{"ha":1086,"x_min":27,"x_max":1072,"o":"m 387 363 q 413 231 387 288 q 493 140 439 173 q 624 108 546 108 q 700 118 665 108 q 758 151 735 129 q 809 323 809 203 l 809 828 l 675 884 l 687 939 l 1072 939 l 1062 882 l 958 825 l 958 359 q 846 71 958 165 q 524 -24 734 -24 q 237 62 332 -24 q 143 318 143 147 l 143 828 l 27 885 l 39 939 l 532 939 l 517 870 l 387 821 l 387 363 m 570 993 q 500 1009 532 993 q 450 1054 469 1025 q 431 1122 431 1084 q 449 1194 431 1162 q 500 1245 467 1227 q 576 1263 533 1263 q 644 1247 612 1263 q 695 1201 675 1231 q 714 1134 714 1172 q 696 1061 714 1093 q 645 1011 677 1029 q 570 993 612 993 m 576 1079 q 607 1092 595 1079 q 618 1123 618 1104 q 604 1163 618 1147 q 567 1179 591 1179 q 537 1166 549 1179 q 526 1133 526 1152 q 539 1095 526 1111 q 576 1079 552 1079 z "},"V":{"ha":987,"x_min":-28,"x_max":1013,"o":"m 764 828 l 648 877 l 660 939 l 1013 939 l 1001 877 l 907 828 l 635 0 l 374 -24 l 71 828 l -28 877 l -15 939 l 466 939 l 456 878 l 348 828 l 575 137 l 764 828 z "},"W":{"ha":1561,"x_min":-12,"x_max":1586,"o":"m 1586 939 l 1573 875 l 1481 828 l 1230 0 l 966 -24 l 784 547 l 597 0 l 333 -24 l 90 828 l -12 876 l 0 939 l 472 939 l 462 878 l 359 828 l 534 141 l 725 730 l 694 828 l 592 879 l 604 939 l 1093 939 l 1081 876 l 956 828 l 1168 142 l 1337 828 l 1204 876 l 1218 939 l 1586 939 z "},"X":{"ha":1011,"x_min":6,"x_max":1004,"o":"m 1004 58 l 994 0 l 498 0 l 508 57 l 598 109 l 437 355 l 286 109 l 382 54 l 369 0 l 6 0 l 17 62 l 123 109 l 373 453 l 119 828 l 10 873 l 24 939 l 515 939 l 505 881 l 414 829 l 576 579 l 724 829 l 629 886 l 640 939 l 1004 939 l 991 873 l 884 828 l 640 481 l 897 106 l 1004 58 z "},"Y":{"ha":908,"x_min":-28,"x_max":932,"o":"m 335 108 l 335 378 l 69 828 l -28 876 l -16 939 l 443 939 l 431 880 l 332 828 l 529 477 q 680 828 593 659 l 560 884 l 572 939 l 932 939 l 922 875 l 823 828 l 579 380 l 579 108 l 718 55 l 707 0 l 205 0 l 216 56 l 335 108 z "},"Ý":{"ha":908,"x_min":-28,"x_max":932,"o":"m 335 108 l 335 378 l 69 828 l -28 876 l -16 939 l 443 939 l 431 880 l 332 828 l 529 477 q 680 828 593 659 l 560 884 l 572 939 l 932 939 l 922 875 l 823 828 l 579 380 l 579 108 l 718 55 l 707 0 l 205 0 l 216 56 l 335 108 m 329 1082 l 559 1228 l 675 1228 l 700 1110 l 347 1008 l 329 1082 z "},"Ÿ":{"ha":908,"x_min":-28,"x_max":932,"o":"m 335 108 l 335 378 l 69 828 l -28 876 l -16 939 l 443 939 l 431 880 l 332 828 l 529 477 q 680 828 593 659 l 560 884 l 572 939 l 932 939 l 922 875 l 823 828 l 579 380 l 579 108 l 718 55 l 707 0 l 205 0 l 216 56 l 335 108 m 175 1126 q 197 1170 175 1142 q 248 1220 220 1198 q 294 1242 277 1242 q 337 1219 309 1242 q 387 1169 365 1197 q 410 1124 410 1141 q 388 1080 410 1109 q 337 1029 366 1052 q 290 1007 308 1007 q 248 1030 275 1007 q 197 1081 220 1053 q 175 1126 175 1110 m 527 1126 q 549 1170 527 1142 q 600 1220 572 1198 q 646 1242 629 1242 q 689 1219 661 1242 q 739 1169 717 1197 q 762 1124 762 1141 q 740 1080 762 1109 q 689 1029 718 1052 q 642 1007 660 1007 q 600 1030 627 1007 q 549 1081 572 1053 q 527 1126 527 1110 z "},"Z":{"ha":896,"x_min":31,"x_max":859,"o":"m 770 261 l 859 249 l 804 0 l 66 0 l 31 102 l 573 866 l 230 836 l 159 690 l 61 702 l 87 945 l 257 939 l 823 939 l 850 856 l 303 79 l 684 117 l 770 261 z "},"Ź":{"ha":896,"x_min":31,"x_max":859,"o":"m 770 261 l 859 249 l 804 0 l 66 0 l 31 102 l 573 866 l 230 836 l 159 690 l 61 702 l 87 945 l 257 939 l 823 939 l 850 856 l 303 79 l 684 117 l 770 261 m 323 1082 l 553 1228 l 670 1228 l 694 1110 l 342 1008 l 323 1082 z "},"Ž":{"ha":896,"x_min":31,"x_max":859,"o":"m 770 261 l 859 249 l 804 0 l 66 0 l 31 102 l 573 866 l 230 836 l 159 690 l 61 702 l 87 945 l 257 939 l 823 939 l 850 856 l 303 79 l 684 117 l 770 261 m 221 1185 l 285 1239 l 463 1154 l 641 1239 l 705 1185 l 512 1027 l 414 1027 l 221 1185 z "},"Ż":{"ha":896,"x_min":31,"x_max":859,"o":"m 770 261 l 859 249 l 804 0 l 66 0 l 31 102 l 573 866 l 230 836 l 159 690 l 61 702 l 87 945 l 257 939 l 823 939 l 850 856 l 303 79 l 684 117 l 770 261 m 458 1007 q 415 1030 443 1007 q 365 1081 387 1053 q 342 1126 342 1110 q 365 1170 342 1142 q 416 1220 387 1198 q 462 1242 444 1242 q 504 1219 476 1242 q 555 1169 532 1197 q 577 1124 577 1141 q 555 1080 577 1109 q 504 1029 533 1052 q 458 1007 475 1007 z "},"a":{"ha":777,"x_min":35,"x_max":784,"o":"m 35 163 q 138 345 35 299 q 290 371 196 371 q 364 368 325 371 q 433 360 403 366 l 433 397 q 389 577 433 543 q 362 589 379 585 q 328 593 346 593 q 298 589 312 593 l 279 476 q 235 438 261 455 q 197 421 210 421 q 147 447 181 421 q 85 505 113 473 q 57 559 57 538 q 94 594 57 574 q 168 626 132 614 q 311 654 233 646 q 447 661 388 661 q 614 606 562 661 q 666 457 666 551 l 666 137 q 710 93 681 111 q 784 63 739 75 l 774 24 q 681 -7 731 3 q 566 -17 631 -17 q 515 45 543 19 q 451 90 488 72 q 396 32 422 54 q 332 -4 370 9 q 239 -17 294 -17 q 119 10 165 -17 q 54 78 74 37 q 35 163 35 119 m 289 102 q 308 92 295 92 q 371 98 333 92 q 433 112 409 104 l 433 314 q 319 283 363 299 q 270 258 275 267 q 262 215 262 244 q 270 153 262 186 q 289 102 278 119 z "},"á":{"ha":777,"x_min":35,"x_max":784,"o":"m 35 163 q 138 345 35 299 q 290 371 196 371 q 364 368 325 371 q 433 360 403 366 l 433 397 q 389 577 433 543 q 362 589 379 585 q 328 593 346 593 q 298 589 312 593 l 279 476 q 235 438 261 455 q 197 421 210 421 q 147 447 181 421 q 85 505 113 473 q 57 559 57 538 q 94 594 57 574 q 168 626 132 614 q 311 654 233 646 q 447 661 388 661 q 614 606 562 661 q 666 457 666 551 l 666 137 q 710 93 681 111 q 784 63 739 75 l 774 24 q 681 -7 731 3 q 566 -17 631 -17 q 515 45 543 19 q 451 90 488 72 q 396 32 422 54 q 332 -4 370 9 q 239 -17 294 -17 q 119 10 165 -17 q 54 78 74 37 q 35 163 35 119 m 289 102 q 308 92 295 92 q 371 98 333 92 q 433 112 409 104 l 433 314 q 319 283 363 299 q 270 258 275 267 q 262 215 262 244 q 270 153 262 186 q 289 102 278 119 m 429 998 l 539 998 l 566 866 l 258 707 l 239 816 l 429 998 z "},"ă":{"ha":777,"x_min":35,"x_max":784,"o":"m 35 163 q 138 345 35 299 q 290 371 196 371 q 364 368 325 371 q 433 360 403 366 l 433 397 q 389 577 433 543 q 362 589 379 585 q 328 593 346 593 q 298 589 312 593 l 279 476 q 235 438 261 455 q 197 421 210 421 q 147 447 181 421 q 85 505 113 473 q 57 559 57 538 q 94 594 57 574 q 168 626 132 614 q 311 654 233 646 q 447 661 388 661 q 614 606 562 661 q 666 457 666 551 l 666 137 q 710 93 681 111 q 784 63 739 75 l 774 24 q 681 -7 731 3 q 566 -17 631 -17 q 515 45 543 19 q 451 90 488 72 q 396 32 422 54 q 332 -4 370 9 q 239 -17 294 -17 q 119 10 165 -17 q 54 78 74 37 q 35 163 35 119 m 289 102 q 308 92 295 92 q 371 98 333 92 q 433 112 409 104 l 433 314 q 319 283 363 299 q 270 258 275 267 q 262 215 262 244 q 270 153 262 186 q 289 102 278 119 m 369 713 q 251 737 304 713 q 169 801 199 761 q 140 886 140 841 q 148 937 140 911 l 258 936 q 299 852 271 878 q 370 827 328 827 q 437 852 410 827 q 475 937 463 878 l 586 937 q 594 887 594 909 q 565 802 594 842 q 484 737 536 762 q 369 713 433 713 z "},"â":{"ha":777,"x_min":35,"x_max":784,"o":"m 35 163 q 138 345 35 299 q 290 371 196 371 q 364 368 325 371 q 433 360 403 366 l 433 397 q 389 577 433 543 q 362 589 379 585 q 328 593 346 593 q 298 589 312 593 l 279 476 q 235 438 261 455 q 197 421 210 421 q 147 447 181 421 q 85 505 113 473 q 57 559 57 538 q 94 594 57 574 q 168 626 132 614 q 311 654 233 646 q 447 661 388 661 q 614 606 562 661 q 666 457 666 551 l 666 137 q 710 93 681 111 q 784 63 739 75 l 774 24 q 681 -7 731 3 q 566 -17 631 -17 q 515 45 543 19 q 451 90 488 72 q 396 32 422 54 q 332 -4 370 9 q 239 -17 294 -17 q 119 10 165 -17 q 54 78 74 37 q 35 163 35 119 m 289 102 q 308 92 295 92 q 371 98 333 92 q 433 112 409 104 l 433 314 q 319 283 363 299 q 270 258 275 267 q 262 215 262 244 q 270 153 262 186 q 289 102 278 119 m 205 732 l 107 767 l 302 958 l 433 958 l 629 767 l 530 731 l 368 824 l 205 732 z "},"ä":{"ha":777,"x_min":35,"x_max":784,"o":"m 35 163 q 138 345 35 299 q 290 371 196 371 q 364 368 325 371 q 433 360 403 366 l 433 397 q 389 577 433 543 q 362 589 379 585 q 328 593 346 593 q 298 589 312 593 l 279 476 q 235 438 261 455 q 197 421 210 421 q 147 447 181 421 q 85 505 113 473 q 57 559 57 538 q 94 594 57 574 q 168 626 132 614 q 311 654 233 646 q 447 661 388 661 q 614 606 562 661 q 666 457 666 551 l 666 137 q 710 93 681 111 q 784 63 739 75 l 774 24 q 681 -7 731 3 q 566 -17 631 -17 q 515 45 543 19 q 451 90 488 72 q 396 32 422 54 q 332 -4 370 9 q 239 -17 294 -17 q 119 10 165 -17 q 54 78 74 37 q 35 163 35 119 m 289 102 q 308 92 295 92 q 371 98 333 92 q 433 112 409 104 l 433 314 q 319 283 363 299 q 270 258 275 267 q 262 215 262 244 q 270 153 262 186 q 289 102 278 119 m 62 869 q 89 921 62 888 q 149 980 115 954 q 203 1006 182 1006 q 249 979 220 1006 q 302 919 279 953 q 326 867 326 886 q 302 814 326 848 q 249 755 279 781 q 199 729 218 729 q 148 755 181 729 q 89 815 115 782 q 62 869 62 849 m 408 869 q 432 922 408 888 q 486 980 455 955 q 535 1006 516 1006 q 586 979 553 1006 q 645 920 618 953 q 671 867 671 886 q 646 814 671 848 q 586 755 620 781 q 531 729 552 729 q 483 756 513 729 q 431 817 454 783 q 408 869 408 850 z "},"à":{"ha":777,"x_min":35,"x_max":784,"o":"m 35 163 q 138 345 35 299 q 290 371 196 371 q 364 368 325 371 q 433 360 403 366 l 433 397 q 389 577 433 543 q 362 589 379 585 q 328 593 346 593 q 298 589 312 593 l 279 476 q 235 438 261 455 q 197 421 210 421 q 147 447 181 421 q 85 505 113 473 q 57 559 57 538 q 94 594 57 574 q 168 626 132 614 q 311 654 233 646 q 447 661 388 661 q 614 606 562 661 q 666 457 666 551 l 666 137 q 710 93 681 111 q 784 63 739 75 l 774 24 q 681 -7 731 3 q 566 -17 631 -17 q 515 45 543 19 q 451 90 488 72 q 396 32 422 54 q 332 -4 370 9 q 239 -17 294 -17 q 119 10 165 -17 q 54 78 74 37 q 35 163 35 119 m 289 102 q 308 92 295 92 q 371 98 333 92 q 433 112 409 104 l 433 314 q 319 283 363 299 q 270 258 275 267 q 262 215 262 244 q 270 153 262 186 q 289 102 278 119 m 191 867 l 216 998 l 328 998 l 518 815 l 500 707 l 191 867 z "},"ā":{"ha":777,"x_min":35,"x_max":784,"o":"m 35 163 q 138 345 35 299 q 290 371 196 371 q 364 368 325 371 q 433 360 403 366 l 433 397 q 389 577 433 543 q 362 589 379 585 q 328 593 346 593 q 298 589 312 593 l 279 476 q 235 438 261 455 q 197 421 210 421 q 147 447 181 421 q 85 505 113 473 q 57 559 57 538 q 94 594 57 574 q 168 626 132 614 q 311 654 233 646 q 447 661 388 661 q 614 606 562 661 q 666 457 666 551 l 666 137 q 710 93 681 111 q 784 63 739 75 l 774 24 q 681 -7 731 3 q 566 -17 631 -17 q 515 45 543 19 q 451 90 488 72 q 396 32 422 54 q 332 -4 370 9 q 239 -17 294 -17 q 119 10 165 -17 q 54 78 74 37 q 35 163 35 119 m 289 102 q 308 92 295 92 q 371 98 333 92 q 433 112 409 104 l 433 314 q 319 283 363 299 q 270 258 275 267 q 262 215 262 244 q 270 153 262 186 q 289 102 278 119 m 166 905 l 596 905 l 571 775 q 180 767 392 767 l 140 767 l 166 905 z "},"ą":{"ha":777,"x_min":35,"x_max":784,"o":"m 35 163 q 138 345 35 299 q 283 371 196 371 q 433 360 372 371 l 433 397 q 389 577 433 543 q 362 589 379 585 q 328 593 346 593 q 298 589 312 593 l 279 476 q 235 438 261 455 q 197 421 210 421 q 147 447 181 421 q 85 505 113 473 q 57 559 57 538 q 94 594 57 574 q 168 626 132 614 q 311 654 233 646 q 447 661 388 661 q 614 606 562 661 q 666 457 666 551 l 666 137 q 784 64 694 86 l 773 22 q 642 -24 699 3 q 554 -86 585 -52 q 523 -153 523 -119 q 535 -202 523 -178 q 567 -235 547 -226 q 590 -241 578 -241 q 645 -232 611 -241 q 709 -208 679 -222 l 729 -239 q 633 -315 687 -289 q 519 -342 578 -342 q 431 -326 472 -342 q 366 -275 391 -309 q 340 -188 340 -240 q 401 -70 340 -122 q 543 14 461 -18 q 451 90 493 75 q 396 30 421 52 q 331 -4 372 9 q 224 -17 290 -17 q 117 11 160 -17 q 55 79 75 38 q 35 163 35 121 m 289 102 q 308 92 295 92 q 371 98 333 92 q 433 112 409 104 l 433 314 q 319 283 363 299 q 270 258 275 267 q 262 204 262 244 q 270 149 262 178 q 289 102 278 119 z "},"å":{"ha":777,"x_min":35,"x_max":784,"o":"m 35 163 q 138 345 35 299 q 290 371 196 371 q 364 368 325 371 q 433 360 403 366 l 433 397 q 389 577 433 543 q 362 589 379 585 q 328 593 346 593 q 298 589 312 593 l 279 476 q 235 438 261 455 q 197 421 210 421 q 147 447 181 421 q 85 505 113 473 q 57 559 57 538 q 94 594 57 574 q 168 626 132 614 q 311 654 233 646 q 447 661 388 661 q 614 606 562 661 q 666 457 666 551 l 666 137 q 710 93 681 111 q 784 63 739 75 l 774 24 q 681 -7 731 3 q 566 -17 631 -17 q 515 45 543 19 q 451 90 488 72 q 396 32 422 54 q 332 -4 370 9 q 239 -17 294 -17 q 119 10 165 -17 q 54 78 74 37 q 35 163 35 119 m 289 102 q 308 92 295 92 q 371 98 333 92 q 433 112 409 104 l 433 314 q 319 283 363 299 q 270 258 275 267 q 262 215 262 244 q 270 153 262 186 q 289 102 278 119 m 365 703 q 281 722 319 703 q 223 776 244 741 q 201 856 201 810 q 223 939 201 901 q 283 1001 244 978 q 371 1023 321 1023 q 452 1004 415 1023 q 511 950 489 985 q 532 869 532 915 q 511 786 532 824 q 451 726 489 748 q 365 703 412 703 m 372 799 q 411 815 396 799 q 426 857 426 832 q 407 908 426 886 q 359 930 388 930 q 321 912 336 930 q 306 870 306 895 q 324 820 306 842 q 372 799 342 799 z "},"ã":{"ha":777,"x_min":35,"x_max":784,"o":"m 35 163 q 138 345 35 299 q 290 371 196 371 q 364 368 325 371 q 433 360 403 366 l 433 397 q 389 577 433 543 q 362 589 379 585 q 328 593 346 593 q 298 589 312 593 l 279 476 q 235 438 261 455 q 197 421 210 421 q 147 447 181 421 q 85 505 113 473 q 57 559 57 538 q 94 594 57 574 q 168 626 132 614 q 311 654 233 646 q 447 661 388 661 q 614 606 562 661 q 666 457 666 551 l 666 137 q 710 93 681 111 q 784 63 739 75 l 774 24 q 681 -7 731 3 q 566 -17 631 -17 q 515 45 543 19 q 451 90 488 72 q 396 32 422 54 q 332 -4 370 9 q 239 -17 294 -17 q 119 10 165 -17 q 54 78 74 37 q 35 163 35 119 m 289 102 q 308 92 295 92 q 371 98 333 92 q 433 112 409 104 l 433 314 q 319 283 363 299 q 270 258 275 267 q 262 215 262 244 q 270 153 262 186 q 289 102 278 119 m 106 871 q 164 928 139 906 q 218 966 189 951 q 277 982 247 982 q 340 967 311 982 q 406 924 368 952 q 439 900 426 908 q 463 892 452 892 q 530 912 486 892 q 608 959 574 932 l 628 848 q 569 790 593 811 q 516 753 545 768 q 456 737 488 737 q 394 752 422 737 q 330 795 366 768 q 294 819 307 812 q 271 827 281 827 q 204 807 248 827 q 125 760 160 787 l 106 871 z "},"æ":{"ha":1023,"x_min":35,"x_max":994,"o":"m 35 163 q 60 276 35 235 q 144 339 85 317 q 217 359 176 352 q 299 366 257 366 q 416 360 344 366 l 416 390 q 372 577 416 540 q 348 589 363 585 q 317 593 333 593 q 288 589 302 593 l 269 476 q 225 438 251 455 q 186 421 199 421 q 137 447 171 421 q 75 505 102 473 q 47 559 47 538 q 84 594 47 574 q 158 626 121 614 q 297 654 221 646 q 430 661 372 661 q 577 623 522 661 q 761 661 661 661 q 886 631 833 661 q 966 552 939 602 q 994 446 994 503 q 965 356 994 402 q 945 338 957 344 q 910 332 933 332 l 607 332 q 637 221 611 276 q 703 131 664 166 q 780 96 741 96 q 866 106 811 96 q 945 124 920 117 l 956 103 q 860 13 922 43 q 726 -17 798 -17 q 572 14 645 -17 q 457 102 499 45 q 393 35 425 60 q 318 -4 360 9 q 218 -17 275 -17 q 115 11 156 -17 q 54 79 73 38 q 35 163 35 121 m 778 415 q 764 506 778 469 q 725 563 749 544 q 672 583 701 583 q 637 568 646 583 q 618 497 627 547 q 607 382 609 448 l 778 415 m 289 102 q 308 92 295 92 q 368 100 336 92 q 416 123 399 108 l 416 311 q 315 278 355 295 q 270 251 275 260 q 263 230 264 241 q 262 204 262 220 q 270 149 262 178 q 289 102 278 119 z "},"b":{"ha":823,"x_min":6,"x_max":779,"o":"m 70 -17 l 42 20 l 100 130 l 100 863 l 6 926 l 14 959 l 333 998 l 333 564 q 438 634 385 607 q 553 661 492 661 q 680 615 629 661 q 755 498 731 570 q 779 345 779 426 q 758 193 779 264 q 694 74 736 122 q 609 8 658 33 q 497 -17 560 -17 q 394 3 439 -17 q 308 66 350 24 l 70 -17 m 333 106 q 465 97 386 97 q 507 103 492 97 q 530 132 522 110 q 550 274 550 187 q 539 396 550 340 q 500 496 528 452 q 475 524 488 517 q 443 532 462 532 q 385 526 421 532 q 333 514 349 521 l 333 106 z "},"c":{"ha":654,"x_min":35,"x_max":637,"o":"m 385 605 q 306 538 337 590 q 272 452 283 501 q 261 359 261 404 q 273 261 261 303 q 311 181 285 219 q 369 122 339 141 q 437 103 399 103 q 537 111 473 103 q 626 122 602 118 l 637 102 q 578 45 616 72 q 487 0 540 18 q 374 -17 435 -17 q 193 22 270 -17 q 76 137 117 62 q 35 319 35 213 q 84 496 35 418 q 218 618 134 574 q 399 661 302 661 q 480 654 444 661 q 554 629 517 646 q 609 593 585 615 q 634 559 634 572 q 607 506 634 539 q 546 447 580 473 q 496 421 511 421 q 453 438 479 421 q 412 476 427 456 l 385 605 z "},"ć":{"ha":654,"x_min":35,"x_max":637,"o":"m 385 605 q 306 538 337 590 q 272 452 283 501 q 261 359 261 404 q 273 261 261 303 q 311 181 285 219 q 369 122 339 141 q 437 103 399 103 q 537 111 473 103 q 626 122 602 118 l 637 102 q 578 45 616 72 q 487 0 540 18 q 374 -17 435 -17 q 193 22 270 -17 q 76 137 117 62 q 35 319 35 213 q 84 496 35 418 q 218 618 134 574 q 399 661 302 661 q 480 654 444 661 q 554 629 517 646 q 609 593 585 615 q 634 559 634 572 q 607 506 634 539 q 546 447 580 473 q 496 421 511 421 q 453 438 479 421 q 412 476 427 456 l 385 605 m 412 998 l 523 998 l 549 866 l 242 707 l 222 816 l 412 998 z "},"č":{"ha":654,"x_min":35,"x_max":637,"o":"m 385 605 q 306 538 337 590 q 272 452 283 501 q 261 359 261 404 q 273 261 261 303 q 311 181 285 219 q 369 122 339 141 q 437 103 399 103 q 537 111 473 103 q 626 122 602 118 l 637 102 q 578 45 616 72 q 487 0 540 18 q 374 -17 435 -17 q 193 22 270 -17 q 76 137 117 62 q 35 319 35 213 q 84 496 35 418 q 218 618 134 574 q 399 661 302 661 q 480 654 444 661 q 554 629 517 646 q 609 593 585 615 q 634 559 634 572 q 607 506 634 539 q 546 447 580 473 q 496 421 511 421 q 453 438 479 421 q 412 476 427 456 l 385 605 m 516 966 l 612 931 l 422 739 l 279 739 l 90 931 l 185 966 l 351 863 l 516 966 z "},"ç":{"ha":654,"x_min":35,"x_max":637,"o":"m 637 102 q 546 25 607 59 q 407 -16 485 -9 l 393 -56 q 503 -97 467 -66 q 538 -184 538 -129 q 493 -274 538 -238 q 385 -328 448 -311 q 269 -346 322 -346 l 247 -286 q 398 -191 398 -237 q 362 -152 398 -167 q 263 -127 326 -137 q 283 -74 265 -106 q 321 -14 300 -41 q 168 37 233 -5 q 69 150 104 79 q 35 319 35 222 q 84 496 35 418 q 218 618 134 574 q 399 661 302 661 q 480 654 444 661 q 554 629 517 646 q 609 593 585 615 q 634 559 634 572 q 607 506 634 539 q 546 447 580 473 q 496 421 511 421 q 453 438 479 421 q 412 476 427 456 l 385 605 q 306 538 337 590 q 272 452 283 501 q 261 359 261 404 q 273 261 261 303 q 311 181 285 219 q 369 122 339 141 q 437 103 399 103 q 537 111 473 103 q 626 122 602 118 l 637 102 z "},"d":{"ha":852,"x_min":40,"x_max":850,"o":"m 732 135 q 850 64 755 87 l 840 22 q 754 -2 814 12 q 646 -17 694 -17 q 591 46 618 22 q 528 91 564 71 q 304 -17 429 -17 q 174 16 233 -17 q 77 120 114 49 q 40 299 40 191 q 74 477 40 394 q 173 610 107 559 q 333 661 239 661 q 415 642 376 661 q 498 587 454 623 l 498 862 l 405 926 l 411 958 l 732 998 l 732 135 m 326 152 q 361 117 340 131 q 403 103 382 103 q 455 109 425 103 q 498 121 486 114 l 498 528 q 374 540 446 540 q 324 532 342 540 q 297 501 306 525 q 278 360 278 450 q 288 246 278 296 q 326 152 298 196 z "},"ð":{"ha":802,"x_min":33,"x_max":752,"o":"m 543 884 q 752 361 752 696 q 710 179 752 266 q 588 37 669 92 q 396 -18 507 -18 q 210 19 292 -18 q 80 131 128 56 q 33 317 33 206 q 78 487 33 411 q 198 607 123 564 q 362 650 274 650 q 494 633 448 650 q 373 800 452 727 l 197 693 l 158 804 l 281 871 q 66 972 191 928 l 201 1017 q 307 1001 245 1017 q 428 957 369 985 l 583 1052 l 632 944 l 534 891 q 543 884 538 889 m 492 99 q 514 170 507 115 q 522 269 522 224 q 499 427 522 361 q 437 525 477 492 q 345 558 397 558 q 314 554 327 558 q 294 543 300 550 q 271 478 278 527 q 263 376 263 430 q 281 239 263 306 q 339 129 300 173 q 438 85 379 85 q 472 88 460 85 q 492 99 484 90 z "},"ď":{"ha":1020,"x_min":40,"x_max":1020,"o":"m 732 135 q 850 64 755 87 l 840 22 q 754 -2 814 12 q 646 -17 694 -17 q 591 46 618 22 q 528 91 564 71 q 304 -17 429 -17 q 174 16 233 -17 q 77 120 114 49 q 40 299 40 191 q 74 477 40 394 q 173 610 107 559 q 333 661 239 661 q 415 642 376 661 q 498 587 454 623 l 498 862 l 405 926 l 411 958 l 732 998 l 732 135 m 1000 991 q 1016 951 1011 970 q 1020 911 1020 932 q 996 809 1020 865 q 929 697 971 753 q 838 597 888 642 l 771 616 q 866 837 829 732 l 785 870 l 800 968 q 903 984 855 979 q 1000 991 951 990 m 326 152 q 361 117 340 131 q 403 103 382 103 q 455 109 425 103 q 498 121 486 114 l 498 528 q 374 540 446 540 q 324 532 342 540 q 297 501 306 525 q 278 360 278 450 q 288 246 278 296 q 326 152 298 196 z "},"đ":{"ha":843,"x_min":33,"x_max":854,"o":"m 725 135 q 843 64 748 87 l 833 22 q 748 -2 808 12 q 640 -17 688 -17 q 584 46 611 22 q 522 91 557 71 q 297 -17 422 -17 q 167 16 227 -17 q 70 120 107 49 q 33 299 33 191 q 67 477 33 394 q 166 610 100 559 q 326 661 233 661 q 409 642 370 661 q 492 587 448 623 l 492 722 l 332 720 l 357 827 l 492 824 l 492 862 l 398 926 l 404 958 l 725 998 l 725 823 l 854 827 l 832 720 l 725 722 l 725 135 m 319 152 q 354 117 333 131 q 396 103 376 103 q 449 109 418 103 q 492 121 479 114 l 492 528 q 367 540 439 540 q 317 532 335 540 q 290 501 299 525 q 271 360 271 450 q 281 246 271 296 q 319 152 291 196 z "},"e":{"ha":713,"x_min":35,"x_max":684,"o":"m 402 661 q 551 630 487 661 q 649 544 614 599 q 684 422 684 490 q 665 325 684 363 q 648 307 659 313 q 618 301 637 301 l 267 301 q 301 205 276 250 q 360 132 326 159 q 433 104 395 104 q 539 112 471 104 q 633 124 608 119 l 643 102 q 524 14 598 44 q 365 -17 450 -17 q 205 19 281 -17 q 82 130 130 55 q 35 315 35 204 q 80 485 35 406 q 209 613 125 564 q 402 661 292 661 m 488 395 q 459 486 481 448 q 403 543 436 524 q 330 562 370 562 q 309 560 317 562 q 296 549 300 557 q 262 362 262 498 l 488 395 z "},"é":{"ha":713,"x_min":35,"x_max":684,"o":"m 402 661 q 551 630 487 661 q 649 544 614 599 q 684 422 684 490 q 665 325 684 363 q 648 307 659 313 q 618 301 637 301 l 267 301 q 301 205 276 250 q 360 132 326 159 q 433 104 395 104 q 539 112 471 104 q 633 124 608 119 l 643 102 q 524 14 598 44 q 365 -17 450 -17 q 205 19 281 -17 q 82 130 130 55 q 35 315 35 204 q 80 485 35 406 q 209 613 125 564 q 402 661 292 661 m 488 395 q 459 486 481 448 q 403 543 436 524 q 330 562 370 562 q 309 560 317 562 q 296 549 300 557 q 262 362 262 498 l 488 395 m 431 998 l 542 998 l 568 866 l 261 707 l 241 816 l 431 998 z "},"ě":{"ha":713,"x_min":35,"x_max":684,"o":"m 402 661 q 551 630 487 661 q 649 544 614 599 q 684 422 684 490 q 665 325 684 363 q 648 307 659 313 q 618 301 637 301 l 267 301 q 301 205 276 250 q 360 132 326 159 q 433 104 395 104 q 539 112 471 104 q 633 124 608 119 l 643 102 q 524 14 598 44 q 365 -17 450 -17 q 205 19 281 -17 q 82 130 130 55 q 35 315 35 204 q 80 485 35 406 q 209 613 125 564 q 402 661 292 661 m 488 395 q 459 486 481 448 q 403 543 436 524 q 330 562 370 562 q 309 560 317 562 q 296 549 300 557 q 262 362 262 498 l 488 395 m 535 966 l 631 931 l 441 739 l 298 739 l 109 931 l 204 966 l 370 863 l 535 966 z "},"ê":{"ha":713,"x_min":35,"x_max":684,"o":"m 402 661 q 551 630 487 661 q 649 544 614 599 q 684 422 684 490 q 665 325 684 363 q 648 307 659 313 q 618 301 637 301 l 267 301 q 301 205 276 250 q 360 132 326 159 q 433 104 395 104 q 539 112 471 104 q 633 124 608 119 l 643 102 q 524 14 598 44 q 365 -17 450 -17 q 205 19 281 -17 q 82 130 130 55 q 35 315 35 204 q 80 485 35 406 q 209 613 125 564 q 402 661 292 661 m 488 395 q 459 486 481 448 q 403 543 436 524 q 330 562 370 562 q 309 560 317 562 q 296 549 300 557 q 262 362 262 498 l 488 395 m 208 732 l 110 767 l 304 958 l 436 958 l 631 767 l 533 731 l 370 824 l 208 732 z "},"ë":{"ha":713,"x_min":35,"x_max":684,"o":"m 402 661 q 551 630 487 661 q 649 544 614 599 q 684 422 684 490 q 665 325 684 363 q 648 307 659 313 q 618 301 637 301 l 267 301 q 301 205 276 250 q 360 132 326 159 q 433 104 395 104 q 539 112 471 104 q 633 124 608 119 l 643 102 q 524 14 598 44 q 365 -17 450 -17 q 205 19 281 -17 q 82 130 130 55 q 35 315 35 204 q 80 485 35 406 q 209 613 125 564 q 402 661 292 661 m 488 395 q 459 486 481 448 q 403 543 436 524 q 330 562 370 562 q 309 560 317 562 q 296 549 300 557 q 262 362 262 498 l 488 395 m 65 869 q 91 921 65 888 q 151 980 117 954 q 205 1006 185 1006 q 252 979 222 1006 q 305 919 281 953 q 328 867 328 886 q 305 814 328 848 q 251 755 281 781 q 201 729 221 729 q 151 755 184 729 q 92 815 118 782 q 65 869 65 849 m 411 869 q 434 922 411 888 q 488 980 458 955 q 538 1006 519 1006 q 588 979 555 1006 q 648 920 621 953 q 674 867 674 886 q 648 814 674 848 q 589 755 623 781 q 534 729 555 729 q 486 756 515 729 q 434 817 456 783 q 411 869 411 850 z "},"ė":{"ha":713,"x_min":35,"x_max":684,"o":"m 402 661 q 551 630 487 661 q 649 544 614 599 q 684 422 684 490 q 665 325 684 363 q 648 307 659 313 q 618 301 637 301 l 267 301 q 301 205 276 250 q 360 132 326 159 q 433 104 395 104 q 539 112 471 104 q 633 124 608 119 l 643 102 q 524 14 598 44 q 365 -17 450 -17 q 205 19 281 -17 q 82 130 130 55 q 35 315 35 204 q 80 485 35 406 q 209 613 125 564 q 402 661 292 661 m 488 395 q 459 486 481 448 q 403 543 436 524 q 330 562 370 562 q 309 560 317 562 q 296 549 300 557 q 262 362 262 498 l 488 395 m 368 729 q 317 755 350 729 q 258 815 284 782 q 231 869 231 849 q 257 921 231 888 q 317 980 283 954 q 372 1006 351 1006 q 422 979 389 1006 q 481 920 455 953 q 508 867 508 886 q 482 814 508 848 q 422 755 456 781 q 368 729 389 729 z "},"è":{"ha":713,"x_min":35,"x_max":684,"o":"m 402 661 q 551 630 487 661 q 649 544 614 599 q 684 422 684 490 q 665 325 684 363 q 648 307 659 313 q 618 301 637 301 l 267 301 q 301 205 276 250 q 360 132 326 159 q 433 104 395 104 q 539 112 471 104 q 633 124 608 119 l 643 102 q 524 14 598 44 q 365 -17 450 -17 q 205 19 281 -17 q 82 130 130 55 q 35 315 35 204 q 80 485 35 406 q 209 613 125 564 q 402 661 292 661 m 488 395 q 459 486 481 448 q 403 543 436 524 q 330 562 370 562 q 309 560 317 562 q 296 549 300 557 q 262 362 262 498 l 488 395 m 193 867 l 218 998 l 330 998 l 521 815 l 503 707 l 193 867 z "},"ē":{"ha":713,"x_min":35,"x_max":684,"o":"m 402 661 q 551 630 487 661 q 649 544 614 599 q 684 422 684 490 q 665 325 684 363 q 648 307 659 313 q 618 301 637 301 l 267 301 q 301 205 276 250 q 360 132 326 159 q 433 104 395 104 q 539 112 471 104 q 633 124 608 119 l 643 102 q 524 14 598 44 q 365 -17 450 -17 q 205 19 281 -17 q 82 130 130 55 q 35 315 35 204 q 80 485 35 406 q 209 613 125 564 q 402 661 292 661 m 488 395 q 459 486 481 448 q 403 543 436 524 q 330 562 370 562 q 309 560 317 562 q 296 549 300 557 q 262 362 262 498 l 488 395 m 169 905 l 599 905 l 574 775 q 183 767 395 767 l 142 767 l 169 905 z "},"ę":{"ha":713,"x_min":35,"x_max":684,"o":"m 265 301 q 298 205 273 251 q 358 132 323 160 q 433 104 394 104 q 543 112 473 104 q 633 124 613 120 l 644 103 q 583 46 614 66 q 510 7 552 26 q 496 1 504 4 q 481 -6 489 -2 q 397 -71 430 -33 q 365 -153 365 -109 q 377 -202 365 -178 q 409 -235 389 -226 q 432 -241 420 -241 q 486 -232 452 -241 q 551 -208 519 -222 l 572 -238 q 475 -315 530 -288 q 361 -342 421 -342 q 273 -326 314 -342 q 208 -275 233 -309 q 182 -188 182 -240 q 222 -92 182 -138 q 314 -13 256 -48 q 264 -3 278 -7 q 148 56 199 16 q 65 161 96 97 q 35 311 35 226 q 80 483 35 403 q 209 612 125 564 q 402 661 292 661 q 551 630 487 661 q 649 544 614 599 q 684 422 684 490 q 665 325 684 363 q 648 307 659 313 q 618 301 637 301 l 265 301 m 488 395 q 459 486 481 448 q 403 543 436 524 q 330 562 370 562 q 309 560 317 562 q 296 549 300 557 q 262 361 264 498 l 488 395 z "},"f":{"ha":580,"x_min":33,"x_max":726,"o":"m 136 102 l 136 530 l 33 585 l 46 644 l 136 644 q 218 913 136 827 q 474 998 301 998 q 576 990 536 998 q 654 964 616 983 q 704 929 682 950 q 726 895 726 909 q 700 844 726 877 q 640 784 673 810 q 589 758 606 758 q 546 776 571 758 q 504 813 520 794 l 477 942 q 392 845 415 918 q 369 644 369 772 l 583 644 l 574 592 l 369 532 l 369 95 l 551 44 l 541 0 l 37 0 l 47 50 l 136 102 z "},"g":{"ha":793,"x_min":-1,"x_max":802,"o":"m 574 98 q 694 79 652 98 q 750 30 736 60 q 764 -45 764 -1 q 717 -195 764 -129 q 573 -300 670 -261 q 333 -339 477 -339 q 56 -287 139 -339 q -1 -192 -1 -251 q 37 -103 -1 -138 q 134 -47 75 -67 q 67 -5 92 -33 q 43 70 43 23 q 92 158 43 124 q 206 205 141 191 q 100 279 136 231 q 63 395 63 327 q 100 530 63 469 q 212 626 136 590 q 401 661 288 661 q 494 651 448 661 q 579 620 541 641 q 789 669 675 669 l 802 643 l 682 513 q 694 441 694 479 q 651 301 694 359 q 534 212 607 242 q 373 181 460 181 q 267 190 313 181 q 256 154 260 167 q 252 129 252 140 q 258 116 252 121 q 271 107 263 110 q 341 99 288 101 q 574 98 395 98 m 304 566 q 289 528 294 554 q 283 475 283 501 q 299 369 283 417 q 345 293 314 321 q 419 264 375 264 q 463 276 450 264 q 477 318 471 285 q 482 411 482 351 q 468 492 482 453 q 423 555 453 530 q 349 579 393 579 q 304 566 314 579 m 530 -229 q 543 -208 534 -224 q 557 -167 551 -191 q 564 -118 564 -143 q 561 -95 564 -103 q 547 -82 557 -87 q 513 -77 536 -77 q 336 -75 412 -77 q 202 -64 260 -73 q 185 -117 192 -88 q 178 -166 178 -146 q 183 -191 178 -184 q 233 -221 195 -208 q 319 -243 270 -235 q 416 -251 369 -251 q 482 -246 450 -251 q 530 -229 513 -241 z "},"ğ":{"ha":793,"x_min":-1,"x_max":802,"o":"m 574 98 q 694 79 652 98 q 750 30 736 60 q 764 -45 764 -1 q 717 -195 764 -129 q 573 -300 670 -261 q 333 -339 477 -339 q 56 -287 139 -339 q -1 -192 -1 -251 q 37 -103 -1 -138 q 134 -47 75 -67 q 67 -5 92 -33 q 43 70 43 23 q 92 158 43 124 q 206 205 141 191 q 100 279 136 231 q 63 395 63 327 q 100 530 63 469 q 212 626 136 590 q 401 661 288 661 q 494 651 448 661 q 579 620 541 641 q 789 669 675 669 l 802 643 l 682 513 q 694 441 694 479 q 651 301 694 359 q 534 212 607 242 q 373 181 460 181 q 267 190 313 181 q 256 154 260 167 q 252 129 252 140 q 258 116 252 121 q 271 107 263 110 q 341 99 288 101 q 574 98 395 98 m 304 566 q 289 528 294 554 q 283 475 283 501 q 299 369 283 417 q 345 293 314 321 q 419 264 375 264 q 463 276 450 264 q 477 318 471 285 q 482 411 482 351 q 468 492 482 453 q 423 555 453 530 q 349 579 393 579 q 304 566 314 579 m 530 -229 q 543 -208 534 -224 q 557 -167 551 -191 q 564 -118 564 -143 q 561 -95 564 -103 q 547 -82 557 -87 q 513 -77 536 -77 q 336 -75 412 -77 q 202 -64 260 -73 q 185 -117 192 -88 q 178 -166 178 -146 q 183 -191 178 -184 q 233 -221 195 -208 q 319 -243 270 -235 q 416 -251 369 -251 q 482 -246 450 -251 q 530 -229 513 -241 m 385 713 q 268 737 320 713 q 185 801 215 761 q 156 886 156 841 q 164 937 156 911 l 275 936 q 316 852 288 878 q 386 827 344 827 q 453 852 427 827 q 492 937 479 878 l 602 937 q 610 887 610 909 q 581 802 610 842 q 500 737 552 762 q 385 713 449 713 z "},"ģ":{"ha":793,"x_min":-1,"x_max":802,"o":"m 294 764 q 259 807 271 783 q 248 861 248 830 q 283 949 248 911 q 368 1005 319 986 q 456 1025 417 1025 l 476 969 q 412 925 432 941 q 385 900 391 909 q 379 880 378 890 q 404 855 380 867 q 470 836 428 844 l 443 716 q 362 728 401 716 q 294 764 323 739 m 574 98 q 694 79 652 98 q 750 30 736 60 q 764 -45 764 -1 q 717 -195 764 -129 q 573 -300 670 -261 q 333 -339 477 -339 q 56 -287 139 -339 q -1 -192 -1 -251 q 37 -103 -1 -138 q 134 -47 75 -67 q 67 -5 92 -33 q 43 70 43 23 q 92 158 43 124 q 206 205 141 191 q 100 279 136 231 q 63 395 63 327 q 100 530 63 469 q 212 626 136 590 q 401 661 288 661 q 494 651 448 661 q 579 620 541 641 q 789 669 675 669 l 802 643 l 682 513 q 694 441 694 479 q 651 301 694 359 q 534 212 607 242 q 373 181 460 181 q 267 190 313 181 q 256 154 260 167 q 252 129 252 140 q 258 116 252 121 q 271 107 263 110 q 341 99 288 101 q 574 98 395 98 m 304 566 q 289 528 294 554 q 283 475 283 501 q 299 369 283 417 q 345 293 314 321 q 419 264 375 264 q 463 276 450 264 q 477 318 471 285 q 482 411 482 351 q 468 492 482 453 q 423 555 453 530 q 349 579 393 579 q 304 566 314 579 m 530 -229 q 543 -208 534 -224 q 557 -167 551 -191 q 564 -118 564 -143 q 561 -95 564 -103 q 547 -82 557 -87 q 513 -77 536 -77 q 336 -75 412 -77 q 202 -64 260 -73 q 185 -117 192 -88 q 178 -166 178 -146 q 183 -191 178 -184 q 233 -221 195 -208 q 319 -243 270 -235 q 416 -251 369 -251 q 482 -246 450 -251 q 530 -229 513 -241 z "},"h":{"ha":909,"x_min":18,"x_max":900,"o":"m 900 42 l 889 0 l 502 0 l 511 45 l 564 102 l 564 375 q 556 469 564 432 q 538 518 549 507 q 529 525 534 523 q 514 527 524 527 q 425 522 475 527 q 349 508 374 516 l 349 95 l 433 40 l 424 0 l 18 0 l 26 49 l 116 102 l 116 862 l 22 926 l 28 958 l 349 998 l 349 561 q 474 637 418 614 q 588 661 530 661 q 738 608 678 661 q 797 421 797 555 l 797 95 l 900 42 z "},"i":{"ha":473,"x_min":28,"x_max":451,"o":"m 236 729 q 184 756 216 729 q 125 817 151 783 q 100 869 100 850 q 126 920 100 887 q 187 980 153 954 q 241 1006 221 1006 q 294 979 261 1006 q 351 918 326 952 q 376 867 376 884 q 350 814 376 847 q 289 755 323 781 q 236 729 255 729 m 127 102 l 127 520 l 35 583 l 40 616 l 361 654 l 361 95 l 451 40 l 441 0 l 28 0 l 39 50 l 127 102 z "},"ı":{"ha":473,"x_min":28,"x_max":451,"o":"m 127 102 l 127 520 l 35 583 l 40 616 l 361 651 l 361 95 l 451 40 l 441 0 l 28 0 l 39 50 l 127 102 z "},"í":{"ha":473,"x_min":28,"x_max":451,"o":"m 127 102 l 127 520 l 35 583 l 40 616 l 361 651 l 361 95 l 451 40 l 441 0 l 28 0 l 39 50 l 127 102 m 292 998 l 402 998 l 429 866 l 121 707 l 102 816 l 292 998 z "},"î":{"ha":473,"x_min":-30,"x_max":492,"o":"m 127 102 l 127 520 l 35 583 l 40 616 l 361 651 l 361 95 l 451 40 l 441 0 l 28 0 l 39 50 l 127 102 m 68 732 l -30 767 l 165 958 l 296 958 l 492 767 l 393 731 l 231 824 l 68 732 z "},"ï":{"ha":473,"x_min":-74,"x_max":535,"o":"m 127 102 l 127 520 l 35 583 l 40 616 l 361 651 l 361 95 l 451 40 l 441 0 l 28 0 l 39 50 l 127 102 m -74 869 q -48 921 -74 888 q 12 980 -22 954 q 66 1006 46 1006 q 113 979 83 1006 q 166 919 142 953 q 189 867 189 886 q 166 814 189 848 q 112 755 142 781 q 62 729 82 729 q 12 755 45 729 q -47 815 -21 782 q -74 869 -74 849 m 272 869 q 295 922 272 888 q 349 980 319 955 q 399 1006 380 1006 q 449 979 416 1006 q 509 920 482 953 q 535 867 535 886 q 509 814 535 848 q 450 755 484 781 q 395 729 416 729 q 347 756 376 729 q 295 817 317 783 q 272 869 272 850 z "},"ì":{"ha":473,"x_min":28,"x_max":451,"o":"m 127 102 l 127 520 l 35 583 l 40 616 l 361 651 l 361 95 l 451 40 l 441 0 l 28 0 l 39 50 l 127 102 m 54 867 l 79 998 l 191 998 l 382 815 l 363 707 l 54 867 z "},"ī":{"ha":473,"x_min":3,"x_max":460,"o":"m 127 102 l 127 520 l 35 583 l 40 616 l 361 651 l 361 95 l 451 40 l 441 0 l 28 0 l 39 50 l 127 102 m 30 905 l 460 905 l 435 775 q 44 767 256 767 l 3 767 l 30 905 z "},"į":{"ha":477,"x_min":28,"x_max":454,"o":"m 233 729 q 181 756 214 729 q 123 817 149 783 q 97 869 97 850 q 124 920 97 887 q 184 980 151 954 q 238 1006 218 1006 q 291 979 258 1006 q 349 918 323 952 q 374 867 374 884 q 347 814 374 847 q 286 755 320 781 q 233 729 252 729 m 65 -189 q 131 -76 65 -125 q 286 0 197 -27 l 28 0 l 39 49 l 127 102 l 127 522 l 35 583 l 40 616 l 361 654 l 361 95 l 451 41 l 442 1 l 405 -20 q 311 -78 340 -58 q 264 -115 281 -97 q 248 -153 248 -134 q 259 -202 248 -178 q 292 -235 271 -226 q 315 -241 302 -241 q 371 -231 336 -241 q 434 -208 406 -222 l 454 -239 q 357 -315 412 -289 q 243 -342 303 -342 q 159 -327 200 -342 q 92 -277 119 -311 q 65 -189 65 -243 z "},"j":{"ha":434,"x_min":-210,"x_max":356,"o":"m 216 729 q 163 756 196 729 q 105 817 130 783 q 79 869 79 850 q 105 921 79 888 q 165 980 132 954 q 220 1006 199 1006 q 273 979 240 1006 q 331 918 305 952 q 356 867 356 884 q 329 812 356 845 q 268 754 302 779 q 216 729 233 729 m 17 583 l 22 617 l 343 654 l 343 19 q 270 -240 343 -140 q 3 -339 197 -339 q -92 -322 -41 -339 q -176 -281 -142 -306 q -210 -235 -210 -257 q -183 -185 -210 -218 q -122 -125 -156 -152 q -71 -99 -88 -99 q -29 -117 -53 -99 q 12 -154 -5 -135 l 41 -298 q 86 -225 72 -262 q 105 -139 101 -188 q 110 0 110 -90 l 110 519 l 17 583 z "},"k":{"ha":885,"x_min":18,"x_max":891,"o":"m 22 926 l 28 958 l 349 998 l 349 95 l 439 40 l 429 0 l 18 0 l 26 49 l 116 102 l 116 862 l 22 926 m 807 85 l 891 41 l 880 0 l 549 0 l 557 44 l 378 373 l 563 559 l 494 603 l 504 644 l 841 644 l 830 593 l 734 555 l 600 424 l 807 85 z "},"ķ":{"ha":885,"x_min":18,"x_max":891,"o":"m 22 926 l 28 958 l 349 998 l 349 95 l 439 40 l 429 0 l 18 0 l 26 49 l 116 102 l 116 862 l 22 926 m 807 85 l 891 41 l 880 0 l 549 0 l 557 44 l 378 373 l 563 559 l 494 603 l 504 644 l 841 644 l 830 593 l 734 555 l 600 424 l 807 85 m 393 -72 q 474 -83 435 -72 q 542 -119 513 -95 q 577 -162 566 -139 q 588 -216 588 -186 q 553 -304 588 -267 q 468 -361 517 -342 q 380 -380 419 -380 l 360 -325 q 425 -280 404 -296 q 451 -255 445 -264 q 457 -236 458 -246 q 432 -211 456 -222 q 366 -191 408 -199 l 393 -72 z "},"l":{"ha":462,"x_min":18,"x_max":439,"o":"m 22 926 l 28 958 l 349 998 l 349 95 l 439 40 l 429 0 l 18 0 l 26 49 l 116 102 l 116 862 l 22 926 z "},"ĺ":{"ha":462,"x_min":18,"x_max":452,"o":"m 22 926 l 28 958 l 349 998 l 349 95 l 439 40 l 429 0 l 18 0 l 26 49 l 116 102 l 116 862 l 22 926 m 81 1096 l 311 1242 l 427 1242 l 452 1124 l 99 1021 l 81 1096 z "},"ľ":{"ha":462,"x_min":18,"x_max":639,"o":"m 22 926 l 28 958 l 349 998 l 349 95 l 439 40 l 429 0 l 18 0 l 26 49 l 116 102 l 116 862 l 22 926 m 390 616 q 485 837 448 732 l 404 870 l 419 968 q 522 984 474 979 q 618 991 570 990 q 634 951 630 970 q 639 911 639 932 q 614 809 639 865 q 548 697 590 753 q 456 597 507 642 l 390 616 z "},"ļ":{"ha":462,"x_min":18,"x_max":439,"o":"m 22 926 l 28 958 l 349 998 l 349 95 l 439 40 l 429 0 l 18 0 l 26 49 l 116 102 l 116 862 l 22 926 m 149 -72 q 229 -83 190 -72 q 297 -119 268 -95 q 332 -162 321 -139 q 343 -216 343 -186 q 308 -304 343 -267 q 223 -361 273 -342 q 136 -380 174 -380 l 115 -325 q 180 -280 159 -296 q 207 -255 200 -264 q 212 -236 213 -246 q 188 -211 212 -222 q 121 -191 163 -199 l 149 -72 z "},"ł":{"ha":456,"x_min":-37,"x_max":524,"o":"m 349 95 l 439 40 l 429 0 l 18 0 l 26 49 l 116 102 l 116 413 l -7 352 l -37 464 l 116 541 l 116 862 l 22 926 l 28 958 l 349 998 l 349 657 l 490 727 l 524 615 l 349 529 l 349 95 z "},"m":{"ha":1341,"x_min":29,"x_max":1333,"o":"m 35 583 l 40 616 l 296 651 l 340 547 q 473 633 410 604 q 600 662 536 662 q 699 636 650 662 q 772 551 747 611 q 901 634 838 606 q 1012 662 964 662 q 1175 604 1119 662 q 1231 413 1231 546 l 1231 95 l 1333 41 l 1323 0 l 936 0 l 945 45 l 998 102 l 998 344 q 978 509 998 468 q 966 524 972 520 q 946 527 960 527 q 866 522 916 527 q 787 505 816 517 q 795 441 793 479 q 798 323 798 404 l 798 95 l 879 41 l 869 0 l 503 0 l 510 44 l 564 102 l 564 338 q 557 454 564 415 q 538 519 549 494 q 523 527 535 527 q 438 523 487 527 q 355 508 389 519 q 361 466 361 492 l 361 95 l 446 40 l 437 0 l 29 0 l 39 48 l 127 102 l 127 520 l 35 583 z "},"n":{"ha":916,"x_min":29,"x_max":908,"o":"m 35 583 l 40 616 l 296 654 l 340 547 q 475 634 416 608 q 596 661 535 661 q 746 608 686 661 q 805 421 805 555 l 805 95 l 908 42 l 897 0 l 510 0 l 519 45 l 572 102 l 572 375 q 565 469 572 432 q 547 518 557 507 q 537 525 542 523 q 522 527 532 527 q 430 522 481 527 q 355 507 379 516 q 358 495 356 505 q 361 473 361 486 l 361 95 l 446 40 l 437 0 l 29 0 l 39 49 l 127 102 l 127 520 l 35 583 z "},"ń":{"ha":916,"x_min":29,"x_max":908,"o":"m 35 583 l 40 616 l 296 654 l 340 547 q 475 634 416 608 q 596 661 535 661 q 746 608 686 661 q 805 421 805 555 l 805 95 l 908 42 l 897 0 l 510 0 l 519 45 l 572 102 l 572 375 q 565 469 572 432 q 547 518 557 507 q 537 525 542 523 q 522 527 532 527 q 430 522 481 527 q 355 507 379 516 q 358 495 356 505 q 361 473 361 486 l 361 95 l 446 40 l 437 0 l 29 0 l 39 49 l 127 102 l 127 520 l 35 583 m 550 998 l 661 998 l 687 866 l 380 707 l 360 816 l 550 998 z "},"ň":{"ha":916,"x_min":29,"x_max":908,"o":"m 35 583 l 40 616 l 296 654 l 340 547 q 475 634 416 608 q 596 661 535 661 q 746 608 686 661 q 805 421 805 555 l 805 95 l 908 42 l 897 0 l 510 0 l 519 45 l 572 102 l 572 375 q 565 469 572 432 q 547 518 557 507 q 537 525 542 523 q 522 527 532 527 q 430 522 481 527 q 355 507 379 516 q 358 495 356 505 q 361 473 361 486 l 361 95 l 446 40 l 437 0 l 29 0 l 39 49 l 127 102 l 127 520 l 35 583 m 654 966 l 749 931 l 559 739 l 417 739 l 227 931 l 323 966 l 488 863 l 654 966 z "},"ņ":{"ha":916,"x_min":29,"x_max":908,"o":"m 35 583 l 40 616 l 296 654 l 340 547 q 475 634 416 608 q 596 661 535 661 q 746 608 686 661 q 805 421 805 555 l 805 95 l 908 42 l 897 0 l 510 0 l 519 45 l 572 102 l 572 375 q 565 469 572 432 q 547 518 557 507 q 537 525 542 523 q 522 527 532 527 q 430 522 481 527 q 355 507 379 516 q 358 495 356 505 q 361 473 361 486 l 361 95 l 446 40 l 437 0 l 29 0 l 39 49 l 127 102 l 127 520 l 35 583 m 397 -72 q 478 -83 439 -72 q 546 -119 517 -95 q 581 -162 570 -139 q 592 -216 592 -186 q 557 -304 592 -267 q 472 -361 522 -342 q 385 -380 423 -380 l 364 -325 q 429 -280 408 -296 q 455 -255 449 -264 q 461 -236 462 -246 q 436 -211 460 -222 q 370 -191 412 -199 l 397 -72 z "},"ñ":{"ha":916,"x_min":29,"x_max":908,"o":"m 35 583 l 40 616 l 296 654 l 340 547 q 475 634 416 608 q 596 661 535 661 q 746 608 686 661 q 805 421 805 555 l 805 95 l 908 42 l 897 0 l 510 0 l 519 45 l 572 102 l 572 375 q 565 469 572 432 q 547 518 557 507 q 537 525 542 523 q 522 527 532 527 q 430 522 481 527 q 355 507 379 516 q 358 495 356 505 q 361 473 361 486 l 361 95 l 446 40 l 437 0 l 29 0 l 39 49 l 127 102 l 127 520 l 35 583 m 227 871 q 285 928 260 906 q 339 966 310 951 q 399 982 368 982 q 461 967 433 982 q 527 924 490 952 q 560 900 547 908 q 584 892 573 892 q 651 912 607 892 q 729 959 696 932 l 749 848 q 690 790 714 811 q 638 753 667 768 q 578 737 609 737 q 515 752 544 737 q 451 795 487 768 q 415 819 428 812 q 393 827 403 827 q 325 807 369 827 q 246 760 281 787 l 227 871 z "},"o":{"ha":774,"x_min":35,"x_max":739,"o":"m 35 313 q 80 484 35 404 q 206 613 125 564 q 390 661 288 661 q 567 626 488 661 q 693 516 646 590 q 739 330 739 441 q 694 159 739 239 q 568 31 649 79 q 384 -17 486 -17 q 207 19 286 -17 q 81 128 127 54 q 35 313 35 202 m 436 83 q 469 87 456 83 q 487 99 483 92 q 503 162 497 117 q 509 258 509 208 q 488 418 509 350 q 428 524 467 487 q 337 562 389 562 q 304 557 318 562 q 287 545 291 553 q 271 483 277 528 q 264 387 264 437 q 286 226 264 294 q 346 120 307 157 q 436 83 385 83 z "},"ó":{"ha":774,"x_min":35,"x_max":739,"o":"m 35 313 q 80 484 35 404 q 206 613 125 564 q 390 661 288 661 q 567 626 488 661 q 693 516 646 590 q 739 330 739 441 q 694 159 739 239 q 568 31 649 79 q 384 -17 486 -17 q 207 19 286 -17 q 81 128 127 54 q 35 313 35 202 m 436 83 q 469 87 456 83 q 487 99 483 92 q 503 162 497 117 q 509 258 509 208 q 488 418 509 350 q 428 524 467 487 q 337 562 389 562 q 304 557 318 562 q 287 545 291 553 q 271 483 277 528 q 264 387 264 437 q 286 226 264 294 q 346 120 307 157 q 436 83 385 83 m 449 998 l 559 998 l 586 866 l 279 707 l 259 816 l 449 998 z "},"ô":{"ha":774,"x_min":35,"x_max":739,"o":"m 35 313 q 80 484 35 404 q 206 613 125 564 q 390 661 288 661 q 567 626 488 661 q 693 516 646 590 q 739 330 739 441 q 694 159 739 239 q 568 31 649 79 q 384 -17 486 -17 q 207 19 286 -17 q 81 128 127 54 q 35 313 35 202 m 436 83 q 469 87 456 83 q 487 99 483 92 q 503 162 497 117 q 509 258 509 208 q 488 418 509 350 q 428 524 467 487 q 337 562 389 562 q 304 557 318 562 q 287 545 291 553 q 271 483 277 528 q 264 387 264 437 q 286 226 264 294 q 346 120 307 157 q 436 83 385 83 m 226 732 l 127 767 l 322 958 l 454 958 l 649 767 l 551 731 l 388 824 l 226 732 z "},"ö":{"ha":774,"x_min":35,"x_max":739,"o":"m 35 313 q 80 484 35 404 q 206 613 125 564 q 390 661 288 661 q 567 626 488 661 q 693 516 646 590 q 739 330 739 441 q 694 159 739 239 q 568 31 649 79 q 384 -17 486 -17 q 207 19 286 -17 q 81 128 127 54 q 35 313 35 202 m 436 83 q 469 87 456 83 q 487 99 483 92 q 503 162 497 117 q 509 258 509 208 q 488 418 509 350 q 428 524 467 487 q 337 562 389 562 q 304 557 318 562 q 287 545 291 553 q 271 483 277 528 q 264 387 264 437 q 286 226 264 294 q 346 120 307 157 q 436 83 385 83 m 83 869 q 109 921 83 888 q 169 980 135 954 q 223 1006 203 1006 q 270 979 240 1006 q 322 919 299 953 q 346 867 346 886 q 322 814 346 848 q 269 755 299 781 q 219 729 239 729 q 169 755 201 729 q 109 815 136 782 q 83 869 83 849 m 429 869 q 452 922 429 888 q 506 980 475 955 q 555 1006 536 1006 q 606 979 573 1006 q 665 920 639 953 q 692 867 692 886 q 666 814 692 848 q 606 755 640 781 q 551 729 572 729 q 504 756 533 729 q 451 817 474 783 q 429 869 429 850 z "},"ò":{"ha":774,"x_min":35,"x_max":739,"o":"m 35 313 q 80 484 35 404 q 206 613 125 564 q 390 661 288 661 q 567 626 488 661 q 693 516 646 590 q 739 330 739 441 q 694 159 739 239 q 568 31 649 79 q 384 -17 486 -17 q 207 19 286 -17 q 81 128 127 54 q 35 313 35 202 m 436 83 q 469 87 456 83 q 487 99 483 92 q 503 162 497 117 q 509 258 509 208 q 488 418 509 350 q 428 524 467 487 q 337 562 389 562 q 304 557 318 562 q 287 545 291 553 q 271 483 277 528 q 264 387 264 437 q 286 226 264 294 q 346 120 307 157 q 436 83 385 83 m 211 867 l 236 998 l 348 998 l 538 815 l 520 707 l 211 867 z "},"ő":{"ha":774,"x_min":35,"x_max":739,"o":"m 35 313 q 80 484 35 404 q 206 613 125 564 q 390 661 288 661 q 567 626 488 661 q 693 516 646 590 q 739 330 739 441 q 694 159 739 239 q 568 31 649 79 q 384 -17 486 -17 q 207 19 286 -17 q 81 128 127 54 q 35 313 35 202 m 436 83 q 469 87 456 83 q 487 99 483 92 q 503 162 497 117 q 509 258 509 208 q 488 418 509 350 q 428 524 467 487 q 337 562 389 562 q 304 557 318 562 q 287 545 291 553 q 271 483 277 528 q 264 387 264 437 q 286 226 264 294 q 346 120 307 157 q 436 83 385 83 m 293 1011 l 416 1011 l 423 931 l 224 711 l 199 844 l 293 1011 m 524 1011 l 647 1011 l 654 931 l 455 711 l 430 844 l 524 1011 z "},"ō":{"ha":774,"x_min":35,"x_max":739,"o":"m 35 313 q 80 484 35 404 q 206 613 125 564 q 390 661 288 661 q 567 626 488 661 q 693 516 646 590 q 739 330 739 441 q 694 159 739 239 q 568 31 649 79 q 384 -17 486 -17 q 207 19 286 -17 q 81 128 127 54 q 35 313 35 202 m 436 83 q 469 87 456 83 q 487 99 483 92 q 503 162 497 117 q 509 258 509 208 q 488 418 509 350 q 428 524 467 487 q 337 562 389 562 q 304 557 318 562 q 287 545 291 553 q 271 483 277 528 q 264 387 264 437 q 286 226 264 294 q 346 120 307 157 q 436 83 385 83 m 186 905 l 616 905 l 591 775 q 201 767 412 767 l 160 767 l 186 905 z "},"ø":{"ha":787,"x_min":35,"x_max":753,"o":"m 587 621 q 709 510 665 583 q 753 335 753 438 q 706 161 753 242 q 578 32 659 81 q 401 -16 497 -16 q 332 -12 366 -16 l 296 -109 l 156 -77 l 199 26 q 78 138 121 65 q 35 316 35 211 q 81 486 35 406 q 210 613 127 565 q 397 661 292 661 q 455 658 423 661 l 487 742 l 622 704 l 587 621 m 262 386 q 276 208 262 273 l 347 378 l 417 559 q 345 568 387 568 q 311 563 325 568 q 291 551 297 558 q 270 485 277 532 q 262 386 262 437 m 502 102 q 521 171 515 120 q 527 267 527 221 q 512 441 527 378 l 435 257 l 370 88 q 443 80 398 80 q 479 84 465 80 q 502 102 492 89 z "},"õ":{"ha":774,"x_min":35,"x_max":739,"o":"m 35 313 q 80 484 35 404 q 206 613 125 564 q 390 661 288 661 q 567 626 488 661 q 693 516 646 590 q 739 330 739 441 q 694 159 739 239 q 568 31 649 79 q 384 -17 486 -17 q 207 19 286 -17 q 81 128 127 54 q 35 313 35 202 m 436 83 q 469 87 456 83 q 487 99 483 92 q 503 162 497 117 q 509 258 509 208 q 488 418 509 350 q 428 524 467 487 q 337 562 389 562 q 304 557 318 562 q 287 545 291 553 q 271 483 277 528 q 264 387 264 437 q 286 226 264 294 q 346 120 307 157 q 436 83 385 83 m 126 871 q 184 928 159 906 q 238 966 209 951 q 298 982 267 982 q 360 967 332 982 q 426 924 389 952 q 459 900 446 908 q 483 892 472 892 q 550 912 506 892 q 628 959 595 932 l 648 848 q 589 790 613 811 q 537 753 566 768 q 477 737 508 737 q 414 752 443 737 q 350 795 386 768 q 314 819 327 812 q 292 827 302 827 q 224 807 268 827 q 145 760 180 787 l 126 871 z "},"œ":{"ha":1127,"x_min":35,"x_max":1098,"o":"m 874 94 q 980 105 918 94 q 1059 121 1043 116 l 1072 101 q 1016 44 1050 71 q 938 -1 982 16 q 848 -19 895 -19 q 708 1 774 -18 q 592 58 642 20 q 494 2 547 22 q 382 -18 440 -18 q 204 15 283 -18 q 80 119 125 49 q 35 294 35 189 q 80 473 35 389 q 206 609 125 557 q 389 660 287 660 q 514 643 456 660 q 617 591 572 625 q 852 659 715 659 q 984 629 928 659 q 1069 550 1040 600 q 1098 444 1098 501 q 1069 354 1098 400 q 1049 336 1061 342 q 1015 330 1038 330 l 701 330 q 732 220 705 275 q 797 130 758 165 q 874 94 836 94 m 731 566 q 712 496 721 545 q 701 381 703 447 l 872 413 q 858 504 872 467 q 820 561 844 542 q 766 581 795 581 q 731 566 740 581 m 463 86 q 488 164 479 107 q 498 264 498 221 q 479 428 498 357 q 426 537 460 498 q 349 575 393 575 q 301 562 312 575 q 274 485 285 540 q 263 378 263 431 q 279 232 263 302 q 327 115 294 161 q 410 69 360 69 q 443 72 431 69 q 463 86 454 75 z "},"p":{"ha":834,"x_min":12,"x_max":791,"o":"m 532 -278 l 523 -322 l 12 -322 l 22 -272 l 111 -220 l 111 520 l 18 583 l 24 616 l 280 651 l 333 562 q 446 634 390 606 q 561 661 502 661 q 684 623 632 661 q 764 511 736 584 q 791 338 791 438 q 756 161 791 243 q 660 31 722 78 q 592 -4 629 8 q 514 -17 555 -17 q 417 0 463 -17 q 345 52 371 18 l 345 -227 l 532 -278 m 344 514 q 345 468 345 499 l 345 106 q 476 98 397 98 q 518 104 503 98 q 541 133 533 111 q 562 274 562 188 q 551 396 562 340 q 512 496 540 452 q 486 524 499 517 q 454 532 473 532 q 396 526 433 532 q 344 514 359 521 z "},"þ":{"ha":811,"x_min":-18,"x_max":768,"o":"m 491 -269 l 481 -322 l -18 -322 l -7 -262 l 91 -231 l 91 861 l -3 926 l 3 958 l 323 998 l 323 562 q 434 635 383 608 q 540 662 486 662 q 662 621 610 662 q 741 505 713 580 q 768 330 768 430 q 734 157 768 236 q 639 31 701 78 q 571 -4 608 8 q 493 -17 534 -17 q 395 1 441 -17 q 323 55 350 19 l 323 -237 l 491 -269 m 323 107 q 396 102 352 104 q 477 100 441 100 q 495 105 487 100 q 508 117 503 110 q 528 181 519 134 q 538 289 538 228 q 523 423 538 360 q 486 510 508 486 q 461 527 475 522 q 433 532 447 532 q 376 527 408 532 q 323 512 345 522 l 323 107 z "},"q":{"ha":831,"x_min":41,"x_max":833,"o":"m 498 66 q 420 10 471 37 q 303 -17 370 -17 q 173 15 232 -17 q 77 120 113 47 q 41 306 41 192 q 71 470 41 392 q 158 597 101 547 q 332 661 233 661 q 434 637 385 661 q 521 572 484 614 l 762 654 l 787 614 l 731 504 l 731 -227 l 833 -281 l 823 -322 l 315 -322 l 328 -271 l 498 -220 l 498 66 m 498 528 q 373 540 446 540 q 323 532 341 540 q 296 501 305 525 q 277 360 277 450 q 287 246 277 296 q 326 152 297 196 q 360 117 339 131 q 402 103 382 103 q 455 109 425 103 q 498 121 486 114 l 498 528 z "},"r":{"ha":663,"x_min":28,"x_max":664,"o":"m 35 583 l 40 616 l 296 651 l 346 542 q 425 633 382 606 q 520 661 467 661 q 604 631 557 661 q 647 593 629 614 q 664 558 664 573 q 637 507 664 540 q 577 448 610 474 q 526 421 543 421 q 487 435 510 421 q 450 464 463 449 l 437 530 q 396 514 420 525 q 361 494 372 503 l 361 95 l 548 44 l 538 0 l 28 0 l 39 50 l 127 102 l 127 520 l 35 583 z "},"ŕ":{"ha":663,"x_min":28,"x_max":664,"o":"m 35 583 l 40 616 l 296 651 l 346 542 q 425 633 382 606 q 520 661 467 661 q 604 631 557 661 q 647 593 629 614 q 664 558 664 573 q 637 507 664 540 q 577 448 610 474 q 526 421 543 421 q 487 435 510 421 q 450 464 463 449 l 437 530 q 396 514 420 525 q 361 494 372 503 l 361 95 l 548 44 l 538 0 l 28 0 l 39 50 l 127 102 l 127 520 l 35 583 m 402 998 l 513 998 l 539 866 l 232 707 l 212 816 l 402 998 z "},"ř":{"ha":663,"x_min":28,"x_max":664,"o":"m 35 583 l 40 616 l 296 651 l 346 542 q 425 633 382 606 q 520 661 467 661 q 604 631 557 661 q 647 593 629 614 q 664 558 664 573 q 637 507 664 540 q 577 448 610 474 q 526 421 543 421 q 487 435 510 421 q 450 464 463 449 l 437 530 q 396 514 420 525 q 361 494 372 503 l 361 95 l 548 44 l 538 0 l 28 0 l 39 50 l 127 102 l 127 520 l 35 583 m 507 966 l 602 931 l 412 739 l 270 739 l 80 931 l 176 966 l 341 863 l 507 966 z "},"ŗ":{"ha":663,"x_min":28,"x_max":664,"o":"m 35 583 l 40 616 l 296 651 l 346 542 q 425 633 382 606 q 520 661 467 661 q 604 631 557 661 q 647 593 629 614 q 664 558 664 573 q 637 507 664 540 q 577 448 610 474 q 526 421 543 421 q 487 435 510 421 q 450 464 463 449 l 437 530 q 396 514 420 525 q 361 494 372 503 l 361 95 l 548 44 l 538 0 l 28 0 l 39 50 l 127 102 l 127 520 l 35 583 m 166 -72 q 247 -83 208 -72 q 315 -119 286 -95 q 350 -162 338 -139 q 361 -216 361 -186 q 326 -304 361 -267 q 241 -361 290 -342 q 153 -380 192 -380 l 133 -325 q 197 -280 177 -296 q 224 -255 218 -264 q 230 -236 231 -246 q 205 -211 229 -222 q 139 -191 181 -199 l 166 -72 z "},"s":{"ha":663,"x_min":35,"x_max":624,"o":"m 396 600 q 323 567 365 591 q 263 517 282 542 q 253 501 256 508 q 250 486 250 494 q 263 463 250 474 q 309 437 277 451 q 389 405 336 425 q 477 369 447 382 q 532 342 508 356 q 598 283 573 318 q 624 201 624 248 q 574 73 624 121 q 449 3 525 24 q 290 -17 374 -17 q 154 -4 216 -17 q 35 38 92 8 l 73 227 l 155 211 l 193 64 q 298 82 237 64 q 389 122 360 100 q 406 146 406 134 q 393 165 406 157 q 350 184 380 174 q 258 222 308 199 q 167 269 208 245 q 83 341 114 300 q 52 450 52 383 q 97 568 52 521 q 211 638 141 616 q 357 661 280 661 q 533 633 470 661 q 589 601 562 621 q 617 564 617 581 q 592 508 617 541 q 537 450 568 475 q 494 424 507 424 q 454 443 478 424 q 418 479 431 461 l 396 600 z "},"ś":{"ha":663,"x_min":35,"x_max":624,"o":"m 396 600 q 323 567 365 591 q 263 517 282 542 q 253 501 256 508 q 250 486 250 494 q 263 463 250 474 q 309 437 277 451 q 389 405 336 425 q 477 369 447 382 q 532 342 508 356 q 598 283 573 318 q 624 201 624 248 q 574 73 624 121 q 449 3 525 24 q 290 -17 374 -17 q 154 -4 216 -17 q 35 38 92 8 l 73 227 l 155 211 l 193 64 q 298 82 237 64 q 389 122 360 100 q 406 146 406 134 q 393 165 406 157 q 350 184 380 174 q 258 222 308 199 q 167 269 208 245 q 83 341 114 300 q 52 450 52 383 q 97 568 52 521 q 211 638 141 616 q 357 661 280 661 q 533 633 470 661 q 589 601 562 621 q 617 564 617 581 q 592 508 617 541 q 537 450 568 475 q 494 424 507 424 q 454 443 478 424 q 418 479 431 461 l 396 600 m 399 998 l 510 998 l 536 866 l 229 707 l 210 816 l 399 998 z "},"š":{"ha":663,"x_min":35,"x_max":624,"o":"m 396 600 q 323 567 365 591 q 263 517 282 542 q 253 501 256 508 q 250 486 250 494 q 263 463 250 474 q 309 437 277 451 q 389 405 336 425 q 477 369 447 382 q 532 342 508 356 q 598 283 573 318 q 624 201 624 248 q 574 73 624 121 q 449 3 525 24 q 290 -17 374 -17 q 154 -4 216 -17 q 35 38 92 8 l 73 227 l 155 211 l 193 64 q 298 82 237 64 q 389 122 360 100 q 406 146 406 134 q 393 165 406 157 q 350 184 380 174 q 258 222 308 199 q 167 269 208 245 q 83 341 114 300 q 52 450 52 383 q 97 568 52 521 q 211 638 141 616 q 357 661 280 661 q 533 633 470 661 q 589 601 562 621 q 617 564 617 581 q 592 508 617 541 q 537 450 568 475 q 494 424 507 424 q 454 443 478 424 q 418 479 431 461 l 396 600 m 504 966 l 600 931 l 410 739 l 267 739 l 77 931 l 173 966 l 338 863 l 504 966 z "},"ş":{"ha":663,"x_min":35,"x_max":624,"o":"m 624 201 q 551 51 624 102 q 367 -13 478 0 l 352 -56 q 461 -97 426 -66 q 496 -184 496 -129 q 452 -274 496 -238 q 344 -328 407 -311 q 227 -346 281 -346 l 205 -286 q 357 -191 357 -237 q 320 -152 357 -167 q 222 -127 284 -137 q 241 -75 224 -107 q 278 -17 258 -43 q 148 -3 208 -16 q 35 38 89 9 l 73 227 l 155 211 l 193 64 q 298 82 237 64 q 389 122 360 100 q 406 146 406 134 q 393 165 406 157 q 350 184 380 174 q 258 222 308 199 q 167 269 208 245 q 83 341 114 300 q 52 450 52 383 q 97 568 52 521 q 211 638 141 616 q 357 661 280 661 q 533 633 470 661 q 589 601 562 621 q 617 564 617 581 q 592 508 617 541 q 537 450 568 475 q 494 424 507 424 q 454 443 478 424 q 418 479 431 461 l 396 600 q 323 567 365 591 q 263 517 282 542 q 253 501 256 508 q 250 486 250 494 q 263 463 250 474 q 309 437 277 451 q 389 405 336 425 q 477 369 447 382 q 532 342 508 356 q 598 283 573 318 q 624 201 624 248 z "},"ș":{"ha":663,"x_min":35,"x_max":624,"o":"m 396 600 q 323 567 365 591 q 263 517 282 542 q 253 501 256 508 q 250 486 250 494 q 263 463 250 474 q 309 437 277 451 q 389 405 336 425 q 477 369 447 382 q 532 342 508 356 q 598 283 573 318 q 624 201 624 248 q 574 73 624 121 q 449 3 525 24 q 290 -17 374 -17 q 154 -4 216 -17 q 35 38 92 8 l 73 227 l 155 211 l 193 64 q 298 82 237 64 q 389 122 360 100 q 406 146 406 134 q 393 165 406 157 q 350 184 380 174 q 258 222 308 199 q 167 269 208 245 q 83 341 114 300 q 52 450 52 383 q 97 568 52 521 q 211 638 141 616 q 357 661 280 661 q 533 633 470 661 q 589 601 562 621 q 617 564 617 581 q 592 508 617 541 q 537 450 568 475 q 494 424 507 424 q 454 443 478 424 q 418 479 431 461 l 396 600 m 238 -72 q 318 -83 279 -72 q 387 -119 357 -95 q 421 -162 410 -139 q 433 -216 433 -186 q 397 -304 433 -267 q 313 -361 362 -342 q 225 -380 264 -380 l 205 -325 q 269 -280 249 -296 q 296 -255 290 -264 q 302 -236 302 -246 q 277 -211 301 -222 q 211 -191 253 -199 l 238 -72 z "},"ß":{"ha":1002,"x_min":31,"x_max":987,"o":"m 133 102 l 133 530 l 31 585 l 43 644 l 133 644 l 133 662 q 151 784 133 724 q 197 882 168 844 q 331 972 245 946 q 541 999 416 999 q 721 975 643 999 q 844 904 800 950 q 888 793 888 857 q 872 729 888 757 q 836 683 857 702 q 779 639 814 664 q 730 603 749 618 q 700 568 712 587 q 688 524 688 548 q 699 487 688 503 q 735 452 710 471 q 808 406 760 434 q 909 339 872 368 q 967 274 946 311 q 987 186 987 237 q 953 73 987 119 q 857 5 918 28 q 718 -18 796 -18 q 577 -5 640 -18 q 458 42 515 8 l 495 230 l 578 218 l 618 66 q 680 75 648 67 q 736 93 711 83 q 769 111 760 103 q 782 127 779 120 q 785 145 785 134 q 773 179 785 163 q 738 212 762 194 q 661 264 713 229 q 632 283 642 277 q 552 343 581 318 q 506 404 524 368 q 488 494 488 441 q 510 582 488 543 q 564 645 533 620 q 638 700 594 671 q 681 731 673 723 q 692 773 692 742 q 665 854 692 821 q 593 904 637 888 q 496 920 549 920 q 435 913 459 920 q 403 898 411 907 q 373 837 380 873 q 366 724 366 800 l 366 85 l 382 0 l 34 0 l 44 50 l 133 102 z "},"t":{"ha":579,"x_min":6,"x_max":588,"o":"m 18 644 l 115 644 l 150 782 l 349 864 l 349 644 l 557 644 l 547 585 l 349 530 l 349 249 q 359 165 349 204 q 386 111 369 126 q 418 100 397 100 q 496 108 438 100 q 579 119 555 115 l 588 96 q 484 16 547 48 q 338 -17 420 -17 q 177 40 238 -17 q 115 214 115 97 l 115 530 l 6 584 l 18 644 z "},"ť":{"ha":567,"x_min":6,"x_max":621,"o":"m 408 748 q 465 916 445 837 l 387 949 l 401 1045 l 596 1074 q 621 989 621 1042 q 586 865 621 935 q 489 726 551 796 l 408 748 m 18 644 l 115 644 l 150 782 l 349 864 l 349 644 l 557 644 l 547 585 l 349 530 l 349 249 q 359 165 349 204 q 386 111 369 126 q 418 100 397 100 q 496 108 438 100 q 579 119 555 115 l 588 96 q 484 16 547 48 q 338 -17 420 -17 q 177 40 238 -17 q 115 214 115 97 l 115 530 l 6 584 l 18 644 z "},"ț":{"ha":579,"x_min":6,"x_max":588,"o":"m 18 644 l 115 644 l 150 782 l 349 864 l 349 644 l 557 644 l 547 585 l 349 530 l 349 249 q 359 165 349 204 q 386 111 369 126 q 418 100 397 100 q 496 108 438 100 q 579 119 555 115 l 588 96 q 484 16 547 48 q 338 -17 420 -17 q 177 40 238 -17 q 115 214 115 97 l 115 530 l 6 584 l 18 644 m 233 -72 q 314 -83 275 -72 q 382 -119 353 -95 q 417 -162 406 -139 q 428 -216 428 -186 q 393 -304 428 -267 q 308 -361 357 -342 q 220 -380 259 -380 l 200 -325 q 264 -280 244 -296 q 291 -255 285 -264 q 297 -236 298 -246 q 272 -211 296 -222 q 206 -191 248 -199 l 233 -72 z "},"u":{"ha":893,"x_min":14,"x_max":884,"o":"m 14 586 l 26 644 l 346 644 l 346 257 q 348 181 346 207 q 354 142 349 155 q 367 118 358 128 q 381 107 374 110 q 399 104 388 104 q 471 107 433 104 q 533 117 509 111 l 533 519 l 451 584 l 461 644 l 766 644 l 766 135 q 884 64 789 87 l 873 22 q 790 -4 840 8 q 680 -17 740 -17 q 655 18 673 -4 q 613 61 637 41 q 564 92 589 82 q 467 13 518 43 q 353 -17 415 -17 q 176 38 239 -17 q 113 225 113 94 l 113 519 l 14 586 z "},"ú":{"ha":893,"x_min":14,"x_max":884,"o":"m 14 586 l 26 644 l 346 644 l 346 257 q 348 181 346 207 q 354 142 349 155 q 367 118 358 128 q 381 107 374 110 q 399 104 388 104 q 471 107 433 104 q 533 117 509 111 l 533 519 l 451 584 l 461 644 l 766 644 l 766 135 q 884 64 789 87 l 873 22 q 790 -4 840 8 q 680 -17 740 -17 q 655 18 673 -4 q 613 61 637 41 q 564 92 589 82 q 467 13 518 43 q 353 -17 415 -17 q 176 38 239 -17 q 113 225 113 94 l 113 519 l 14 586 m 479 998 l 590 998 l 616 866 l 309 707 l 290 816 l 479 998 z "},"û":{"ha":893,"x_min":14,"x_max":884,"o":"m 14 586 l 26 644 l 346 644 l 346 257 q 348 181 346 207 q 354 142 349 155 q 367 118 358 128 q 381 107 374 110 q 399 104 388 104 q 471 107 433 104 q 533 117 509 111 l 533 519 l 451 584 l 461 644 l 766 644 l 766 135 q 884 64 789 87 l 873 22 q 790 -4 840 8 q 680 -17 740 -17 q 655 18 673 -4 q 613 61 637 41 q 564 92 589 82 q 467 13 518 43 q 353 -17 415 -17 q 176 38 239 -17 q 113 225 113 94 l 113 519 l 14 586 m 256 732 l 158 767 l 353 958 l 484 958 l 680 767 l 581 731 l 418 824 l 256 732 z "},"ü":{"ha":893,"x_min":14,"x_max":884,"o":"m 14 586 l 26 644 l 346 644 l 346 257 q 348 181 346 207 q 354 142 349 155 q 367 118 358 128 q 381 107 374 110 q 399 104 388 104 q 471 107 433 104 q 533 117 509 111 l 533 519 l 451 584 l 461 644 l 766 644 l 766 135 q 884 64 789 87 l 873 22 q 790 -4 840 8 q 680 -17 740 -17 q 655 18 673 -4 q 613 61 637 41 q 564 92 589 82 q 467 13 518 43 q 353 -17 415 -17 q 176 38 239 -17 q 113 225 113 94 l 113 519 l 14 586 m 113 869 q 139 921 113 888 q 199 980 165 954 q 254 1006 233 1006 q 300 979 271 1006 q 353 919 330 953 q 376 867 376 886 q 353 814 376 848 q 299 755 330 781 q 250 729 269 729 q 199 755 232 729 q 140 815 166 782 q 113 869 113 849 m 459 869 q 483 922 459 888 q 536 980 506 955 q 586 1006 567 1006 q 636 979 604 1006 q 696 920 669 953 q 722 867 722 886 q 696 814 722 848 q 637 755 671 781 q 582 729 603 729 q 534 756 564 729 q 482 817 505 783 q 459 869 459 850 z "},"ù":{"ha":893,"x_min":14,"x_max":884,"o":"m 14 586 l 26 644 l 346 644 l 346 257 q 348 181 346 207 q 354 142 349 155 q 367 118 358 128 q 381 107 374 110 q 399 104 388 104 q 471 107 433 104 q 533 117 509 111 l 533 519 l 451 584 l 461 644 l 766 644 l 766 135 q 884 64 789 87 l 873 22 q 790 -4 840 8 q 680 -17 740 -17 q 655 18 673 -4 q 613 61 637 41 q 564 92 589 82 q 467 13 518 43 q 353 -17 415 -17 q 176 38 239 -17 q 113 225 113 94 l 113 519 l 14 586 m 241 867 l 267 998 l 378 998 l 569 815 l 551 707 l 241 867 z "},"ű":{"ha":893,"x_min":14,"x_max":884,"o":"m 14 586 l 26 644 l 346 644 l 346 257 q 348 181 346 207 q 354 142 349 155 q 367 118 358 128 q 381 107 374 110 q 399 104 388 104 q 471 107 433 104 q 533 117 509 111 l 533 519 l 451 584 l 461 644 l 766 644 l 766 135 q 884 64 789 87 l 873 22 q 790 -4 840 8 q 680 -17 740 -17 q 655 18 673 -4 q 613 61 637 41 q 564 92 589 82 q 467 13 518 43 q 353 -17 415 -17 q 176 38 239 -17 q 113 225 113 94 l 113 519 l 14 586 m 323 1011 l 446 1011 l 454 931 l 254 711 l 229 844 l 323 1011 m 555 1011 l 677 1011 l 685 931 l 486 711 l 460 844 l 555 1011 z "},"ū":{"ha":893,"x_min":14,"x_max":884,"o":"m 14 586 l 26 644 l 346 644 l 346 257 q 348 181 346 207 q 354 142 349 155 q 367 118 358 128 q 381 107 374 110 q 399 104 388 104 q 471 107 433 104 q 533 117 509 111 l 533 519 l 451 584 l 461 644 l 766 644 l 766 135 q 884 64 789 87 l 873 22 q 790 -4 840 8 q 680 -17 740 -17 q 655 18 673 -4 q 613 61 637 41 q 564 92 589 82 q 467 13 518 43 q 353 -17 415 -17 q 176 38 239 -17 q 113 225 113 94 l 113 519 l 14 586 m 217 905 l 647 905 l 622 775 q 231 767 443 767 l 191 767 l 217 905 z "},"ų":{"ha":893,"x_min":15,"x_max":884,"o":"m 450 582 l 460 644 l 766 644 l 766 135 q 884 64 789 88 l 874 22 q 757 -19 804 0 q 674 -72 710 -38 q 638 -153 638 -105 q 650 -202 638 -178 q 682 -235 662 -226 q 705 -241 693 -241 q 760 -232 726 -241 q 824 -208 793 -222 l 844 -239 q 748 -315 802 -289 q 634 -342 694 -342 q 547 -326 587 -342 q 481 -275 506 -309 q 456 -188 456 -240 q 485 -107 456 -145 q 561 -41 513 -69 q 667 3 609 -13 q 613 61 635 41 q 564 92 592 81 q 467 13 518 43 q 353 -17 415 -17 q 176 38 239 -17 q 113 225 113 94 l 113 519 l 15 585 l 26 644 l 346 644 l 346 257 q 348 181 346 207 q 354 142 349 155 q 367 118 358 128 q 381 107 374 110 q 399 104 388 104 q 471 107 433 104 q 533 117 509 111 l 533 521 l 450 582 z "},"ů":{"ha":893,"x_min":14,"x_max":884,"o":"m 14 586 l 26 644 l 346 644 l 346 257 q 348 181 346 207 q 354 142 349 155 q 367 118 358 128 q 381 107 374 110 q 399 104 388 104 q 471 107 433 104 q 533 117 509 111 l 533 519 l 451 584 l 461 644 l 766 644 l 766 135 q 884 64 789 87 l 873 22 q 790 -4 840 8 q 680 -17 740 -17 q 655 18 673 -4 q 613 61 637 41 q 564 92 589 82 q 467 13 518 43 q 353 -17 415 -17 q 176 38 239 -17 q 113 225 113 94 l 113 519 l 14 586 m 416 703 q 332 722 370 703 q 274 776 295 741 q 252 856 252 810 q 274 939 252 901 q 334 1001 295 978 q 422 1023 372 1023 q 503 1004 466 1023 q 562 950 540 985 q 583 869 583 915 q 562 786 583 824 q 502 726 540 748 q 416 703 463 703 m 422 799 q 462 815 447 799 q 477 857 477 832 q 458 908 477 886 q 410 930 439 930 q 372 912 387 930 q 357 870 357 895 q 375 820 357 842 q 422 799 393 799 z "},"v":{"ha":786,"x_min":-20,"x_max":813,"o":"m 813 644 l 803 593 l 718 555 l 492 0 l 297 -17 l 75 558 l -20 600 l -14 644 l 388 644 l 377 595 l 319 560 l 460 159 l 588 559 l 519 603 l 528 644 l 813 644 z "},"w":{"ha":1135,"x_min":-21,"x_max":1148,"o":"m 1148 644 l 1139 595 l 1053 555 l 892 0 l 677 -17 l 561 306 l 464 0 l 258 -17 l 77 557 l -21 601 l -13 644 l 392 644 l 382 595 l 313 560 l 417 144 l 561 644 l 663 644 l 844 144 l 944 559 l 840 600 l 847 644 l 1148 644 z "},"x":{"ha":859,"x_min":11,"x_max":853,"o":"m 853 43 l 846 0 l 411 0 l 421 50 l 482 85 l 369 229 l 266 84 l 333 41 l 324 0 l 12 0 l 22 52 l 119 91 l 304 311 l 109 558 l 11 600 l 20 644 l 454 644 l 444 593 l 386 562 l 490 416 l 595 559 l 526 603 l 534 644 l 840 644 l 829 593 l 745 555 l 554 328 l 762 84 l 853 43 z "},"y":{"ha":810,"x_min":-18,"x_max":836,"o":"m 836 644 l 826 593 l 741 555 l 564 110 q 467 -120 507 -34 q 386 -259 427 -206 q 301 -328 346 -311 q 227 -339 271 -339 q 126 -322 179 -339 q 39 -280 74 -306 q 5 -227 5 -254 q 31 -178 5 -211 q 91 -118 58 -144 q 142 -91 123 -91 q 186 -109 159 -91 q 227 -146 212 -127 l 256 -279 q 299 -227 270 -273 q 359 -120 328 -182 q 412 -5 391 -58 l 288 -22 l 77 558 l -18 600 l -11 644 l 390 644 l 378 595 l 321 560 l 458 142 l 590 559 l 522 604 l 529 644 l 836 644 z "},"ý":{"ha":810,"x_min":-18,"x_max":836,"o":"m 836 644 l 826 593 l 741 555 l 564 110 q 467 -120 507 -34 q 386 -259 427 -206 q 301 -328 346 -311 q 227 -339 271 -339 q 126 -322 179 -339 q 39 -280 74 -306 q 5 -227 5 -254 q 31 -178 5 -211 q 91 -118 58 -144 q 142 -91 123 -91 q 186 -109 159 -91 q 227 -146 212 -127 l 256 -279 q 299 -227 270 -273 q 359 -120 328 -182 q 412 -5 391 -58 l 288 -22 l 77 558 l -18 600 l -11 644 l 390 644 l 378 595 l 321 560 l 458 142 l 590 559 l 522 604 l 529 644 l 836 644 m 488 998 l 599 998 l 625 866 l 318 707 l 298 816 l 488 998 z "},"ÿ":{"ha":810,"x_min":-18,"x_max":836,"o":"m 836 644 l 826 593 l 741 555 l 564 110 q 467 -120 507 -34 q 386 -259 427 -206 q 301 -328 346 -311 q 227 -339 271 -339 q 126 -322 179 -339 q 39 -280 74 -306 q 5 -227 5 -254 q 31 -178 5 -211 q 91 -118 58 -144 q 142 -91 123 -91 q 186 -109 159 -91 q 227 -146 212 -127 l 256 -279 q 299 -227 270 -273 q 359 -120 328 -182 q 412 -5 391 -58 l 288 -22 l 77 558 l -18 600 l -11 644 l 390 644 l 378 595 l 321 560 l 458 142 l 590 559 l 522 604 l 529 644 l 836 644 m 122 869 q 148 921 122 888 q 208 980 174 954 q 262 1006 242 1006 q 309 979 279 1006 q 362 919 338 953 q 385 867 385 886 q 362 814 385 848 q 308 755 338 781 q 258 729 278 729 q 208 755 241 729 q 149 815 175 782 q 122 869 122 849 m 468 869 q 491 922 468 888 q 545 980 515 955 q 595 1006 576 1006 q 645 979 612 1006 q 705 920 678 953 q 731 867 731 886 q 705 814 731 848 q 646 755 680 781 q 591 729 612 729 q 543 756 572 729 q 491 817 513 783 q 468 869 468 850 z "},"z":{"ha":708,"x_min":27,"x_max":673,"o":"m 571 216 l 648 222 l 650 0 l 70 0 l 27 83 l 425 581 l 210 560 l 144 431 l 65 423 l 65 644 l 639 644 l 673 562 l 290 64 l 511 94 l 571 216 z "},"ź":{"ha":708,"x_min":27,"x_max":673,"o":"m 571 216 l 648 222 l 650 0 l 70 0 l 27 83 l 425 581 l 210 560 l 144 431 l 65 423 l 65 644 l 639 644 l 673 562 l 290 64 l 511 94 l 571 216 m 416 998 l 527 998 l 553 866 l 246 707 l 227 816 l 416 998 z "},"ž":{"ha":708,"x_min":27,"x_max":673,"o":"m 571 216 l 648 222 l 650 0 l 70 0 l 27 83 l 425 581 l 210 560 l 144 431 l 65 423 l 65 644 l 639 644 l 673 562 l 290 64 l 511 94 l 571 216 m 520 966 l 616 931 l 426 739 l 283 739 l 94 931 l 189 966 l 355 863 l 520 966 z "},"ż":{"ha":708,"x_min":27,"x_max":673,"o":"m 571 216 l 648 222 l 650 0 l 70 0 l 27 83 l 425 581 l 210 560 l 144 431 l 65 423 l 65 644 l 639 644 l 673 562 l 290 64 l 511 94 l 571 216 m 353 729 q 302 755 335 729 q 243 815 269 782 q 216 869 216 849 q 242 921 216 888 q 302 980 269 954 q 357 1006 336 1006 q 407 979 374 1006 q 467 920 440 953 q 493 867 493 886 q 467 814 493 848 q 408 755 441 781 q 353 729 374 729 z "},"ﬁ":{"ha":1019,"x_min":31,"x_max":1001,"o":"m 133 102 l 133 530 l 31 585 l 43 644 l 133 644 q 189 848 136 772 q 336 960 241 924 q 597 998 437 998 q 701 987 647 998 q 802 959 755 977 q 880 915 850 940 q 911 868 911 889 q 883 816 911 850 q 820 756 854 783 q 766 729 785 729 q 709 757 742 729 q 658 812 677 785 l 632 918 l 631 918 q 439 840 505 909 q 366 644 374 772 l 911 653 l 911 95 l 1001 41 l 991 0 l 580 0 l 588 50 l 678 102 l 678 509 q 617 563 655 543 l 366 532 l 366 95 l 498 60 l 487 0 l 34 0 l 45 50 l 133 102 z "},"ﬂ":{"ha":1006,"x_min":31,"x_max":984,"o":"m 984 41 l 974 0 l 562 0 l 571 50 l 661 102 l 661 805 l 632 918 l 631 918 q 438 838 505 911 q 366 644 371 765 l 581 644 l 572 592 l 366 532 l 366 95 l 494 43 l 485 0 l 34 0 l 44 50 l 133 102 l 133 530 l 31 585 l 43 644 l 133 644 q 257 920 133 842 q 597 998 382 998 q 654 995 622 998 q 703 987 686 991 l 893 998 l 894 95 l 984 41 z "},"ª":{"ha":776,"x_min":86,"x_max":709,"o":"m 262 407 q 166 431 205 407 q 109 491 127 455 q 91 564 91 527 q 112 656 91 621 q 178 713 134 692 q 263 730 212 726 q 364 735 315 735 q 401 732 378 735 q 431 727 425 730 q 422 834 431 795 q 393 890 414 873 q 336 907 375 907 q 316 904 326 907 l 303 817 q 263 782 286 799 q 228 765 241 765 q 184 789 214 765 q 130 842 154 812 q 106 884 106 871 q 136 913 106 897 q 201 938 167 929 q 304 957 256 952 q 422 962 352 962 q 571 921 525 962 q 617 808 617 880 l 617 530 q 649 499 629 511 q 705 481 669 488 l 694 441 q 617 417 663 427 q 527 406 572 406 q 491 461 509 439 q 453 494 473 483 q 378 434 429 461 q 262 407 328 407 m 309 518 q 323 515 313 515 q 380 519 347 515 q 431 528 413 524 l 431 673 q 334 656 369 666 q 290 637 299 647 q 284 623 286 631 q 282 603 282 615 q 291 553 282 579 q 309 518 299 528 m 108 332 l 709 332 l 687 224 q 378 212 547 216 q 86 208 208 208 l 108 332 z "},"º":{"ha":715,"x_min":86,"x_max":635,"o":"m 87 671 q 122 814 87 747 q 219 922 157 881 q 360 962 281 962 q 496 933 435 962 q 593 845 557 904 q 629 699 629 785 q 594 555 629 622 q 497 447 558 488 q 363 407 435 407 q 222 435 284 407 q 123 523 159 464 q 87 671 87 583 m 399 511 q 442 524 430 511 q 462 574 455 537 q 469 642 469 611 q 450 756 469 707 q 396 833 431 806 q 316 860 361 860 q 276 849 286 860 q 256 800 264 836 q 248 728 248 764 q 263 624 248 673 q 313 543 279 574 q 399 511 347 511 m 108 332 l 635 332 l 612 224 q 86 208 327 208 l 108 332 z "},"π":{"ha":1054,"x_min":47,"x_max":998,"o":"m 791 500 l 791 145 q 804 100 791 115 q 848 80 817 85 q 945 75 880 75 l 939 22 q 798 -11 856 -1 q 686 -21 740 -21 q 585 22 612 -21 q 557 123 557 65 q 565 268 557 141 q 579 500 572 394 l 421 500 l 397 9 l 146 -13 l 206 500 l 47 500 l 85 644 l 998 644 l 962 500 l 791 500 z "},"ऄ":{"ha":1099,"x_min":18,"x_max":1134,"o":"m 1134 677 l 975 677 l 975 -64 l 773 -28 l 773 294 q 740 285 755 288 q 703 283 724 283 q 633 295 673 283 q 668 186 668 246 q 634 73 668 119 q 545 3 600 26 q 424 -20 489 -20 q 193 67 297 -20 q 18 323 90 155 l 96 366 q 225 201 161 254 q 361 148 289 148 q 454 178 418 148 q 490 258 490 209 q 458 353 490 312 q 328 312 406 329 l 237 477 q 373 526 314 497 q 464 588 431 555 q 497 654 496 621 q 492 679 497 673 q 454 687 486 687 q 352 651 410 687 q 244 555 294 614 l 108 694 q 229 787 161 754 q 366 821 297 821 q 485 784 429 821 q 574 692 541 748 q 607 579 607 635 q 523 393 607 460 q 591 379 558 379 q 686 405 637 379 q 773 478 734 431 l 773 677 l 673 677 l 639 805 l 825 805 q 800 838 814 823 q 762 865 785 852 q 712 882 742 876 q 629 895 682 888 q 531 911 568 903 q 466 936 494 920 q 379 1034 407 971 q 351 1159 351 1097 l 432 1195 q 485 1123 463 1145 q 544 1089 508 1101 q 588 1077 564 1082 q 656 1065 612 1072 q 744 1049 709 1057 q 810 1027 780 1041 q 901 942 868 1001 q 937 805 934 884 l 1101 805 l 1134 677 z "},"ॲ":{"ha":1099,"x_min":18,"x_max":1134,"o":"m 1134 677 l 975 677 l 975 -64 l 773 -28 l 773 294 q 740 285 755 288 q 703 283 724 283 q 633 295 673 283 q 668 186 668 246 q 634 73 668 119 q 545 3 600 26 q 424 -20 489 -20 q 193 67 297 -20 q 18 323 90 155 l 96 366 q 225 201 161 254 q 361 148 289 148 q 454 178 418 148 q 490 258 490 209 q 458 353 490 312 q 328 312 406 329 l 237 477 q 373 526 314 497 q 464 588 431 555 q 497 654 496 621 q 492 679 497 673 q 454 687 486 687 q 352 651 410 687 q 244 555 294 614 l 108 694 q 229 787 161 754 q 366 821 297 821 q 485 784 429 821 q 574 692 541 748 q 607 579 607 635 q 523 393 607 460 q 591 379 558 379 q 686 405 637 379 q 773 478 734 431 l 773 677 l 673 677 l 639 805 l 1101 805 l 1134 677 m 495 1119 q 549 1053 524 1076 q 600 1021 574 1029 q 657 1012 625 1012 q 745 1041 703 1012 q 829 1134 787 1071 l 941 1026 q 690 879 850 879 q 548 928 614 879 q 430 1083 481 977 l 495 1119 z "},"अ":{"ha":1099,"x_min":18,"x_max":1134,"o":"m 1134 677 l 975 677 l 975 -64 l 773 -28 l 773 294 q 740 285 755 288 q 703 283 724 283 q 633 295 673 283 q 668 186 668 246 q 634 73 668 119 q 545 3 600 26 q 424 -20 489 -20 q 193 67 297 -20 q 18 323 90 155 l 96 366 q 225 201 161 254 q 361 148 289 148 q 454 178 418 148 q 490 258 490 209 q 458 353 490 312 q 328 312 406 329 l 237 477 q 373 526 314 497 q 464 588 431 555 q 497 654 496 621 q 492 679 497 673 q 454 687 486 687 q 352 651 410 687 q 244 555 294 614 l 108 694 q 229 787 161 754 q 366 821 297 821 q 485 784 429 821 q 574 692 541 748 q 607 579 607 635 q 523 393 607 460 q 591 379 558 379 q 686 405 637 379 q 773 478 734 431 l 773 677 l 673 677 l 639 805 l 1101 805 l 1134 677 z "},"आ":{"ha":1390,"x_min":18,"x_max":1421,"o":"m 1421 677 l 1293 677 l 1293 -62 l 1092 -28 l 1092 677 l 975 677 l 975 -64 l 773 -28 l 773 294 q 740 285 755 288 q 703 283 724 283 q 633 295 673 283 q 668 186 668 246 q 634 73 668 119 q 545 3 600 26 q 424 -20 489 -20 q 193 67 297 -20 q 18 323 90 155 l 96 366 q 225 201 161 254 q 361 148 289 148 q 454 178 418 148 q 490 258 490 209 q 458 353 490 312 q 328 312 406 329 l 237 477 q 373 526 314 497 q 464 588 431 555 q 497 654 496 621 q 492 679 497 673 q 454 687 486 687 q 352 651 410 687 q 244 555 294 614 l 108 694 q 229 787 161 754 q 366 821 297 821 q 485 784 429 821 q 574 692 541 748 q 607 579 607 635 q 523 393 607 460 q 591 379 558 379 q 686 405 637 379 q 773 478 734 431 l 773 677 l 673 677 l 639 805 l 1390 805 l 1421 677 z "},"इ":{"ha":771,"x_min":-35,"x_max":806,"o":"m 564 399 q 640 370 602 399 q 702 297 678 341 q 726 212 726 253 q 625 30 726 83 q 334 -24 524 -22 q 397 -81 363 -64 q 481 -98 431 -98 q 523 -92 504 -98 q 567 -73 542 -86 l 635 -214 q 571 -243 605 -234 q 504 -253 536 -253 q 400 -230 444 -253 q 317 -156 356 -207 q 232 -16 278 -106 q 135 10 178 -7 q 67 48 92 27 q 41 89 42 69 q 61 149 41 114 q 112 210 82 184 q 168 236 142 236 q 260 144 199 236 q 295 136 272 139 q 340 133 318 133 q 438 143 387 133 q 524 174 488 153 q 559 228 559 196 q 558 238 559 233 q 556 244 557 244 q 527 239 547 244 q 503 233 507 233 q 439 217 467 222 q 386 212 412 212 q 227 255 296 212 q 120 358 157 299 q 83 457 83 417 q 134 564 83 535 q 256 593 185 593 l 434 593 q 439 637 439 612 q 435 677 439 654 l -2 677 l -35 805 l 775 805 l 806 677 l 625 677 q 638 526 637 601 q 637 471 638 498 l 369 471 q 315 463 333 471 q 292 443 297 454 q 286 414 286 431 q 294 372 286 392 q 304 364 298 366 q 323 363 310 363 q 363 367 341 363 q 429 379 386 370 q 505 394 473 389 q 564 399 536 399 z "},"ई":{"ha":771,"x_min":-35,"x_max":806,"o":"m 564 399 q 640 370 602 399 q 702 297 678 341 q 726 212 726 253 q 625 30 726 83 q 334 -24 524 -22 q 397 -81 363 -64 q 481 -98 431 -98 q 523 -92 504 -98 q 567 -73 542 -86 l 635 -214 q 571 -243 605 -234 q 504 -253 536 -253 q 400 -230 444 -253 q 317 -156 356 -207 q 232 -16 278 -106 q 135 10 178 -7 q 67 48 92 27 q 41 89 42 69 q 61 149 41 114 q 112 210 82 184 q 168 236 142 236 q 260 144 199 236 q 295 136 272 139 q 340 133 318 133 q 438 143 387 133 q 524 174 488 153 q 559 228 559 196 q 558 238 559 233 q 556 244 557 244 q 527 239 547 244 q 503 233 507 233 q 439 217 467 222 q 386 212 412 212 q 227 255 296 212 q 120 358 157 299 q 83 457 83 417 q 134 564 83 535 q 256 593 185 593 l 434 593 q 439 637 439 612 q 435 677 439 654 l -2 677 l -35 805 l 775 805 l 806 677 l 625 677 q 638 526 637 601 q 637 471 638 498 l 369 471 q 315 463 333 471 q 292 443 297 454 q 286 414 286 431 q 294 372 286 392 q 304 364 298 366 q 323 363 310 363 q 363 367 341 363 q 429 379 386 370 q 505 394 473 389 q 564 399 536 399 m 511 756 q 378 886 428 817 q 329 1026 329 956 q 360 1118 329 1079 q 438 1178 391 1158 q 533 1198 486 1198 q 623 1185 586 1198 q 700 1143 661 1172 l 741 1027 q 673 1062 708 1050 q 608 1074 639 1074 q 538 1049 564 1074 q 511 975 511 1024 q 535 880 511 932 q 600 781 559 827 l 511 756 z "},"उ":{"ha":769,"x_min":-35,"x_max":804,"o":"m 559 392 q 683 301 635 352 q 731 188 731 250 q 694 71 731 117 q 600 2 658 24 q 474 -20 541 -20 q 27 304 186 -20 l 102 349 q 244 187 166 232 q 401 142 323 142 q 474 158 444 142 q 521 202 505 175 q 537 261 537 230 q 528 307 537 282 q 502 354 519 331 q 412 320 460 332 q 317 308 363 308 l 242 458 q 354 480 307 467 q 432 518 401 493 q 463 586 463 544 q 458 636 463 615 q 443 677 453 656 l -2 677 l -35 805 l 774 805 l 804 677 l 580 677 q 620 606 606 642 q 633 536 633 569 q 613 458 633 495 q 559 392 593 422 z "},"ऊ":{"ha":1018,"x_min":-35,"x_max":1053,"o":"m 762 459 q 869 427 815 459 q 959 344 924 395 q 994 237 994 292 q 909 24 994 110 l 754 136 q 840 241 813 193 q 869 332 867 288 q 867 352 869 346 q 862 359 865 359 q 849 361 856 361 q 820 355 838 361 q 757 319 783 342 q 709 267 731 296 q 731 188 731 228 q 694 71 731 117 q 600 2 658 24 q 474 -20 541 -20 q 24 304 195 -20 l 100 349 q 245 189 164 235 q 401 142 326 142 q 474 158 444 142 q 521 202 505 175 q 537 261 537 230 q 528 307 537 283 q 501 354 519 332 q 413 321 460 333 q 317 307 365 309 l 234 457 q 406 503 347 471 q 466 587 466 535 q 459 631 466 609 q 440 677 453 652 l -1 677 l -35 805 l 1022 805 l 1053 677 l 580 677 q 620 606 606 642 q 633 536 633 569 q 613 457 633 494 q 559 392 594 421 l 584 378 q 762 459 665 459 z "},"ऋ":{"ha":1192,"x_min":-35,"x_max":1227,"o":"m 481 356 q 394 421 422 404 q 337 437 366 437 q 292 431 313 437 q 239 404 271 425 q 161 339 207 382 l 20 512 q 139 588 81 566 q 258 610 197 610 q 328 596 296 610 q 396 554 360 583 q 496 467 432 526 l 496 677 l -1 677 l -35 805 l 1195 805 l 1227 677 l 698 677 l 698 408 q 795 429 757 414 q 865 466 834 444 q 838 551 838 505 q 856 596 838 581 q 907 612 873 612 q 1004 582 954 612 q 1088 507 1053 553 q 1097 486 1097 496 q 1096 478 1097 482 q 1093 471 1095 474 q 1062 435 1082 456 q 1020 395 1042 414 q 1097 287 1072 336 q 1123 181 1123 237 q 1080 71 1123 121 q 937 -12 1036 21 q 914 -18 931 -15 l 826 181 q 967 222 932 195 q 1002 276 1002 249 q 993 312 1002 296 q 957 355 984 328 q 698 292 829 290 l 698 -66 l 496 -28 l 496 207 l 208 -20 l 83 170 l 481 356 z "},"ॠ":{"ha":1227,"x_min":-35,"x_max":1262,"o":"m 458 356 q 374 412 411 394 q 305 430 338 430 q 229 405 267 430 q 140 327 191 380 l -1 500 q 112 574 49 547 q 229 601 176 601 q 302 590 270 601 q 372 552 334 580 q 473 468 410 525 l 473 677 l -1 677 l -35 805 l 1230 805 l 1262 677 l 674 677 l 674 437 q 721 449 690 439 q 769 468 751 458 q 804 548 776 514 q 874 601 832 583 q 962 619 916 619 q 997 595 976 619 q 1035 540 1018 570 q 1052 496 1052 509 q 1025 457 1052 482 q 955 411 998 432 q 867 384 912 389 q 844 358 844 378 q 857 341 844 347 q 891 335 869 335 q 1053 397 950 335 l 1136 244 q 1010 183 1050 210 q 970 127 970 157 q 985 116 970 121 q 1022 112 1000 112 q 1170 174 1096 112 l 1255 35 q 1169 -14 1210 1 q 1079 -28 1128 -28 q 996 0 1036 -28 q 931 74 956 29 q 907 163 907 119 q 910 194 907 176 q 918 221 913 212 q 842 251 877 224 q 788 326 806 277 q 674 320 718 318 l 674 -64 l 473 -28 l 473 207 l 184 -22 l 60 169 l 458 356 z "},"ऌ":{"ha":1090,"x_min":-35,"x_max":1131,"o":"m 1131 -49 q 1034 -121 1084 -100 q 929 -142 984 -142 q 793 -104 866 -142 q 672 -10 721 -66 q 623 100 623 47 q 644 173 623 138 q 711 260 666 208 q 734 288 735 290 q 776 338 761 319 q 804 382 791 357 q 819 429 818 407 q 818 451 819 439 q 812 468 816 463 q 788 482 806 475 q 747 488 770 488 q 686 467 716 488 q 629 394 655 446 q 588 258 603 342 l 395 298 q 435 437 407 377 q 372 449 402 449 q 290 415 319 449 q 260 323 260 382 q 305 167 260 249 q 460 7 351 85 l 412 -67 q 140 137 232 28 q 48 355 48 246 q 81 467 48 422 q 165 534 113 513 q 276 556 218 556 q 467 488 370 556 l 472 495 q 535 545 497 524 q 618 574 573 565 q 630 649 628 607 q 631 663 631 654 q 630 677 631 672 l -2 677 l -35 805 l 1092 805 l 1121 677 l 759 677 q 780 591 777 634 q 781 564 781 583 q 879 511 833 546 q 952 432 925 476 q 979 340 979 387 q 966 276 979 307 q 932 216 953 244 q 877 144 912 188 l 861 125 l 851 113 q 809 57 822 79 q 795 16 795 36 q 798 -3 795 3 q 806 -7 799 -5 q 821 -9 813 -9 q 895 16 854 -9 q 994 101 937 40 l 1131 -49 z "},"ॡ":{"ha":1122,"x_min":-35,"x_max":1213,"o":"m 1213 -243 q 1142 -305 1175 -284 q 1076 -332 1109 -326 q 999 -339 1044 -339 q 941 -330 972 -339 q 881 -304 911 -321 q 776 -217 819 -271 q 733 -110 733 -164 q 743 -55 733 -83 q 647 30 684 -18 q 610 123 610 78 q 630 178 610 149 q 692 254 650 207 l 718 283 l 734 300 q 791 372 771 343 q 813 429 812 401 q 812 451 814 439 q 807 468 810 463 q 783 482 800 475 q 741 488 765 488 q 647 435 690 488 q 583 257 604 382 l 391 297 q 429 437 398 374 q 366 449 395 449 q 284 415 314 449 q 254 323 254 382 q 454 6 254 154 l 406 -67 q 134 140 225 29 q 43 362 43 250 q 75 472 43 429 q 160 536 108 516 q 271 556 212 556 q 461 488 365 556 l 467 495 q 530 545 492 524 q 612 574 568 565 q 625 649 623 607 q 625 663 625 654 q 625 677 625 672 l 0 677 l -35 805 l 1126 805 l 1156 677 l 753 677 q 774 591 772 634 q 775 564 775 583 q 874 511 828 546 q 947 432 920 476 q 974 340 974 387 q 960 280 974 309 q 925 227 946 252 q 866 162 904 201 l 856 151 q 807 92 823 118 q 789 41 790 65 q 792 23 789 28 q 801 19 793 21 q 816 17 808 17 q 891 40 852 17 q 987 128 930 64 l 1126 -23 q 1030 -96 1078 -75 q 924 -116 981 -116 q 869 -109 896 -116 q 857 -153 857 -130 q 860 -176 857 -165 q 868 -191 863 -186 q 892 -200 873 -196 q 932 -205 911 -205 q 1014 -185 976 -205 q 1102 -115 1053 -166 l 1213 -243 z "},"ऍ":{"ha":842,"x_min":-35,"x_max":877,"o":"m 243 1119 q 297 1053 272 1076 q 347 1021 322 1029 q 405 1012 372 1012 q 493 1041 451 1012 q 576 1134 535 1071 l 689 1026 q 438 879 598 879 q 295 928 362 879 q 178 1083 229 977 l 243 1119 m -1 677 l -35 805 l 846 805 l 877 677 l 762 677 l 762 420 q 750 316 762 358 q 711 243 739 275 q 635 182 684 212 l 480 304 q 525 337 509 321 q 547 374 541 353 q 554 428 554 395 l 554 677 l 301 677 l 301 343 q 308 303 301 317 q 332 278 314 290 q 496 172 407 228 q 591 112 558 133 q 662 46 643 79 q 682 -40 682 14 q 659 -128 682 -84 q 583 -229 636 -172 l 422 -112 q 477 -57 460 -80 q 493 -12 493 -34 q 485 24 493 8 q 458 52 477 39 q 285 158 375 104 q 227 194 224 195 q 142 254 170 229 q 103 302 114 279 q 93 359 93 326 l 93 677 l -1 677 z "},"ऎ":{"ha":842,"x_min":-35,"x_max":877,"o":"m 877 677 l 762 677 l 762 420 q 750 316 762 358 q 711 243 739 275 q 635 182 684 212 l 480 304 q 525 337 509 321 q 547 374 541 353 q 554 428 554 395 l 554 677 l 301 677 l 301 343 q 308 303 301 317 q 332 278 314 290 q 496 172 407 228 q 591 112 558 133 q 662 46 643 79 q 682 -40 682 14 q 659 -128 682 -84 q 583 -229 636 -172 l 422 -112 q 477 -57 460 -80 q 493 -12 493 -34 q 485 24 493 8 q 458 52 477 39 q 285 158 375 104 q 227 194 224 195 q 142 254 170 229 q 103 302 114 279 q 93 359 93 326 l 93 677 l -1 677 l -35 805 l 588 805 q 563 838 577 823 q 525 865 548 852 q 475 882 505 876 q 392 895 445 888 q 294 911 331 903 q 229 936 256 920 q 141 1034 170 971 q 113 1159 113 1097 l 195 1195 q 248 1123 225 1145 q 307 1089 271 1101 q 351 1077 327 1082 q 418 1065 375 1072 q 507 1049 471 1057 q 573 1027 543 1041 q 664 942 631 1001 q 700 805 696 884 l 846 805 l 877 677 z "},"ए":{"ha":842,"x_min":-35,"x_max":877,"o":"m -1 677 l -35 805 l 846 805 l 877 677 l 762 677 l 762 420 q 750 316 762 358 q 711 243 739 275 q 635 182 684 212 l 480 304 q 525 337 509 321 q 547 374 541 353 q 554 428 554 395 l 554 677 l 301 677 l 301 343 q 308 303 301 317 q 332 278 314 290 q 496 172 407 228 q 591 112 558 133 q 662 46 643 79 q 682 -40 682 14 q 659 -128 682 -84 q 583 -229 636 -172 l 422 -112 q 477 -57 460 -80 q 493 -12 493 -34 q 485 24 493 8 q 458 52 477 39 q 285 158 375 104 q 227 194 224 195 q 142 254 170 229 q 103 302 114 279 q 93 359 93 326 l 93 677 l -1 677 z "},"ऐ":{"ha":842,"x_min":-35,"x_max":877,"o":"m 877 677 l 762 677 l 762 420 q 750 316 762 358 q 711 243 739 275 q 635 182 684 212 l 480 304 q 525 337 509 321 q 547 374 541 353 q 554 428 554 395 l 554 677 l 301 677 l 301 343 q 308 303 301 317 q 332 278 314 290 q 496 172 407 228 q 591 112 558 133 q 662 46 643 79 q 682 -40 682 14 q 659 -128 682 -84 q 583 -229 636 -172 l 422 -112 q 477 -57 460 -80 q 493 -12 493 -34 q 485 24 493 8 q 458 52 477 39 q 285 158 375 104 q 227 194 224 195 q 142 254 170 229 q 103 302 114 279 q 93 359 93 326 l 93 677 l -1 677 l -35 805 l 585 805 q 518 916 558 859 q 446 995 477 973 q 357 1005 412 1005 q 243 989 320 1005 l 201 1159 q 269 1175 231 1169 q 342 1180 307 1180 q 444 1163 395 1180 q 525 1122 492 1146 q 629 992 582 1078 q 704 805 677 906 l 846 805 l 877 677 z "},"ऑ":{"ha":1390,"x_min":18,"x_max":1421,"o":"m 1421 677 l 1293 677 l 1293 -62 l 1092 -28 l 1092 677 l 975 677 l 975 -64 l 773 -28 l 773 294 q 740 285 755 288 q 703 283 724 283 q 633 295 673 283 q 668 186 668 246 q 634 73 668 119 q 545 3 600 26 q 424 -20 489 -20 q 193 67 297 -20 q 18 323 90 155 l 96 366 q 225 201 161 254 q 361 148 289 148 q 454 178 418 148 q 490 258 490 209 q 458 353 490 312 q 328 312 406 329 l 237 477 q 373 526 314 497 q 464 588 431 555 q 497 654 496 621 q 492 679 497 673 q 454 687 486 687 q 352 651 410 687 q 244 555 294 614 l 108 694 q 229 787 161 754 q 366 821 297 821 q 485 784 429 821 q 574 692 541 748 q 607 579 607 635 q 523 393 607 460 q 591 379 558 379 q 686 405 637 379 q 773 478 734 431 l 773 677 l 673 677 l 639 805 l 1390 805 l 1421 677 m 867 1119 q 921 1053 896 1076 q 971 1021 946 1029 q 1029 1012 996 1012 q 1117 1041 1075 1012 q 1200 1134 1159 1071 l 1313 1026 q 1062 879 1222 879 q 919 928 986 879 q 802 1083 852 977 l 867 1119 z "},"ऒ":{"ha":1410,"x_min":18,"x_max":1421,"o":"m 1421 677 l 1293 677 l 1293 -62 l 1092 -28 l 1092 677 l 975 677 l 975 -64 l 773 -28 l 773 294 q 740 285 755 288 q 703 283 724 283 q 633 295 673 283 q 668 186 668 246 q 634 73 668 119 q 545 3 600 26 q 424 -20 489 -20 q 193 67 297 -20 q 18 323 90 155 l 96 366 q 225 201 161 254 q 361 148 289 148 q 454 178 418 148 q 490 258 490 209 q 458 353 490 312 q 328 312 406 329 l 237 477 q 373 526 314 497 q 464 588 431 555 q 497 654 496 621 q 492 679 497 673 q 454 687 486 687 q 352 651 410 687 q 244 555 294 614 l 108 694 q 229 787 161 754 q 366 821 297 821 q 485 784 429 821 q 574 692 541 748 q 607 579 607 635 q 523 393 607 460 q 591 379 558 379 q 686 405 637 379 q 773 478 734 431 l 773 677 l 673 677 l 639 805 l 1160 805 q 1134 838 1149 823 q 1097 865 1120 852 q 1046 882 1076 876 q 964 895 1017 888 q 865 911 903 903 q 800 936 828 920 q 713 1034 741 971 q 685 1159 685 1097 l 766 1195 q 820 1123 797 1145 q 878 1089 842 1101 q 923 1077 899 1082 q 990 1065 947 1072 q 1079 1049 1043 1057 q 1145 1027 1114 1041 q 1235 942 1202 1001 q 1272 805 1268 884 l 1390 805 l 1421 677 z "},"ओ":{"ha":1390,"x_min":18,"x_max":1421,"o":"m 1421 677 l 1293 677 l 1293 -62 l 1092 -28 l 1092 677 l 975 677 l 975 -64 l 773 -28 l 773 294 q 740 285 755 288 q 703 283 724 283 q 633 295 673 283 q 668 186 668 246 q 634 73 668 119 q 545 3 600 26 q 424 -20 489 -20 q 193 67 297 -20 q 18 323 90 155 l 96 366 q 225 201 161 254 q 361 148 289 148 q 454 178 418 148 q 490 258 490 209 q 458 353 490 312 q 328 312 406 329 l 237 477 q 373 526 314 497 q 464 588 431 555 q 497 654 496 621 q 492 679 497 673 q 454 687 486 687 q 352 651 410 687 q 244 555 294 614 l 108 694 q 229 787 161 754 q 366 821 297 821 q 485 784 429 821 q 574 692 541 748 q 607 579 607 635 q 523 393 607 460 q 591 379 558 379 q 686 405 637 379 q 773 478 734 431 l 773 677 l 673 677 l 639 805 l 1147 805 q 1080 916 1120 859 q 1008 995 1040 973 q 919 1005 974 1005 q 806 989 882 1005 l 763 1159 q 831 1175 793 1169 q 904 1180 869 1180 q 1006 1163 958 1180 q 1087 1122 1054 1146 q 1192 992 1144 1078 q 1266 805 1239 906 l 1390 805 l 1421 677 z "},"औ":{"ha":1390,"x_min":18,"x_max":1421,"o":"m 1421 677 l 1293 677 l 1293 -62 l 1092 -28 l 1092 677 l 975 677 l 975 -64 l 773 -28 l 773 294 q 740 285 755 288 q 703 283 724 283 q 633 295 673 283 q 668 186 668 246 q 634 73 668 119 q 545 3 600 26 q 424 -20 489 -20 q 193 67 297 -20 q 18 323 90 155 l 96 366 q 225 201 161 254 q 361 148 289 148 q 454 178 418 148 q 490 258 490 209 q 458 353 490 312 q 328 312 406 329 l 237 477 q 373 526 314 497 q 464 588 431 555 q 497 654 496 621 q 492 679 497 673 q 454 687 486 687 q 352 651 410 687 q 244 555 294 614 l 108 694 q 229 787 161 754 q 366 821 297 821 q 485 784 429 821 q 574 692 541 748 q 607 579 607 635 q 523 393 607 460 q 591 379 558 379 q 686 405 637 379 q 773 478 734 431 l 773 677 l 673 677 l 639 805 l 1102 805 q 1003 864 1050 846 q 903 882 956 882 q 851 877 874 882 q 800 861 829 872 l 747 1014 q 868 1040 806 1040 q 1013 999 941 1040 q 1166 852 1085 957 q 1086 989 1127 935 q 999 1076 1046 1044 q 900 1096 960 1096 q 804 1085 853 1096 l 755 1232 q 877 1255 812 1255 q 1057 1202 982 1255 q 1184 1051 1133 1149 q 1277 805 1236 953 l 1390 805 l 1421 677 z "},"ॳ":{"ha":1099,"x_min":18,"x_max":1134,"o":"m 1134 677 l 975 677 l 975 -64 l 773 -28 l 773 294 q 740 285 755 288 q 703 283 724 283 q 633 295 673 283 q 668 186 668 246 q 634 73 668 119 q 545 3 600 26 q 424 -20 489 -20 q 193 67 297 -20 q 18 323 90 155 l 96 366 q 225 201 161 254 q 361 148 289 148 q 454 178 418 148 q 490 258 490 209 q 458 353 490 312 q 328 312 406 329 l 237 477 q 373 526 314 497 q 464 588 431 555 q 497 654 496 621 q 492 679 497 673 q 454 687 486 687 q 352 651 410 687 q 244 555 294 614 l 108 694 q 229 787 161 754 q 366 821 297 821 q 485 784 429 821 q 574 692 541 748 q 607 579 607 635 q 523 393 607 460 q 591 379 558 379 q 686 405 637 379 q 773 478 734 431 l 773 677 l 673 677 l 639 805 l 780 805 l 780 966 l 981 928 l 981 805 l 1101 805 l 1134 677 z "},"ॴ":{"ha":1390,"x_min":18,"x_max":1421,"o":"m 1421 677 l 1293 677 l 1293 -62 l 1092 -28 l 1092 677 l 975 677 l 975 -64 l 773 -28 l 773 294 q 740 285 755 288 q 703 283 724 283 q 633 295 673 283 q 668 186 668 246 q 634 73 668 119 q 545 3 600 26 q 424 -20 489 -20 q 193 67 297 -20 q 18 323 90 155 l 96 366 q 225 201 161 254 q 361 148 289 148 q 454 178 418 148 q 490 258 490 209 q 458 353 490 312 q 328 312 406 329 l 237 477 q 373 526 314 497 q 464 588 431 555 q 497 654 496 621 q 492 679 497 673 q 454 687 486 687 q 352 651 410 687 q 244 555 294 614 l 108 694 q 229 787 161 754 q 366 821 297 821 q 485 784 429 821 q 574 692 541 748 q 607 579 607 635 q 523 393 607 460 q 591 379 558 379 q 686 405 637 379 q 773 478 734 431 l 773 677 l 673 677 l 639 805 l 1084 805 l 1084 966 l 1286 928 l 1286 805 l 1390 805 l 1421 677 z "},"ॵ":{"ha":1410,"x_min":18,"x_max":1421,"o":"m 1421 677 l 1293 677 l 1293 -62 l 1092 -28 l 1092 677 l 975 677 l 975 -64 l 773 -28 l 773 294 q 740 285 755 288 q 703 283 724 283 q 633 295 673 283 q 668 186 668 246 q 634 73 668 119 q 545 3 600 26 q 424 -20 489 -20 q 193 67 297 -20 q 18 323 90 155 l 96 366 q 225 201 161 254 q 361 148 289 148 q 454 178 418 148 q 490 258 490 209 q 458 353 490 312 q 328 312 406 329 l 237 477 q 373 526 314 497 q 464 588 431 555 q 497 654 496 621 q 492 679 497 673 q 454 687 486 687 q 352 651 410 687 q 244 555 294 614 l 108 694 q 229 787 161 754 q 366 821 297 821 q 485 784 429 821 q 574 692 541 748 q 607 579 607 635 q 523 393 607 460 q 591 379 558 379 q 686 405 637 379 q 773 478 734 431 l 773 677 l 673 677 l 639 805 l 1147 805 q 1099 831 1127 823 q 1030 839 1072 839 q 935 838 996 839 q 822 836 884 836 q 668 881 728 836 q 588 1011 608 926 l 660 1063 q 758 987 711 1008 q 867 966 805 966 l 941 967 q 1009 968 964 968 q 1129 929 1078 968 q 1211 823 1181 890 q 1174 927 1202 892 q 1101 973 1146 962 q 1047 983 1080 979 q 1004 989 1014 988 q 888 1007 935 998 q 808 1034 842 1017 q 727 1116 752 1061 q 702 1227 702 1170 l 784 1263 q 816 1208 800 1229 q 850 1177 832 1188 q 895 1157 868 1166 q 937 1145 916 1149 q 1001 1133 959 1140 q 1085 1116 1053 1124 q 1149 1095 1118 1109 q 1276 805 1276 1037 l 1390 805 l 1421 677 z "},"ॶ":{"ha":1099,"x_min":18,"x_max":1134,"o":"m 1134 677 l 975 677 l 975 -64 l 773 -28 l 773 294 q 740 285 755 288 q 703 283 724 283 q 633 295 673 283 q 668 186 668 246 q 634 73 668 119 q 545 3 600 26 q 424 -20 489 -20 q 193 67 297 -20 q 18 323 90 155 l 96 366 q 225 201 161 254 q 361 148 289 148 q 454 178 418 148 q 490 258 490 209 q 458 353 490 312 q 328 312 406 329 l 237 477 q 373 526 314 497 q 464 588 431 555 q 497 654 496 621 q 492 679 497 673 q 454 687 486 687 q 352 651 410 687 q 244 555 294 614 l 108 694 q 229 787 161 754 q 366 821 297 821 q 485 784 429 821 q 574 692 541 748 q 607 579 607 635 q 523 393 607 460 q 591 379 558 379 q 686 405 637 379 q 773 478 734 431 l 773 677 l 673 677 l 639 805 l 1101 805 l 1134 677 m 526 -93 q 616 -174 572 -153 q 713 -195 661 -195 q 819 -166 765 -195 q 922 -75 872 -138 l 1024 -174 q 905 -287 972 -250 q 762 -323 837 -323 q 599 -279 673 -323 q 466 -134 525 -235 l 526 -93 z "},"ॷ":{"ha":1099,"x_min":18,"x_max":1134,"o":"m 668 186 q 634 73 668 119 q 545 3 600 26 q 424 -20 489 -20 q 193 67 297 -20 q 18 323 90 155 l 96 366 q 225 201 161 254 q 361 148 289 148 q 454 178 418 148 q 490 258 490 209 q 458 353 490 312 q 328 312 406 329 l 237 477 q 373 526 314 497 q 464 588 431 555 q 497 654 496 621 q 492 679 497 673 q 454 687 486 687 q 352 651 410 687 q 244 555 294 614 l 108 694 q 229 787 161 754 q 366 821 297 821 q 485 784 429 821 q 574 692 541 748 q 607 579 607 635 q 523 393 607 460 q 591 379 558 379 q 686 405 637 379 q 773 478 734 431 l 773 677 l 673 677 l 639 805 l 1101 805 l 1134 677 l 975 677 l 975 -64 l 773 -28 l 773 294 q 740 285 755 288 q 703 283 724 283 q 633 295 673 283 q 668 186 668 246 m 713 -195 q 819 -166 765 -195 q 922 -75 872 -138 l 1024 -174 q 905 -287 972 -250 q 762 -323 837 -323 q 599 -279 673 -323 q 466 -134 525 -235 l 526 -93 q 616 -174 572 -153 q 713 -195 661 -195 z "},"ा":{"ha":380,"x_min":-33,"x_max":425,"o":"m 0 677 l -33 805 l 393 805 l 425 677 l 297 677 l 297 -62 l 96 -28 l 96 677 l 0 677 z "},"ि":{"ha":378,"x_min":-36,"x_max":916,"o":"m 354 998 q 262 976 299 998 q 226 901 226 953 q 234 856 226 881 q 254 805 241 830 l 378 805 l 410 677 l 300 677 l 300 -68 l 98 -28 l 98 677 l -1 677 l -36 805 l 121 805 q 63 904 85 858 q 41 987 41 950 q 99 1115 41 1069 q 269 1161 156 1161 q 481 1124 364 1161 q 712 1027 598 1087 q 916 901 826 968 l 857 821 q 584 954 717 909 q 354 998 450 998 z "},"ी":{"ha":401,"x_min":-350,"x_max":435,"o":"m -1 677 l -35 805 l 96 805 q 39 926 71 878 q -17 997 7 974 q -54 1026 -42 1021 q -85 1032 -64 1032 q -141 1011 -123 1032 q -160 956 -160 989 q -156 916 -160 934 q -141 862 -153 899 l -251 832 q -322 906 -294 861 q -350 1000 -350 950 q -322 1087 -350 1050 q -248 1143 -295 1124 q -142 1162 -201 1162 q -9 1126 -81 1162 q 140 1010 63 1090 q 285 805 216 930 l 402 805 l 435 677 l 303 677 l 303 -66 l 98 -28 l 98 677 l -1 677 z "},"ॉ":{"ha":380,"x_min":-194,"x_max":425,"o":"m 0 677 l -33 805 l 393 805 l 425 677 l 297 677 l 297 -62 l 96 -28 l 96 677 l 0 677 m -129 1119 q -75 1053 -100 1076 q -24 1021 -50 1029 q 33 1012 1 1012 q 121 1041 79 1012 q 205 1134 163 1071 l 317 1026 q 66 879 227 879 q -76 928 -9 879 q -194 1083 -143 977 l -129 1119 z "},"ॊ":{"ha":380,"x_min":-327,"x_max":425,"o":"m 425 677 l 297 677 l 297 -62 l 96 -28 l 96 677 l 0 677 l -33 805 l 148 805 q 122 838 137 823 q 85 865 108 852 q 35 882 64 876 q -48 895 5 888 q -146 911 -109 903 q -212 936 -184 920 q -299 1034 -271 971 q -327 1159 -327 1097 l -245 1195 q -192 1123 -215 1145 q -134 1089 -170 1101 q -89 1077 -113 1082 q -22 1065 -65 1072 q 67 1049 31 1057 q 133 1027 102 1041 q 223 942 191 1001 q 260 805 256 884 l 393 805 l 425 677 z "},"ो":{"ha":380,"x_min":-239,"x_max":425,"o":"m 425 677 l 297 677 l 297 -62 l 96 -28 l 96 677 l 0 677 l -33 805 l 144 805 q 78 916 118 859 q 5 995 37 973 q -83 1005 -28 1005 q -197 989 -120 1005 l -239 1159 q -171 1175 -210 1169 q -98 1180 -133 1180 q 3 1163 -45 1180 q 85 1122 52 1146 q 189 992 142 1078 q 264 805 237 906 l 393 805 l 425 677 z "},"ौ":{"ha":380,"x_min":-255,"x_max":425,"o":"m 425 677 l 297 677 l 297 -62 l 96 -28 l 96 677 l 0 677 l -33 805 l 100 805 q 1 864 47 846 q -99 882 -46 882 q -151 877 -128 882 q -203 861 -174 872 l -255 1014 q -134 1040 -196 1040 q 11 999 -62 1040 q 163 852 83 957 q 84 989 125 935 q -3 1076 43 1044 q -102 1096 -43 1096 q -199 1085 -149 1096 l -248 1232 q -125 1255 -191 1255 q 55 1202 -20 1255 q 182 1051 130 1149 q 275 805 234 953 l 393 805 l 425 677 z "},"ॎ":{"ha":406,"x_min":109,"x_max":440,"o":"m 406 805 l 440 677 l 311 677 l 311 -66 l 109 -28 l 109 805 l 406 805 z "},"ऻ":{"ha":407,"x_min":-23,"x_max":435,"o":"m 435 677 l 307 677 l 307 -62 l 106 -28 l 106 677 l 10 677 l -23 805 l 106 805 l 106 979 l 307 941 l 307 805 l 404 805 l 435 677 z "},"ॏ":{"ha":407,"x_min":-422,"x_max":439,"o":"m 439 677 l 311 677 l 311 -66 l 109 -28 l 109 677 l -1 677 l -35 805 l 139 805 q 94 831 121 823 q 26 839 67 839 q -54 837 -9 839 q -169 834 -125 834 q -337 874 -274 834 q -422 1011 -399 914 l -351 1063 q -285 1003 -309 1020 q -224 977 -261 987 q -31 966 -185 966 q 116 930 62 966 q 200 825 170 895 q 163 928 191 894 q 90 973 136 962 q 36 983 69 979 q -7 989 3 988 q -122 1007 -76 998 q -202 1034 -168 1017 q -283 1116 -258 1061 q -309 1227 -309 1170 l -227 1263 q -195 1208 -211 1229 q -160 1177 -178 1188 q -115 1157 -142 1166 q -73 1145 -95 1149 q -9 1133 -52 1140 q 75 1116 42 1124 q 138 1095 108 1109 q 265 805 265 1037 l 408 805 l 439 677 z "},"क":{"ha":1132,"x_min":-35,"x_max":1167,"o":"m 836 556 q 960 513 901 556 q 1057 406 1020 470 q 1094 283 1094 341 q 928 33 1094 154 l 755 159 q 875 258 832 218 q 936 329 918 298 q 955 391 955 360 q 949 418 955 412 q 915 427 942 427 q 833 406 878 427 q 746 351 788 385 q 676 275 705 316 l 676 -67 l 475 -28 l 475 117 q 411 94 448 103 q 342 85 374 85 q 196 122 269 85 q 77 221 123 159 q 30 353 30 283 q 56 466 30 418 q 132 540 83 514 q 249 566 182 566 q 475 461 362 566 l 475 677 l -3 677 l -35 805 l 1135 805 l 1167 677 l 676 677 l 676 508 q 751 544 709 532 q 836 556 793 556 m 269 203 q 340 220 301 203 q 414 264 378 236 q 475 324 450 292 l 475 399 q 351 429 410 429 q 263 400 298 429 q 229 318 229 372 q 252 212 229 256 q 269 203 256 203 z "},"ख":{"ha":1176,"x_min":-35,"x_max":1211,"o":"m 1211 677 l 1090 677 l 1090 -68 l 889 -28 l 889 157 q 766 137 832 137 q 621 169 685 137 q 521 258 557 201 q 485 388 485 315 q 511 487 485 444 q 582 555 536 530 q 686 579 628 579 q 793 554 740 579 q 889 483 846 528 l 889 677 l 399 677 q 426 599 416 641 q 435 526 435 557 q 378 358 435 423 q 212 257 321 293 q 340 122 258 161 q 520 84 422 84 q 591 90 558 84 q 663 111 624 96 l 745 -43 q 662 -76 703 -66 q 568 -86 621 -86 q 332 -26 437 -86 q 158 149 227 35 q 62 422 89 264 l 168 467 l 223 435 q 241 489 235 456 q 247 558 247 522 q 235 677 247 611 l -3 677 l -35 805 l 1181 805 l 1211 677 m 734 229 q 815 251 775 229 q 889 315 855 274 l 889 422 q 840 441 867 434 q 788 448 812 448 q 714 418 743 448 q 685 340 685 388 q 694 282 685 310 q 718 235 703 254 q 734 229 723 229 z "},"ग":{"ha":913,"x_min":-36,"x_max":949,"o":"m -36 805 l 918 805 l 949 677 l 830 677 l 830 -66 l 630 -28 l 630 677 l 420 677 q 441 419 441 546 q 429 284 441 347 q 396 185 416 222 q 351 148 375 148 q 243 197 309 148 q 124 308 176 246 q 73 401 73 370 q 106 431 73 421 q 210 442 139 441 q 238 441 229 442 q 244 538 244 477 q 235 677 244 627 l -1 677 l -36 805 z "},"घ":{"ha":938,"x_min":-35,"x_max":973,"o":"m 973 677 l 850 677 l 850 -68 l 648 -29 l 648 97 q 558 61 598 72 q 478 50 518 50 q 328 84 410 50 q 190 178 247 117 q 134 314 134 238 q 154 393 134 357 q 212 458 174 430 q 118 532 154 488 q 81 625 81 576 q 92 677 81 652 l -1 677 l -35 805 l 941 805 l 973 677 m 648 677 l 375 677 q 296 655 322 677 q 269 590 269 633 q 300 504 269 545 q 458 532 372 530 l 530 368 q 359 321 416 353 q 303 238 303 289 q 321 190 303 208 q 341 182 327 184 q 370 180 355 180 q 481 210 422 180 q 586 283 541 239 q 648 364 632 327 l 648 677 z "},"ङ":{"ha":1069,"x_min":-35,"x_max":1104,"o":"m -35 805 l 1071 805 l 1104 677 l 706 677 q 727 516 727 595 q 725 471 727 505 l 493 471 q 415 459 442 471 q 387 412 387 446 q 398 367 387 389 q 412 358 403 358 q 456 364 430 358 q 522 381 481 370 q 607 403 572 395 q 671 410 642 410 q 712 399 693 410 q 769 349 743 380 q 811 279 795 317 q 826 210 826 242 q 793 85 825 138 q 704 2 761 32 q 572 -34 647 -28 q 542 -35 562 -35 q 274 48 403 -35 q 39 306 145 131 l 115 357 q 254 209 190 260 q 369 141 317 158 q 474 124 420 124 q 499 125 491 124 q 611 156 567 127 q 656 239 656 184 q 655 252 656 250 q 649 254 654 254 q 608 243 644 254 q 530 221 565 230 q 467 213 494 213 q 342 255 407 213 q 235 359 278 298 q 193 472 193 420 q 250 574 193 548 q 394 601 307 601 l 532 601 q 535 637 535 614 q 533 677 535 665 l -1 677 l -35 805 m 937 552 q 988 527 959 552 q 1039 472 1017 503 q 1061 427 1061 441 q 1038 378 1061 408 q 983 326 1014 349 q 936 302 953 302 q 889 327 919 302 q 836 382 859 351 q 813 431 813 413 q 837 479 813 450 q 890 530 861 508 q 937 552 920 552 z "},"च":{"ha":994,"x_min":-35,"x_max":1029,"o":"m 878 677 l 878 -69 l 677 -26 l 677 83 q 555 50 625 50 q 388 85 473 50 q 248 182 303 121 q 192 317 192 243 q 222 408 192 372 l 87 408 l 52 544 l 558 544 l 589 408 l 576 408 q 378 257 378 408 q 395 193 378 210 q 413 185 400 188 q 443 182 427 182 q 541 207 494 182 q 623 274 587 231 q 677 372 658 317 l 677 677 l -2 677 l -35 805 l 999 805 l 1029 677 l 878 677 z "},"छ":{"ha":962,"x_min":-35,"x_max":997,"o":"m 793 564 q 886 461 851 524 q 920 327 920 397 q 864 135 920 218 q 709 7 808 52 q 484 -38 610 -38 q 286 8 382 -38 q 129 129 189 54 q 69 286 69 203 q 103 390 69 342 q 199 471 138 437 q 54 628 54 515 q 62 677 54 654 l -1 677 l -35 805 l 967 805 l 997 677 l 774 677 q 795 591 795 627 q 793 564 795 583 m 383 87 q 575 130 492 87 q 705 246 659 174 q 535 332 588 281 q 483 450 483 383 q 502 529 483 494 q 557 585 522 564 q 637 608 592 606 q 646 667 646 642 l 646 677 l 345 677 q 276 650 299 677 q 252 580 252 623 q 278 503 252 534 q 395 524 335 519 l 453 345 q 344 317 385 335 q 283 270 302 299 q 264 199 264 241 q 272 136 264 163 q 293 100 280 108 q 331 91 304 94 q 383 87 359 87 m 715 520 q 671 497 688 520 q 654 441 654 474 q 673 364 654 398 q 734 304 692 330 q 751 404 751 353 q 746 479 751 448 q 734 515 740 509 q 715 520 729 520 z "},"ज":{"ha":1082,"x_min":-35,"x_max":1118,"o":"m 460 35 q 277 84 353 35 q 149 228 201 133 q 54 471 97 323 l 149 500 q 231 326 190 389 q 312 237 272 262 q 397 212 352 212 q 464 237 439 212 q 489 300 489 263 q 476 359 489 334 q 435 404 463 384 q 359 446 407 424 l 343 544 l 779 544 l 779 677 l -3 677 l -35 805 l 1087 805 l 1118 677 l 980 677 l 980 -66 l 779 -28 l 779 415 l 548 415 q 653 334 619 381 q 687 233 687 287 q 657 128 687 173 q 576 59 628 83 q 460 35 525 35 z "},"झ":{"ha":1116,"x_min":-35,"x_max":1151,"o":"m 1151 677 l 1032 677 l 1032 -69 l 839 -30 l 839 233 q 805 223 825 227 q 767 220 785 220 q 699 236 735 220 q 702 205 702 218 q 657 68 702 119 q 530 -3 613 18 q 321 -24 447 -24 l 318 -24 q 383 -82 349 -66 q 470 -99 417 -99 q 511 -94 493 -99 q 555 -76 528 -89 l 621 -220 q 556 -247 585 -239 q 492 -254 526 -254 q 387 -232 431 -254 q 302 -158 342 -209 q 216 -14 263 -106 q 120 13 163 -5 q 52 51 77 30 q 27 90 27 71 q 47 148 27 113 q 98 209 67 183 q 160 235 128 235 q 202 208 178 235 q 252 141 227 181 q 346 133 285 133 q 445 145 397 133 q 522 181 492 157 q 551 239 551 205 q 549 256 551 256 q 482 241 536 256 q 415 224 444 230 q 368 218 387 218 q 214 260 278 218 q 117 359 149 302 q 85 457 85 416 q 133 565 85 536 q 258 593 180 593 l 422 593 q 427 637 427 612 q 425 677 427 651 l -1 677 l -35 805 l 1120 805 l 1151 677 m 686 334 q 773 358 730 334 q 839 415 817 382 l 839 677 l 614 677 q 627 526 626 595 q 626 471 627 498 l 371 471 q 317 464 335 471 q 294 447 299 457 q 289 420 289 436 q 298 375 289 393 q 307 366 300 368 q 326 364 313 364 q 361 369 339 364 q 407 378 383 373 q 482 394 452 389 q 539 399 511 399 q 586 388 563 399 q 646 341 618 373 q 686 334 667 334 z "},"ञ":{"ha":1114,"x_min":-35,"x_max":1149,"o":"m 1149 677 l 1029 677 l 1029 -67 l 830 -29 l 830 323 q 782 321 804 321 q 744 323 760 321 l 745 299 q 710 167 745 222 q 612 82 676 111 q 462 53 549 53 q 201 158 306 53 q 29 463 96 264 l 110 496 q 270 278 189 337 q 421 220 351 220 q 510 241 469 220 q 576 299 551 262 q 601 376 601 335 q 596 411 601 394 q 584 434 592 428 q 557 444 576 440 q 519 448 539 448 q 342 380 435 448 l 261 540 q 431 591 350 591 q 541 572 487 591 q 640 516 595 553 q 712 430 685 479 q 783 449 749 433 q 830 494 816 465 l 830 677 l -3 677 l -35 805 l 1118 805 l 1149 677 z "},"ट":{"ha":823,"x_min":-35,"x_max":858,"o":"m 288 117 q 319 105 292 111 q 378 100 347 100 q 520 139 450 100 q 663 259 591 179 l 791 105 q 648 8 728 40 q 468 -24 568 -24 q 266 21 358 -24 q 119 145 173 66 q 64 321 64 224 q 134 484 64 430 q 342 538 203 538 l 451 538 q 461 631 461 573 q 460 677 461 652 l 0 677 l -35 805 l 827 805 l 858 677 l 650 677 q 664 592 659 628 q 668 521 668 555 q 659 409 668 463 l 434 409 q 303 374 347 409 q 260 269 260 339 q 269 176 260 218 q 288 117 277 133 z "},"ठ":{"ha":865,"x_min":-35,"x_max":900,"o":"m 644 410 q 806 210 806 321 q 765 78 806 131 q 655 1 725 26 q 494 -24 585 -24 q 278 16 378 -24 q 117 135 178 56 q 56 321 56 213 q 119 469 56 412 q 347 527 182 527 l 450 527 q 459 563 456 540 q 463 612 463 586 q 460 677 463 650 l -2 677 l -35 805 l 869 805 l 900 677 l 637 677 q 661 601 652 642 q 669 522 669 561 q 663 453 669 483 q 644 410 656 424 m 378 82 q 545 127 481 82 q 609 259 609 172 q 569 398 609 334 l 433 398 q 308 365 350 398 q 267 255 267 332 q 277 158 267 200 q 300 96 288 116 q 328 86 304 90 q 378 82 351 82 z "},"ड":{"ha":884,"x_min":-35,"x_max":919,"o":"m -35 805 l 887 805 l 919 677 l 699 677 q 720 516 720 595 q 718 471 720 501 l 486 471 q 408 459 435 471 q 380 412 380 446 q 391 367 380 389 q 405 358 396 358 q 448 363 423 358 q 509 378 473 368 q 589 397 557 391 q 651 404 622 404 q 692 392 673 404 q 750 338 722 374 q 795 262 779 303 q 812 189 812 222 q 747 12 811 70 q 565 -54 683 -46 q 534 -55 545 -55 q 270 27 398 -55 q 33 283 142 110 l 109 336 q 248 188 184 239 q 363 120 312 137 q 470 104 415 104 l 492 104 q 589 124 541 106 q 671 174 638 141 q 704 252 704 206 q 703 266 704 259 q 694 268 699 268 q 645 254 688 268 q 537 225 585 237 q 460 213 489 213 q 336 255 400 213 q 229 359 271 298 q 186 472 186 420 q 243 574 186 548 q 387 601 300 601 l 526 601 q 528 637 528 614 q 526 677 528 665 l 0 677 l -35 805 z "},"ढ":{"ha":876,"x_min":-35,"x_max":910,"o":"m 537 394 q 661 362 595 394 q 771 284 726 331 q 816 192 816 237 q 780 85 816 133 q 674 8 743 37 q 509 -20 604 -20 q 343 3 419 -20 q 210 67 268 25 q 95 191 136 121 q 54 355 54 260 q 145 541 54 486 q 378 597 237 597 l 506 597 q 511 667 511 630 q 511 677 511 674 l -2 677 l -35 805 l 879 805 l 910 677 l 690 677 q 706 591 701 635 q 710 472 710 547 l 499 472 q 368 461 418 472 q 286 413 317 450 q 254 300 254 376 q 262 218 254 260 q 280 146 269 176 q 299 107 290 115 q 319 100 303 103 q 357 98 336 98 q 431 100 400 98 q 368 181 387 145 q 349 253 349 217 q 373 326 349 294 q 439 376 396 357 q 537 394 481 394 m 500 110 q 627 160 583 125 q 671 245 671 195 q 667 270 671 257 q 661 284 664 282 q 649 288 659 286 q 631 290 640 290 q 534 244 568 290 q 500 110 501 199 z "},"ण":{"ha":1046,"x_min":-35,"x_max":1081,"o":"m 619 420 q 567 222 619 288 q 410 157 515 157 q 242 193 320 157 q 118 290 164 229 q 71 420 71 350 l 71 677 l -2 677 l -35 805 l 1048 805 l 1081 677 l 966 677 l 966 -68 l 764 -29 l 764 677 l 619 677 l 619 420 m 273 420 q 276 323 273 363 q 285 276 279 284 q 325 263 294 263 q 396 300 375 263 q 418 420 418 336 l 418 677 l 273 677 l 273 420 z "},"त":{"ha":828,"x_min":-35,"x_max":863,"o":"m 863 677 l 745 677 l 745 -68 l 543 -27 l 543 409 l 396 409 q 301 379 333 409 q 270 297 270 349 q 296 159 270 235 q 392 -24 321 83 l 302 -68 q 112 161 176 59 q 48 348 48 262 q 107 500 48 442 q 295 558 165 558 l 543 558 l 543 677 l -1 677 l -35 805 l 830 805 l 863 677 z "},"थ":{"ha":958,"x_min":52,"x_max":993,"o":"m 993 677 l 872 677 l 872 -66 l 671 -28 l 671 130 q 492 85 589 85 q 283 139 377 85 q 134 263 189 193 q 75 372 79 333 q 263 473 195 418 q 147 518 195 487 q 75 591 99 549 q 52 680 52 633 q 74 759 52 725 q 135 810 96 792 q 228 829 175 829 q 380 788 309 829 q 494 682 451 747 q 536 552 536 618 q 504 442 536 497 q 418 342 471 387 q 304 274 365 298 q 406 243 340 243 q 517 264 463 243 q 612 326 571 286 q 671 416 652 365 l 671 677 l 572 677 l 536 805 l 961 805 l 993 677 m 314 726 q 265 708 286 726 q 244 649 244 690 q 262 580 244 610 q 315 524 279 550 q 359 650 359 581 q 355 692 359 671 q 348 718 351 713 q 335 723 345 721 q 314 726 325 726 z "},"द":{"ha":855,"x_min":-35,"x_max":890,"o":"m 657 66 q 721 -4 688 23 q 825 -79 754 -31 l 700 -203 q 630 -105 667 -168 q 560 32 593 -42 q 456 22 512 22 q 284 58 373 22 q 135 167 195 95 q 75 341 75 239 q 145 501 75 448 q 357 554 215 554 l 504 554 q 512 627 512 591 q 509 677 512 647 l -2 677 l -35 805 l 859 805 l 890 677 l 697 677 q 710 602 705 643 q 715 529 715 560 q 711 476 715 500 q 699 425 707 452 l 437 425 q 320 395 355 425 q 284 297 284 366 q 294 207 284 254 q 317 149 304 161 q 367 140 324 140 q 438 152 401 140 q 507 184 476 164 q 491 278 491 240 q 510 335 491 317 q 572 352 529 352 q 693 324 629 352 q 798 249 757 296 q 807 224 807 238 q 802 203 807 214 q 740 126 779 163 q 657 66 701 89 z "},"ध":{"ha":928,"x_min":54,"x_max":964,"o":"m 964 677 l 843 677 l 843 -68 l 641 -28 l 641 109 q 570 80 610 90 q 489 70 530 70 q 331 103 412 70 q 195 197 250 136 q 141 334 141 258 q 155 404 141 370 q 201 465 169 437 q 95 551 136 498 q 54 675 54 604 q 86 769 54 730 q 168 828 118 808 q 269 848 217 848 q 395 825 342 848 q 473 764 447 802 q 500 684 500 727 q 475 609 500 635 q 399 570 451 582 q 255 555 347 558 q 283 503 267 525 q 460 516 342 516 l 529 361 q 370 331 420 360 q 319 250 319 302 q 323 222 319 236 q 332 201 326 208 q 355 194 336 197 q 394 191 374 191 q 502 217 451 191 q 589 283 553 243 q 641 364 625 323 l 641 677 l 589 677 l 555 805 l 932 805 l 964 677 m 343 760 q 286 743 310 760 q 250 700 262 726 q 238 648 238 673 q 239 618 238 637 q 343 667 307 636 q 380 736 380 697 q 379 746 380 743 q 374 753 378 749 q 343 760 368 760 z "},"न":{"ha":836,"x_min":-35,"x_max":871,"o":"m 328 347 q 300 219 322 266 q 248 172 279 172 q 159 219 206 172 q 79 332 111 266 q 47 446 47 397 q 58 473 47 465 q 97 486 68 482 q 184 489 125 489 l 536 489 l 536 677 l -3 677 l -35 805 l 841 805 l 871 677 l 737 677 l 737 -68 l 536 -28 l 536 347 l 328 347 z "},"ऩ":{"ha":836,"x_min":-35,"x_max":871,"o":"m 328 347 q 300 219 322 266 q 248 172 279 172 q 159 219 206 172 q 79 332 111 266 q 47 446 47 397 q 58 473 47 465 q 97 486 68 482 q 184 489 125 489 l 536 489 l 536 677 l -3 677 l -35 805 l 841 805 l 871 677 l 737 677 l 737 -68 l 536 -28 l 536 347 l 328 347 m 180 104 q 232 80 202 104 q 283 24 261 56 q 305 -20 305 -7 q 281 -69 305 -39 q 227 -122 258 -99 q 180 -145 197 -145 q 133 -121 163 -145 q 80 -67 104 -97 q 57 -20 57 -37 q 80 30 57 1 q 134 82 104 60 q 180 104 164 104 z "},"प":{"ha":797,"x_min":-35,"x_max":831,"o":"m 513 201 q 387 178 448 178 q 252 208 323 178 q 132 294 180 237 q 83 427 83 351 l 83 677 l -3 677 l -35 805 l 800 805 l 831 677 l 714 677 l 714 -66 l 513 -29 l 513 201 m 284 422 q 289 343 284 377 q 300 296 293 309 q 325 288 306 288 q 403 307 363 288 q 473 358 443 327 q 513 425 503 390 l 513 677 l 284 677 l 284 422 z "},"फ":{"ha":1167,"x_min":-35,"x_max":1202,"o":"m 1032 452 q 1094 365 1074 412 q 1114 267 1114 317 q 1082 134 1114 200 q 988 11 1051 68 l 807 149 q 929 269 890 216 q 968 378 968 322 q 962 408 968 403 q 920 418 949 418 q 816 378 877 418 q 708 281 755 338 l 708 -69 l 507 -26 l 507 198 q 443 177 472 184 q 380 170 414 170 q 251 197 318 170 q 137 278 183 224 q 90 405 90 331 l 90 677 l -3 677 l -35 805 l 1173 805 l 1202 677 l 708 677 l 708 522 q 771 546 735 538 q 839 555 806 555 q 934 525 882 555 q 1032 452 986 494 m 507 677 l 292 677 l 292 407 q 296 327 292 355 q 309 287 300 299 q 322 283 311 284 q 345 282 332 281 q 409 302 376 283 q 468 353 441 322 q 507 416 494 384 l 507 677 z "},"ब":{"ha":857,"x_min":-35,"x_max":892,"o":"m 892 677 l 763 677 l 763 -68 l 562 -28 l 562 127 q 471 97 522 108 q 372 86 420 86 q 231 129 304 86 q 110 239 158 171 q 61 381 61 308 q 94 491 61 446 q 183 561 127 537 q 304 584 238 584 q 434 565 371 584 q 562 505 496 545 l 562 677 l 1 677 l -35 805 l 859 805 l 892 677 m 498 276 q 541 318 525 294 q 562 383 556 342 l 562 424 q 455 449 496 442 q 369 456 414 456 q 315 449 337 456 q 373 405 343 434 l 468 311 q 485 294 477 302 q 498 276 492 286 m 328 204 q 437 231 393 204 q 418 242 430 234 q 399 256 406 250 l 298 353 q 273 380 282 368 q 256 410 264 393 q 237 333 237 382 q 247 264 237 299 q 270 214 256 229 q 293 206 275 208 q 328 204 311 204 z "},"भ":{"ha":1019,"x_min":63,"x_max":1054,"o":"m 1054 677 l 936 677 l 936 -68 l 734 -28 l 734 228 l 517 228 q 468 142 499 186 q 410 98 437 98 q 314 144 369 98 q 218 248 259 189 q 177 337 177 307 q 216 376 177 363 q 338 389 255 389 q 359 473 352 424 q 196 500 263 475 q 96 568 130 526 q 63 665 63 611 q 94 754 63 719 q 173 806 125 790 q 269 822 220 822 q 420 783 356 822 q 519 676 485 745 q 554 519 554 607 q 548 389 554 471 l 734 389 l 734 677 l 631 677 l 597 805 l 1022 805 l 1054 677 m 250 678 q 281 585 250 627 q 365 525 312 544 q 367 583 367 555 q 361 672 367 640 q 342 719 355 705 q 304 732 328 732 q 264 717 278 732 q 250 678 250 702 z "},"म":{"ha":909,"x_min":-35,"x_max":943,"o":"m 323 88 q 210 133 274 88 q 101 241 146 178 q 55 349 55 303 q 90 380 55 370 q 186 391 125 391 l 186 677 l 0 677 l -35 805 l 911 805 l 943 677 l 817 677 l 817 -64 l 616 -28 l 616 248 l 380 248 q 368 137 380 186 q 323 88 355 88 m 616 677 l 381 677 l 381 391 l 616 391 l 616 677 z "},"य":{"ha":872,"x_min":-35,"x_max":907,"o":"m 907 677 l 789 677 l 789 -68 l 587 -28 l 587 123 q 400 75 497 75 q 243 115 317 75 q 115 239 170 156 q 33 442 60 321 q 190 500 142 470 q 237 568 237 530 q 222 623 237 597 q 174 677 207 649 l -2 677 l -35 805 l 877 805 l 907 677 m 355 243 q 487 283 424 243 q 587 390 550 323 l 587 677 l 340 677 q 413 589 390 630 q 436 503 436 548 q 377 387 436 441 q 208 298 317 332 q 355 243 252 243 z "},"र":{"ha":550,"x_min":-35,"x_max":585,"o":"m 476 524 q 451 401 476 454 q 374 304 427 347 q 233 221 321 260 q 351 142 292 173 q 509 79 410 111 l 401 -85 q 236 78 302 3 q 120 232 170 153 q 24 417 71 312 l 138 486 l 203 446 q 309 614 309 514 q 303 677 309 641 l -1 677 l -35 805 l 555 805 l 585 677 l 450 677 q 476 524 476 600 z "},"ऱ":{"ha":550,"x_min":-36,"x_max":585,"o":"m 476 524 q 451 401 476 454 q 374 304 427 347 q 233 221 321 260 q 351 142 292 173 q 509 79 410 111 l 401 -85 q 236 78 302 3 q 120 232 170 153 q 24 417 71 312 l 138 486 l 203 446 q 309 614 309 514 q 303 677 309 641 l -1 677 l -35 805 l 555 805 l 585 677 l 450 677 q 476 524 476 600 m 87 98 q 139 73 109 98 q 190 18 168 49 q 212 -27 212 -14 q 189 -76 212 -46 q 134 -129 165 -106 q 87 -152 104 -152 q 40 -128 70 -152 q -13 -74 11 -104 q -36 -27 -36 -43 q -13 23 -36 -6 q 41 75 11 53 q 87 98 71 98 z "},"ल":{"ha":1010,"x_min":-35,"x_max":1046,"o":"m 1046 677 l 925 677 l 925 -66 l 724 -28 l 724 433 q 696 436 709 436 q 606 387 635 436 q 573 229 576 338 l 367 279 q 389 428 367 366 q 363 437 374 434 q 338 440 353 440 q 255 409 285 440 q 226 319 226 378 q 432 -9 226 139 l 385 -82 q 113 126 205 13 q 21 353 21 240 q 51 466 21 420 q 130 532 81 511 q 237 553 178 553 q 330 537 282 553 q 423 492 378 521 q 557 555 473 555 q 645 544 597 555 q 724 520 694 534 l 724 677 l -3 677 l -35 805 l 1015 805 l 1046 677 z "},"ळ":{"ha":1093,"x_min":-35,"x_max":1099,"o":"m 869 496 q 971 408 935 467 q 1006 262 1006 349 q 975 115 1006 176 q 890 23 944 54 q 766 -7 836 -7 q 659 17 714 -7 q 567 96 604 42 q 476 19 531 46 q 357 -7 420 -7 q 203 26 274 -7 q 90 129 132 60 q 47 294 47 197 q 81 416 47 364 q 169 496 115 469 q 282 524 223 524 q 393 496 336 524 q 486 419 450 468 q 565 489 519 465 q 667 520 610 513 q 673 602 673 564 q 670 677 673 643 l -4 677 l -35 805 l 1069 805 l 1099 677 l 836 677 q 870 519 870 602 q 869 496 870 504 m 682 134 q 768 176 741 134 q 796 285 796 217 q 793 346 796 319 q 783 384 789 373 q 751 395 777 395 q 700 371 724 395 q 654 297 676 346 q 604 168 631 248 l 600 156 q 682 134 638 134 m 298 113 q 431 307 370 113 q 452 360 441 336 q 372 380 412 380 q 286 339 315 380 q 256 227 256 297 q 261 170 256 199 q 273 125 265 141 q 283 117 275 120 q 298 113 291 113 z "},"ऴ":{"ha":1065,"x_min":-35,"x_max":1099,"o":"m 869 496 q 971 408 935 467 q 1006 262 1006 349 q 975 115 1006 176 q 890 23 944 54 q 766 -7 836 -7 q 659 17 714 -7 q 567 96 604 42 q 476 19 531 46 q 357 -7 420 -7 q 203 26 274 -7 q 90 129 132 60 q 47 294 47 197 q 81 416 47 364 q 169 496 115 469 q 282 524 223 524 q 393 496 336 524 q 486 419 450 468 q 565 489 519 465 q 667 520 610 513 q 673 602 673 564 q 670 677 673 643 l -4 677 l -35 805 l 1069 805 l 1099 677 l 836 677 q 870 519 870 602 q 869 496 870 504 m 682 134 q 768 176 741 134 q 796 285 796 217 q 793 346 796 319 q 783 384 789 373 q 751 395 777 395 q 700 371 724 395 q 654 297 676 346 q 604 168 631 248 l 600 156 q 682 134 638 134 m 298 113 q 431 307 370 113 q 452 360 441 336 q 372 380 412 380 q 286 339 315 380 q 256 227 256 297 q 261 170 256 199 q 273 125 265 141 q 283 117 275 120 q 298 113 291 113 m 569 -35 q 620 -60 591 -35 q 672 -115 650 -84 q 694 -160 694 -146 q 670 -209 694 -179 q 616 -262 646 -239 q 568 -285 585 -285 q 522 -261 551 -285 q 469 -207 492 -237 q 446 -160 446 -176 q 469 -110 446 -139 q 523 -58 492 -80 q 569 -35 553 -35 z "},"व":{"ha":804,"x_min":-35,"x_max":840,"o":"m 840 677 l 694 677 l 694 -66 l 492 -28 l 492 111 q 420 92 454 96 q 352 88 387 88 q 204 126 283 88 q 73 228 126 165 q 20 361 20 291 q 50 475 20 427 q 132 548 79 523 q 254 574 184 574 q 326 569 294 574 q 397 548 357 564 q 492 499 437 532 l 492 677 l -2 677 l -35 805 l 808 805 l 840 677 m 277 210 q 342 221 302 210 q 422 258 381 233 q 492 319 463 283 l 492 406 q 363 437 430 437 q 267 405 295 437 q 238 314 238 374 q 243 263 238 288 q 255 222 248 238 q 263 212 258 215 q 277 210 268 210 z "},"श":{"ha":1029,"x_min":12,"x_max":1064,"o":"m 606 539 q 564 369 606 442 q 458 252 523 296 q 318 186 393 207 q 417 133 362 155 q 596 70 472 111 l 513 -101 q 360 15 445 -60 q 205 170 275 90 q 119 179 164 171 q 43 205 75 188 q 12 246 12 222 q 33 314 12 275 q 83 381 53 353 q 140 410 113 410 q 216 340 171 410 q 364 427 313 372 q 208 471 271 439 q 115 549 145 503 q 84 652 84 596 q 116 748 84 709 q 197 807 147 787 q 304 826 248 826 q 457 786 388 826 q 566 681 526 747 q 606 539 606 614 m 1064 677 l 937 677 l 937 -68 l 735 -28 l 735 677 l 665 677 l 631 805 l 1032 805 l 1064 677 m 272 648 q 302 559 272 600 q 409 495 333 519 q 427 589 427 537 q 418 657 427 625 q 395 709 410 690 q 363 729 380 729 q 297 706 322 729 q 272 648 272 684 z "},"ष":{"ha":813,"x_min":-35,"x_max":848,"o":"m 848 677 l 729 677 l 729 -68 l 528 -28 l 528 190 q 399 168 463 168 q 257 197 332 168 q 130 282 182 225 q 77 418 77 339 l 77 677 l -2 677 l -35 805 l 818 805 l 848 677 m 528 677 l 320 677 q 355 644 342 660 l 500 469 q 528 425 513 453 l 528 677 m 340 294 q 413 311 374 295 q 481 352 452 327 q 437 387 452 368 l 296 560 q 279 585 283 576 l 279 434 q 284 348 279 385 q 295 302 289 311 q 312 297 297 299 q 340 294 327 294 z "},"स":{"ha":1002,"x_min":-35,"x_max":1038,"o":"m 1038 677 l 887 677 l 887 -64 l 686 -27 l 686 250 q 580 233 633 233 q 472 250 524 233 q 368 296 420 267 q 252 224 322 258 q 350 140 290 180 q 514 55 411 101 l 422 -100 q 202 127 290 1 q 60 433 115 253 l 173 505 l 237 468 q 278 524 266 497 q 290 585 290 551 q 275 677 290 625 l -1 677 l -35 805 l 1006 805 l 1038 677 m 686 677 l 426 677 q 459 582 449 622 q 469 505 469 541 q 439 384 469 438 q 520 374 485 374 q 605 390 566 374 q 686 445 644 407 l 686 677 z "},"ह":{"ha":750,"x_min":-35,"x_max":785,"o":"m 391 372 q 555 338 487 372 q 658 247 623 304 q 693 123 693 191 q 668 32 693 70 q 585 -43 644 -6 l 446 100 q 533 162 505 128 q 562 224 562 196 q 554 239 562 235 q 457 260 519 260 q 322 221 370 260 q 275 114 275 182 q 358 -31 275 26 q 626 -122 441 -88 l 604 -203 q 308 -134 428 -182 q 127 -14 187 -85 q 68 144 68 58 q 98 246 68 201 q 182 322 128 292 q 102 402 127 366 q 77 474 77 438 q 125 556 77 527 q 260 585 174 585 l 425 585 q 427 623 427 604 q 422 677 427 650 l -2 677 l -35 805 l 753 805 l 785 677 l 605 677 q 623 542 623 598 q 618 456 623 489 l 361 456 q 284 437 309 456 q 258 380 258 418 q 260 354 258 368 q 391 372 323 372 z "},"क़":{"ha":1132,"x_min":-42,"x_max":1167,"o":"m 836 556 q 960 513 901 556 q 1057 406 1020 470 q 1094 283 1094 341 q 928 33 1094 154 l 755 159 q 875 258 832 218 q 936 329 918 298 q 955 391 955 360 q 949 418 955 412 q 915 427 942 427 q 833 406 878 427 q 746 351 788 385 q 676 275 705 316 l 676 -67 l 475 -28 l 475 117 q 411 94 448 103 q 342 85 374 85 q 196 122 269 85 q 77 221 123 159 q 30 353 30 283 q 56 466 30 418 q 132 540 83 514 q 249 566 182 566 q 475 461 362 566 l 475 677 l -3 677 l -35 805 l 1135 805 l 1167 677 l 676 677 l 676 508 q 751 544 709 532 q 836 556 793 556 m 269 203 q 340 220 301 203 q 414 264 378 236 q 475 324 450 292 l 475 399 q 351 429 410 429 q 263 400 298 429 q 229 318 229 372 q 252 212 229 256 q 269 203 256 203 m 81 111 q 133 87 103 111 q 184 31 162 62 q 206 -14 206 0 q 182 -62 206 -33 q 128 -115 159 -92 q 81 -138 98 -138 q 34 -114 64 -138 q -19 -60 5 -90 q -42 -14 -42 -30 q -19 37 -42 7 q 35 89 5 66 q 81 111 65 111 z "},"ख़":{"ha":1176,"x_min":-35,"x_max":1211,"o":"m 1211 677 l 1090 677 l 1090 -68 l 889 -28 l 889 157 q 766 137 832 137 q 621 169 685 137 q 521 258 557 201 q 485 388 485 315 q 511 487 485 444 q 582 555 536 530 q 686 579 628 579 q 793 554 740 579 q 889 483 846 528 l 889 677 l 399 677 q 426 599 416 641 q 435 526 435 557 q 378 358 435 423 q 212 257 321 293 q 340 122 258 161 q 520 84 422 84 q 591 90 558 84 q 663 111 624 96 l 745 -43 q 662 -76 703 -66 q 568 -86 621 -86 q 332 -26 437 -86 q 158 149 227 35 q 62 422 89 264 l 168 467 l 223 435 q 241 489 235 456 q 247 558 247 522 q 235 677 247 611 l -3 677 l -35 805 l 1181 805 l 1211 677 m 734 229 q 815 251 775 229 q 889 315 855 274 l 889 422 q 840 441 867 434 q 788 448 812 448 q 714 418 743 448 q 685 340 685 388 q 694 282 685 310 q 718 235 703 254 q 734 229 723 229 m 125 43 q 177 19 147 43 q 228 -37 206 -5 q 250 -81 250 -68 q 227 -130 250 -100 q 172 -183 203 -160 q 125 -206 142 -206 q 78 -182 108 -206 q 25 -128 49 -158 q 2 -81 2 -98 q 25 -31 2 -60 q 79 21 49 -1 q 125 43 109 43 z "},"ग़":{"ha":913,"x_min":-36,"x_max":949,"o":"m -36 805 l 918 805 l 949 677 l 830 677 l 830 -66 l 630 -28 l 630 677 l 420 677 q 441 419 441 546 q 429 284 441 347 q 396 185 416 222 q 351 148 375 148 q 243 197 309 148 q 124 308 176 246 q 73 401 73 370 q 106 431 73 421 q 210 442 139 441 q 238 441 229 442 q 244 538 244 477 q 235 677 244 627 l -1 677 l -36 805 m 273 111 q 325 87 295 111 q 376 31 354 62 q 398 -14 398 0 q 374 -62 398 -33 q 320 -115 351 -92 q 273 -138 290 -138 q 226 -114 256 -138 q 173 -60 197 -90 q 150 -14 150 -30 q 173 37 150 7 q 227 89 197 66 q 273 111 257 111 z "},"ज़":{"ha":1082,"x_min":-35,"x_max":1118,"o":"m 460 35 q 277 84 353 35 q 149 228 201 133 q 54 471 97 323 l 149 500 q 231 326 190 389 q 312 237 272 262 q 397 212 352 212 q 464 237 439 212 q 489 300 489 263 q 476 359 489 334 q 435 404 463 384 q 359 446 407 424 l 343 544 l 779 544 l 779 677 l -3 677 l -35 805 l 1087 805 l 1118 677 l 980 677 l 980 -66 l 779 -28 l 779 415 l 548 415 q 653 334 619 381 q 687 233 687 287 q 657 128 687 173 q 576 59 628 83 q 460 35 525 35 m 152 91 q 203 66 174 91 q 255 11 233 42 q 277 -34 277 -20 q 253 -83 277 -53 q 199 -136 229 -113 q 151 -159 168 -159 q 105 -135 134 -159 q 52 -80 75 -111 q 28 -34 28 -50 q 52 17 28 -13 q 105 68 75 46 q 152 91 136 91 z "},"ड़":{"ha":884,"x_min":-35,"x_max":919,"o":"m -35 805 l 887 805 l 919 677 l 699 677 q 720 516 720 595 q 718 471 720 501 l 486 471 q 408 459 435 471 q 380 412 380 446 q 391 367 380 389 q 405 358 396 358 q 448 363 423 358 q 509 378 473 368 q 589 397 557 391 q 651 404 622 404 q 692 392 673 404 q 750 338 722 374 q 795 262 779 303 q 812 189 812 222 q 747 12 811 70 q 565 -54 683 -46 q 534 -55 545 -55 q 270 27 398 -55 q 33 283 142 110 l 109 336 q 248 188 184 239 q 363 120 312 137 q 470 104 415 104 l 492 104 q 589 124 541 106 q 671 174 638 141 q 704 252 704 206 q 703 266 704 259 q 694 268 699 268 q 645 254 688 268 q 537 225 585 237 q 460 213 489 213 q 336 255 400 213 q 229 359 271 298 q 186 472 186 420 q 243 574 186 548 q 387 601 300 601 l 526 601 q 528 637 528 614 q 526 677 528 665 l 0 677 l -35 805 m 485 -109 q 536 -134 507 -109 q 588 -189 566 -158 q 610 -234 610 -220 q 586 -283 610 -253 q 532 -336 562 -313 q 484 -359 501 -359 q 438 -335 467 -359 q 385 -280 408 -311 q 361 -234 361 -250 q 385 -183 361 -213 q 438 -132 408 -154 q 485 -109 469 -109 z "},"ढ़":{"ha":876,"x_min":-35,"x_max":910,"o":"m 537 394 q 661 362 595 394 q 771 284 726 331 q 816 192 816 237 q 780 85 816 133 q 674 8 743 37 q 509 -20 604 -20 q 343 3 419 -20 q 210 67 268 25 q 95 191 136 121 q 54 355 54 260 q 145 541 54 486 q 378 597 237 597 l 506 597 q 511 667 511 630 q 511 677 511 674 l -2 677 l -35 805 l 879 805 l 910 677 l 690 677 q 706 591 701 635 q 710 472 710 547 l 499 472 q 368 461 418 472 q 286 413 317 450 q 254 300 254 376 q 262 218 254 260 q 280 146 269 176 q 299 107 290 115 q 319 100 303 103 q 357 98 336 98 q 431 100 400 98 q 368 181 387 145 q 349 253 349 217 q 373 326 349 294 q 439 376 396 357 q 537 394 481 394 m 500 110 q 627 160 583 125 q 671 245 671 195 q 667 270 671 257 q 661 284 664 282 q 649 288 659 286 q 631 290 640 290 q 534 244 568 290 q 500 110 501 199 m 483 -68 q 534 -93 505 -68 q 586 -149 564 -117 q 608 -193 608 -180 q 584 -242 608 -212 q 530 -295 560 -272 q 482 -318 499 -318 q 436 -294 465 -318 q 383 -240 406 -270 q 359 -193 359 -210 q 383 -143 359 -172 q 436 -91 406 -113 q 483 -68 467 -68 z "},"फ़":{"ha":1167,"x_min":-35,"x_max":1202,"o":"m 1032 452 q 1094 365 1074 412 q 1114 267 1114 317 q 1082 134 1114 200 q 988 11 1051 68 l 807 149 q 929 269 890 216 q 968 378 968 322 q 962 408 968 403 q 920 418 949 418 q 816 378 877 418 q 708 281 755 338 l 708 -69 l 507 -26 l 507 198 q 443 177 472 184 q 380 170 414 170 q 251 197 318 170 q 137 278 183 224 q 90 405 90 331 l 90 677 l -3 677 l -35 805 l 1173 805 l 1202 677 l 708 677 l 708 522 q 771 546 735 538 q 839 555 806 555 q 934 525 882 555 q 1032 452 986 494 m 507 677 l 292 677 l 292 407 q 296 327 292 355 q 309 287 300 299 q 322 283 311 284 q 345 282 332 281 q 409 302 376 283 q 468 353 441 322 q 507 416 494 384 l 507 677 m 146 165 q 197 141 168 165 q 249 85 227 117 q 271 41 271 54 q 247 -8 271 22 q 193 -61 223 -38 q 145 -84 162 -84 q 99 -60 128 -84 q 46 -6 69 -36 q 22 41 22 24 q 46 91 22 62 q 99 143 69 121 q 146 165 130 165 z "},"य़":{"ha":872,"x_min":-35,"x_max":907,"o":"m 907 677 l 789 677 l 789 -68 l 587 -28 l 587 123 q 400 75 497 75 q 243 115 317 75 q 115 239 170 156 q 33 442 60 321 q 190 500 142 470 q 237 568 237 530 q 222 623 237 597 q 174 677 207 649 l -2 677 l -35 805 l 877 805 l 907 677 m 355 243 q 487 283 424 243 q 587 390 550 323 l 587 677 l 340 677 q 413 589 390 630 q 436 503 436 548 q 377 387 436 441 q 208 298 317 332 q 355 243 252 243 m 134 98 q 185 73 155 98 q 236 18 214 49 q 258 -27 258 -14 q 235 -76 258 -46 q 180 -129 211 -106 q 133 -152 150 -152 q 86 -128 116 -152 q 34 -74 57 -104 q 10 -27 10 -43 q 34 23 10 -6 q 87 75 57 53 q 134 98 117 98 z "},"ॹ":{"ha":1082,"x_min":-35,"x_max":1118,"o":"m 460 35 q 277 84 353 35 q 149 228 201 133 q 54 471 97 323 l 149 500 q 231 326 190 389 q 312 237 272 262 q 397 212 352 212 q 464 237 439 212 q 489 300 489 263 q 476 359 489 334 q 435 404 463 384 q 359 446 407 424 l 343 544 l 779 544 l 779 677 l -3 677 l -35 805 l 1087 805 l 1118 677 l 980 677 l 980 -66 l 779 -28 l 779 415 l 548 415 q 653 334 619 381 q 687 233 687 287 q 657 128 687 173 q 576 59 628 83 q 460 35 525 35 m 271 -180 q 229 -159 256 -180 q 182 -113 203 -139 q 162 -69 162 -86 q 182 -27 162 -54 q 229 20 203 -1 q 271 40 255 40 q 314 19 288 40 q 361 -29 340 -2 q 382 -69 382 -56 q 361 -113 382 -87 q 313 -160 340 -140 q 271 -180 286 -180 m 595 -180 q 553 -159 580 -180 q 507 -113 527 -139 q 486 -69 486 -86 q 507 -27 486 -54 q 553 20 527 -1 q 595 40 579 40 q 638 19 612 40 q 685 -29 665 -2 q 706 -69 706 -56 q 685 -113 706 -87 q 637 -160 664 -140 q 595 -180 610 -180 m 433 -330 q 391 -309 417 -330 q 344 -262 364 -289 q 323 -219 323 -236 q 344 -177 323 -203 q 390 -130 364 -151 q 433 -110 416 -110 q 475 -131 449 -110 q 523 -179 502 -152 q 543 -219 543 -205 q 522 -263 543 -237 q 474 -310 501 -290 q 433 -330 448 -330 z "},"ॺ":{"ha":872,"x_min":-35,"x_max":907,"o":"m 907 677 l 789 677 l 789 -68 l 587 -28 l 587 123 q 400 75 497 75 q 243 115 317 75 q 115 239 170 156 q 33 442 60 321 q 190 500 142 470 q 237 568 237 530 q 222 623 237 597 q 174 677 207 649 l -2 677 l -35 805 l 877 805 l 907 677 m 340 677 q 366 651 355 663 q 407 610 388 631 l 551 442 q 585 385 572 417 l 587 390 l 587 677 l 340 677 m 355 243 q 452 264 405 243 q 536 322 499 285 q 488 360 505 339 l 421 443 q 344 361 398 399 q 208 298 290 323 q 355 243 252 243 z "},"ॻ":{"ha":913,"x_min":-35,"x_max":948,"o":"m 948 677 l 830 677 l 830 -63 l 60 -63 l 24 52 l 630 52 l 630 677 l 420 677 q 441 419 441 546 q 430 275 441 336 q 398 181 418 214 q 349 148 377 148 q 241 197 307 148 q 124 308 176 246 q 73 401 73 370 q 106 432 73 422 q 210 442 139 441 q 238 441 219 442 q 244 538 244 477 q 235 677 244 627 l -1 677 l -35 805 l 917 805 l 948 677 z "},"ॼ":{"ha":1070,"x_min":-35,"x_max":1105,"o":"m 1105 677 l 968 677 l 968 -117 l 52 -117 l 15 -3 l 766 -3 l 766 415 l 536 415 q 641 334 607 381 q 675 233 675 287 q 645 128 675 173 q 564 59 616 83 q 448 35 513 35 q 265 84 340 35 q 137 228 189 133 q 42 471 85 323 l 136 500 q 219 326 178 389 q 300 237 260 262 q 385 212 340 212 q 452 237 427 212 q 477 300 477 263 q 448 381 477 349 q 351 445 418 412 l 327 544 l 766 544 l 766 677 l -3 677 l -35 805 l 1075 805 l 1105 677 z "},"ॾ":{"ha":879,"x_min":-35,"x_max":914,"o":"m -35 805 l 882 805 l 914 677 l 699 677 q 720 516 720 595 q 718 471 720 501 l 486 471 q 429 468 450 471 q 394 454 407 465 q 380 418 380 442 q 391 380 380 402 q 405 372 396 372 q 449 377 423 372 q 515 395 475 383 q 601 416 566 409 q 665 424 635 424 q 705 412 686 424 q 763 362 736 394 q 804 293 789 330 q 819 223 819 256 q 782 99 819 153 q 683 17 745 45 q 545 -12 621 -12 q 270 66 397 -12 q 32 326 144 144 l 107 377 q 255 222 188 273 q 374 158 323 172 q 490 145 426 145 q 603 172 557 145 q 650 252 649 198 q 648 266 650 264 q 640 268 646 268 q 604 258 634 268 q 525 235 560 244 q 460 227 489 227 q 336 268 400 227 q 229 368 272 310 q 186 472 186 427 q 243 574 186 548 q 387 601 300 601 l 526 601 q 528 637 528 614 q 526 677 528 665 l -1 677 l -35 805 m 45 -70 l 844 -70 l 876 -184 l 81 -184 l 45 -70 z "},"ॿ":{"ha":865,"x_min":-35,"x_max":892,"o":"m 892 677 l 763 677 l 763 -131 l 113 -131 l 76 -16 l 562 -16 l 562 127 q 471 97 522 108 q 372 86 420 86 q 231 129 304 86 q 110 239 158 171 q 61 381 61 308 q 94 491 61 446 q 183 561 127 537 q 304 584 238 584 q 434 565 371 584 q 562 505 496 545 l 562 677 l 1 677 l -35 805 l 859 805 l 892 677 m 498 276 q 541 318 525 294 q 562 383 556 342 l 562 424 q 455 449 496 442 q 369 456 414 456 q 315 449 337 456 q 373 405 343 434 l 468 311 q 485 294 477 302 q 498 276 492 286 m 328 204 q 437 231 393 204 q 418 242 430 234 q 399 256 406 250 l 298 353 q 273 380 282 368 q 256 410 264 393 q 237 333 237 382 q 247 264 237 299 q 270 214 256 229 q 293 206 275 208 q 328 204 311 204 z "},"⁄":{"ha":290,"x_min":-168,"x_max":460,"o":"m -168 163 l 317 812 l 460 780 l -31 134 l -168 163 z "},"½":{"ha":1264,"x_min":24,"x_max":1254,"o":"m 149 456 l 149 838 l 24 838 l 36 903 l 334 951 l 334 460 l 435 439 l 422 371 l 28 371 l 39 435 l 149 456 m 298 163 l 783 812 l 926 780 l 435 134 l 298 163 m 981 98 q 1230 127 1093 117 l 1254 1 l 783 1 l 764 50 q 937 249 787 75 l 956 271 q 1005 343 988 310 q 1022 401 1022 376 q 1001 447 1022 429 q 934 465 981 465 q 880 459 912 465 q 816 443 848 453 l 779 530 q 989 579 875 579 q 1153 536 1095 579 q 1211 419 1211 493 q 1178 316 1211 370 q 1098 212 1145 262 q 981 98 1051 163 z "},"¼":{"ha":1281,"x_min":24,"x_max":1223,"o":"m 149 456 l 149 838 l 24 838 l 36 903 l 334 951 l 334 460 l 435 439 l 422 371 l 28 371 l 39 435 l 149 456 m 298 163 l 783 812 l 926 780 l 435 134 l 298 163 m 688 201 l 931 592 l 1115 564 l 871 235 l 990 241 l 990 298 l 1146 323 l 1146 250 l 1223 252 l 1212 149 l 1150 149 l 1150 -22 l 977 -47 l 977 149 l 709 149 l 688 201 z "},"¾":{"ha":1324,"x_min":20,"x_max":1217,"o":"m 27 401 q 195 451 122 416 q 267 549 267 486 q 247 605 267 586 q 194 631 226 625 q 115 639 162 637 l 122 692 l 300 848 q 149 837 223 842 q 42 831 75 831 l 20 939 l 446 939 l 462 881 l 310 693 q 412 648 376 686 q 449 559 449 611 q 391 423 449 475 q 243 349 333 371 q 51 327 153 327 l 27 401 m 298 163 l 783 812 l 926 780 l 435 134 l 298 163 m 681 201 l 924 592 l 1108 564 l 865 235 l 983 241 l 983 298 l 1139 323 l 1139 250 l 1217 252 l 1205 149 l 1143 149 l 1143 -22 l 970 -47 l 970 149 l 702 149 l 681 201 z "},"¹":{"ha":442,"x_min":24,"x_max":435,"o":"m 149 675 l 149 1058 l 24 1058 l 36 1122 l 334 1171 l 334 680 l 435 659 l 422 591 l 28 591 l 39 655 l 149 675 z "},"²":{"ha":525,"x_min":18,"x_max":508,"o":"m 235 688 q 484 718 347 707 l 508 591 l 37 591 l 18 640 q 191 839 41 665 l 210 861 q 259 933 242 900 q 276 991 276 966 q 255 1037 276 1019 q 188 1055 235 1055 q 134 1049 166 1055 q 70 1033 102 1043 l 33 1120 q 243 1169 129 1169 q 407 1126 349 1169 q 465 1009 465 1083 q 432 906 465 960 q 352 802 399 852 q 235 688 305 753 z "},"³":{"ha":485,"x_min":20,"x_max":462,"o":"m 27 621 q 195 671 122 636 q 267 769 267 705 q 247 825 267 806 q 194 851 226 844 q 115 859 162 857 l 122 911 l 300 1068 q 149 1056 223 1061 q 42 1051 75 1051 l 20 1158 l 446 1158 l 462 1101 l 310 913 q 412 868 376 905 q 449 779 449 831 q 391 643 449 694 q 243 569 333 591 q 51 547 153 547 l 27 621 z "},"०":{"ha":766,"x_min":57,"x_max":709,"o":"m 346 672 q 454 651 401 672 q 559 593 506 630 q 638 527 606 560 q 689 448 670 494 q 709 338 709 401 q 668 186 709 251 q 559 87 627 121 q 414 53 492 53 q 245 97 328 53 q 110 219 162 141 q 57 391 57 296 q 92 529 57 465 q 193 633 127 594 q 346 672 259 672 m 525 555 q 505 565 518 561 q 477 568 492 568 q 349 529 408 568 q 255 421 290 490 q 220 267 220 353 q 226 194 220 231 q 241 150 233 158 q 285 139 253 139 q 422 187 362 139 q 516 306 483 235 q 549 444 549 377 q 542 515 549 484 q 525 555 536 547 z "},"१":{"ha":629,"x_min":77,"x_max":544,"o":"m 310 229 q 422 154 384 184 q 477 99 461 125 q 494 43 494 74 q 480 -14 494 15 q 429 -97 467 -42 l 245 -12 q 303 59 289 36 q 317 104 317 82 q 298 145 317 124 q 230 195 279 166 q 92 271 182 224 q 287 484 217 386 q 125 571 174 524 q 77 686 77 618 q 125 800 77 758 q 261 841 173 841 q 406 808 341 841 q 507 724 471 776 q 544 619 544 673 q 510 498 544 568 q 423 357 477 429 q 310 229 370 286 m 254 674 q 270 593 254 631 q 317 530 287 555 q 380 718 380 635 q 374 746 380 740 q 358 753 370 750 q 332 755 345 755 q 275 733 296 755 q 254 674 254 710 z "},"२":{"ha":704,"x_min":60,"x_max":644,"o":"m 644 -25 q 581 -47 600 -42 q 533 -52 562 -52 q 293 233 375 -52 q 192 254 237 237 q 121 298 147 271 q 95 358 95 326 q 118 417 95 386 q 174 470 142 448 q 231 492 207 492 q 263 480 249 492 q 289 451 277 469 q 321 397 300 434 q 411 439 363 406 q 492 520 459 473 q 526 612 526 567 q 524 645 526 634 q 519 663 523 655 q 486 680 513 671 q 433 688 458 688 q 284 659 356 688 q 140 582 213 629 l 60 753 q 349 827 194 827 q 489 790 422 827 q 598 686 557 752 q 640 536 640 619 q 609 409 640 474 q 515 295 577 343 q 368 236 454 248 q 500 98 426 98 q 543 103 525 98 q 582 121 561 109 l 644 -25 z "},"३":{"ha":725,"x_min":71,"x_max":648,"o":"m 463 33 q 504 37 488 33 q 547 54 520 41 l 611 -84 q 558 -109 581 -102 q 509 -115 535 -115 q 258 123 347 -115 q 162 155 205 134 q 96 204 120 177 q 71 261 71 232 q 92 317 71 288 q 143 366 113 347 q 199 386 173 386 q 246 358 223 386 q 287 286 269 330 q 361 276 327 276 q 434 289 402 276 q 483 323 466 302 q 500 366 500 344 q 470 430 500 398 q 308 410 401 407 l 225 561 q 422 596 361 571 q 484 661 483 621 q 479 686 484 682 q 459 694 473 691 q 427 696 446 696 q 315 680 369 696 q 180 616 260 664 l 96 772 q 216 822 168 808 q 335 836 264 836 q 462 804 402 836 q 558 715 522 772 q 595 585 595 659 q 527 456 595 502 q 648 302 648 389 q 611 203 648 246 q 506 137 574 161 q 351 113 439 113 q 332 114 338 113 q 391 50 362 68 q 463 33 420 33 z "},"४":{"ha":791,"x_min":63,"x_max":728,"o":"m 515 294 q 600 228 570 256 q 642 174 629 199 q 654 118 654 149 q 632 39 654 73 q 571 -14 610 5 q 481 -32 532 -32 q 358 -9 422 -32 q 245 49 293 13 q 177 158 177 102 q 189 204 177 180 q 232 261 201 228 q 318 342 262 294 q 161 444 214 401 q 85 526 107 486 q 63 618 64 566 q 89 725 63 676 q 172 833 114 773 l 348 743 q 277 652 301 686 q 244 595 253 618 q 235 549 235 572 q 248 498 235 522 q 290 449 260 475 q 372 387 319 422 q 492 497 448 453 q 555 577 535 542 q 574 646 574 612 q 544 729 574 691 q 449 800 513 767 l 500 824 q 592 773 538 811 q 687 683 646 736 q 728 573 728 630 q 711 506 728 540 q 647 422 693 471 q 515 294 602 372 m 380 45 q 441 64 413 46 q 485 111 469 81 q 502 174 502 140 q 494 212 502 195 q 464 249 486 230 q 395 182 418 208 q 361 135 371 156 q 351 91 351 114 q 354 65 351 77 q 361 51 357 54 q 380 45 366 45 z "},"५":{"ha":752,"x_min":64,"x_max":692,"o":"m 625 290 q 597 265 610 275 q 641 181 626 223 q 656 100 656 139 q 616 -2 656 42 q 496 -90 576 -46 l 363 39 q 495 115 453 73 q 536 216 536 157 l 536 227 q 466 202 502 211 q 397 194 430 194 q 244 234 322 194 q 116 342 167 273 q 64 492 64 411 q 98 645 64 568 q 210 825 132 722 l 392 766 q 273 576 309 656 q 237 421 237 496 q 245 343 237 379 q 267 298 254 307 q 274 294 271 295 q 283 293 277 293 q 343 306 311 293 q 401 341 374 319 q 442 389 428 363 q 422 480 422 449 q 443 533 422 515 q 498 552 463 552 q 591 535 547 552 q 664 489 636 519 q 692 422 692 460 q 674 357 692 394 q 625 290 656 321 z "},"६":{"ha":765,"x_min":75,"x_max":743,"o":"m 613 -138 q 492 50 541 -56 q 408 41 451 41 q 260 69 337 41 q 129 159 183 97 q 75 318 75 222 q 109 440 75 388 q 207 522 144 493 q 130 588 157 551 q 102 676 102 625 q 165 793 102 754 q 338 833 228 833 q 450 823 392 833 q 562 793 508 812 l 585 657 q 494 684 540 675 q 408 694 448 694 q 312 671 346 694 q 278 603 278 648 q 288 548 278 575 q 385 557 336 557 q 484 549 429 557 l 519 399 q 427 405 468 405 q 296 374 338 405 q 254 278 254 343 q 262 211 254 239 q 282 172 271 182 q 304 161 293 163 q 337 159 316 159 q 398 165 373 159 q 444 187 424 172 q 433 270 433 237 q 449 324 433 307 q 509 341 466 341 q 603 326 557 341 q 676 284 648 311 q 704 226 704 257 q 673 155 704 194 q 595 88 643 117 q 658 41 623 64 q 743 -8 693 18 l 613 -138 z "},"७":{"ha":880,"x_min":69,"x_max":819,"o":"m 555 702 q 688 664 628 702 q 784 554 749 625 q 819 387 819 482 q 772 183 819 275 q 641 38 724 91 q 452 -14 557 -14 q 304 11 377 -14 q 180 91 231 37 q 100 222 130 143 q 69 390 69 300 q 99 609 69 498 q 185 816 130 721 l 378 781 q 276 539 310 667 q 242 292 242 410 q 251 209 242 249 q 272 141 259 169 q 297 104 284 113 q 370 83 324 83 q 506 134 441 83 q 610 271 570 184 q 445 375 513 308 q 377 535 377 441 q 399 622 377 585 q 461 681 421 660 q 555 702 502 702 m 635 337 q 659 499 659 412 q 653 566 659 541 q 636 596 647 591 q 614 600 627 600 q 556 573 578 600 q 533 503 533 545 q 545 442 533 474 q 579 382 556 410 q 635 337 602 353 z "},"८":{"ha":729,"x_min":66,"x_max":714,"o":"m 66 267 q 106 421 66 333 q 225 613 146 510 q 415 822 304 715 l 589 744 q 307 419 405 568 q 208 169 208 271 q 212 136 208 152 q 221 111 215 121 q 252 95 228 101 q 309 88 277 88 q 614 219 435 88 l 714 72 q 582 -12 646 14 q 435 -39 518 -39 q 243 7 328 -39 q 112 123 159 52 q 66 267 66 195 z "},"९":{"ha":684,"x_min":56,"x_max":602,"o":"m 428 339 q 533 241 500 274 q 584 175 566 208 q 602 105 602 142 q 592 50 602 75 q 559 0 583 26 q 493 -62 536 -26 l 332 59 q 401 112 380 93 q 430 148 423 132 q 437 187 437 163 q 423 231 437 209 q 382 277 408 253 q 300 348 355 302 q 258 385 281 365 q 239 400 250 391 q 217 419 229 408 q 126 500 157 469 q 76 568 95 531 q 56 652 56 605 q 85 749 56 707 q 160 815 113 792 q 260 838 208 838 q 425 803 351 838 q 539 708 498 768 q 580 579 580 649 q 537 448 580 509 q 417 349 494 387 l 428 339 m 220 625 q 239 547 220 586 q 288 472 257 507 q 385 542 349 496 q 420 646 420 587 q 416 694 420 673 q 405 722 412 714 q 330 739 389 739 q 252 707 283 739 q 220 625 220 676 z "},"*":{"ha":839,"x_min":85,"x_max":756,"o":"m 753 734 q 743 699 756 724 q 699 650 730 675 q 622 610 668 625 q 520 593 575 593 q 458 600 485 593 q 576 517 507 542 l 576 354 q 561 351 572 351 q 491 373 532 351 q 417 441 451 394 q 373 522 389 478 q 357 604 357 566 q 315 465 317 538 l 159 416 q 151 433 155 420 q 147 465 147 446 q 158 526 147 493 q 193 593 169 559 q 254 657 220 629 q 323 699 288 685 q 258 706 290 706 q 180 694 217 706 l 85 828 q 101 843 87 834 q 137 857 115 851 q 187 863 159 863 q 265 850 227 863 q 346 811 308 836 q 406 758 383 787 q 358 893 400 833 l 455 1025 q 484 1005 465 1025 q 518 947 503 985 q 532 861 532 910 q 520 773 532 817 q 488 700 509 730 q 598 785 556 730 l 753 734 z "},"\\":{"ha":656,"x_min":45,"x_max":602,"o":"m 200 1013 l 602 15 l 446 -14 l 45 981 l 200 1013 z "},"·":{"ha":423,"x_min":82,"x_max":385,"o":"m 231 240 q 174 269 210 240 q 110 336 138 298 q 82 393 82 373 q 111 449 82 413 q 178 514 140 486 q 236 543 215 543 q 294 513 258 543 q 357 447 330 484 q 385 391 385 410 q 355 333 385 370 q 289 269 326 297 q 231 240 252 240 z "},"•":{"ha":593,"x_min":65,"x_max":528,"o":"m 296 121 q 209 165 264 121 q 109 265 153 210 q 65 353 65 321 q 109 440 65 385 q 209 540 153 496 q 296 584 264 584 q 384 540 328 584 q 484 440 439 496 q 528 353 528 385 q 484 265 528 321 q 384 165 439 210 q 296 121 328 121 z "},":":{"ha":408,"x_min":81,"x_max":384,"o":"m 231 -40 q 173 -11 209 -40 q 110 56 138 18 q 81 113 81 93 q 111 169 81 133 q 177 234 140 205 q 235 262 214 262 q 293 233 258 262 q 356 167 329 204 q 384 111 384 130 q 355 53 384 90 q 288 -12 326 17 q 231 -40 251 -40 m 231 372 q 173 401 209 372 q 110 468 138 431 q 81 525 81 505 q 111 582 81 545 q 177 646 140 618 q 235 675 214 675 q 293 646 258 675 q 356 579 329 616 q 384 524 384 542 q 355 466 384 502 q 288 401 326 429 q 231 372 251 372 z "},",":{"ha":452,"x_min":81,"x_max":371,"o":"m 81 111 q 105 159 81 127 q 165 224 132 195 q 220 254 199 254 q 249 247 235 254 q 283 226 262 241 q 343 166 315 201 q 371 111 371 131 q 363 47 371 84 q 347 -13 356 11 q 281 -123 326 -66 q 181 -227 237 -181 l 101 -216 l 190 -19 q 135 26 160 1 q 96 74 110 51 q 81 111 81 97 z "},"…":{"ha":1204,"x_min":81,"x_max":1122,"o":"m 231 -40 q 173 -11 209 -40 q 110 56 138 18 q 81 113 81 93 q 111 169 81 133 q 177 234 140 205 q 235 262 214 262 q 293 233 258 262 q 356 167 329 204 q 384 111 384 130 q 355 53 384 90 q 288 -12 326 17 q 231 -40 251 -40 m 600 -40 q 542 -11 578 -40 q 478 56 507 18 q 450 113 450 93 q 479 169 450 133 q 546 234 509 205 q 604 262 583 262 q 662 233 627 262 q 725 167 698 204 q 753 111 753 130 q 724 53 753 90 q 657 -12 694 17 q 600 -40 620 -40 m 969 -40 q 912 -11 947 -40 q 848 56 876 18 q 820 113 820 93 q 849 169 820 133 q 916 234 878 205 q 974 262 953 262 q 1032 233 996 262 q 1095 167 1067 204 q 1122 111 1122 130 q 1093 53 1122 90 q 1027 -12 1064 17 q 969 -40 989 -40 z "},"!":{"ha":582,"x_min":153,"x_max":429,"o":"m 178 349 q 161 649 168 460 q 154 939 154 837 l 393 939 l 393 316 l 178 349 m 293 249 q 356 212 313 249 q 407 157 384 189 q 429 111 429 126 q 418 78 429 98 q 389 41 406 58 q 333 -8 359 11 q 289 -28 307 -28 q 263 -19 278 -28 q 228 7 248 -9 q 176 63 199 31 q 153 112 153 94 q 195 182 153 133 q 247 230 219 210 q 293 249 275 249 z "},"¡":{"ha":397,"x_min":17,"x_max":294,"o":"m 153 486 q 90 523 133 486 q 40 578 62 547 q 17 625 17 609 q 28 657 17 637 q 58 694 40 677 q 113 744 87 724 q 157 763 140 763 q 183 754 168 763 q 218 728 198 745 q 271 672 248 704 q 294 623 294 641 q 251 553 294 602 q 199 506 227 525 q 153 486 171 486 m 268 386 q 285 86 278 275 q 292 -203 292 -102 l 53 -203 l 53 419 l 268 386 z "},"#":{"ha":932,"x_min":35,"x_max":894,"o":"m 874 502 q 730 495 826 499 l 661 321 l 770 321 l 751 197 q 608 190 699 194 l 524 -24 l 385 3 l 458 185 q 306 182 408 184 l 224 -24 l 85 3 l 157 181 q 35 182 75 181 l 59 321 l 214 321 l 281 486 q 159 487 240 486 l 183 626 l 337 626 l 409 803 l 541 772 l 482 626 l 637 626 l 709 803 l 840 772 l 782 626 l 894 626 l 874 502 m 582 490 q 427 486 479 487 l 361 321 l 513 321 l 582 490 z "},".":{"ha":465,"x_min":81,"x_max":384,"o":"m 231 -40 q 173 -11 209 -40 q 110 56 138 18 q 81 113 81 93 q 111 169 81 133 q 177 234 140 205 q 235 262 214 262 q 293 233 258 262 q 356 167 329 204 q 384 111 384 130 q 355 53 384 90 q 288 -12 326 17 q 231 -40 251 -40 z "},"?":{"ha":852,"x_min":102,"x_max":750,"o":"m 270 434 q 273 452 270 447 q 283 462 275 458 q 449 579 398 519 q 500 701 500 638 q 474 810 500 762 q 412 886 448 859 q 353 916 377 914 l 324 776 q 283 739 309 758 q 239 721 256 721 q 188 747 222 721 q 128 805 155 772 q 102 858 102 838 q 138 906 102 882 q 232 946 175 930 q 348 962 290 962 q 536 941 446 962 q 688 866 627 920 q 750 718 750 812 q 693 560 750 623 q 513 449 636 496 q 479 317 506 414 l 273 349 l 270 434 m 399 -40 q 341 -11 377 -40 q 278 56 306 18 q 250 113 250 93 q 279 169 250 133 q 345 234 308 205 q 404 262 382 262 q 461 233 426 262 q 525 167 497 204 q 552 111 552 130 q 523 53 552 90 q 456 -12 494 17 q 399 -40 419 -40 z "},"¿":{"ha":818,"x_min":68,"x_max":716,"o":"m 419 781 q 476 752 441 781 q 540 686 512 723 q 568 629 568 648 q 539 572 568 608 q 473 507 510 536 q 414 479 435 479 q 356 508 392 479 q 293 574 321 537 q 266 630 266 612 q 295 688 266 652 q 361 753 324 724 q 419 781 399 781 m 548 307 q 545 289 548 294 q 534 279 543 283 q 369 162 420 222 q 318 40 318 103 q 344 -69 318 -20 q 406 -145 370 -117 q 465 -174 441 -173 l 494 -35 q 535 2 509 -16 q 578 20 562 20 q 630 -5 596 20 q 690 -64 663 -31 q 716 -117 716 -97 q 680 -164 716 -140 q 586 -204 643 -189 q 470 -220 528 -220 q 281 -200 372 -220 q 130 -125 191 -179 q 68 24 68 -71 q 125 181 68 118 q 304 292 182 245 q 338 424 312 328 l 545 392 l 548 307 z "},"\"":{"ha":578,"x_min":71,"x_max":504,"o":"m 71 949 l 241 949 q 236 779 241 869 q 222 614 231 688 l 71 647 l 71 949 m 334 949 l 504 949 q 498 779 503 869 q 485 614 493 688 l 334 647 l 334 949 z "},"'":{"ha":315,"x_min":71,"x_max":241,"o":"m 71 949 l 241 949 q 236 779 241 869 q 222 614 231 688 l 71 647 l 71 949 z "},";":{"ha":384,"x_min":81,"x_max":384,"o":"m 93 111 q 117 159 93 127 q 177 224 143 195 q 232 254 211 254 q 260 247 246 254 q 294 226 274 241 q 355 166 327 201 q 382 111 382 131 q 375 47 382 84 q 358 -13 368 11 q 293 -123 337 -66 q 193 -227 249 -181 l 113 -216 l 201 -19 q 146 26 172 1 q 107 74 121 51 q 93 111 93 97 m 231 372 q 173 401 209 372 q 110 468 138 431 q 81 525 81 505 q 111 582 81 545 q 177 646 140 618 q 235 675 214 675 q 293 646 258 675 q 356 579 329 616 q 384 524 384 542 q 355 466 384 502 q 288 401 326 429 q 231 372 251 372 z "},"/":{"ha":637,"x_min":41,"x_max":595,"o":"m 595 981 l 197 -148 l 41 -118 l 442 1013 l 595 981 z "},"_":{"ha":694,"x_min":-47,"x_max":741,"o":"m 741 -123 l 717 -264 l -47 -264 l -16 -123 l 741 -123 z "},"{":{"ha":452,"x_min":21,"x_max":452,"o":"m 180 392 q 221 376 195 389 q 273 330 248 363 q 298 243 298 298 l 298 -106 l 450 -182 l 438 -231 q 230 -218 295 -231 q 146 -178 165 -205 q 128 -95 128 -151 l 128 271 q 102 326 128 302 q 35 370 75 350 q 25 379 30 374 q 21 392 21 385 q 26 406 21 399 q 35 414 31 412 q 128 519 128 465 l 128 879 q 147 963 128 936 q 234 1002 166 989 q 452 1015 302 1015 l 443 967 l 298 886 l 298 540 q 273 454 298 486 q 221 408 248 421 q 180 392 195 395 z "},"}":{"ha":453,"x_min":1,"x_max":431,"o":"m 273 392 q 231 408 257 395 q 179 454 205 421 q 154 541 154 486 l 154 890 l 2 966 l 14 1015 q 222 1002 157 1015 q 306 962 288 989 q 324 879 324 935 l 324 513 q 351 458 324 481 q 417 414 377 434 q 427 405 422 410 q 431 392 431 399 q 427 378 431 385 q 417 370 422 372 q 324 264 324 319 l 324 -95 q 305 -179 324 -152 q 218 -218 286 -205 q 1 -231 151 -231 l 9 -183 l 154 -102 l 154 244 q 179 330 154 298 q 231 376 205 363 q 273 392 257 389 z "},"[":{"ha":436,"x_min":100,"x_max":439,"o":"m 432 998 l 422 949 l 278 886 l 278 -102 l 439 -170 l 426 -214 l 100 -214 l 100 998 l 432 998 z "},"]":{"ha":434,"x_min":1,"x_max":334,"o":"m 334 -214 l 1 -214 l 11 -167 l 156 -102 l 156 886 l 2 949 l 13 998 l 334 998 l 334 -214 z "},"(":{"ha":422,"x_min":37,"x_max":423,"o":"m 37 392 q 70 621 37 506 q 171 836 104 735 q 334 1005 238 936 l 423 978 q 216 392 216 719 q 267 82 216 221 q 422 -193 317 -58 l 332 -219 q 112 46 186 -114 q 37 392 37 207 z "},")":{"ha":421,"x_min":-1,"x_max":385,"o":"m 385 392 q 310 46 385 207 q 90 -219 235 -114 l -1 -193 q 155 82 104 -58 q 206 392 206 221 q -1 978 206 719 l 87 1005 q 251 836 184 936 q 352 621 318 735 q 385 392 385 506 z "},"—":{"ha":1389,"x_min":34,"x_max":1355,"o":"m 66 438 l 1355 438 l 1328 306 q 717 294 1249 299 q 34 288 186 288 l 66 438 z "},"–":{"ha":694,"x_min":41,"x_max":654,"o":"m 73 438 l 654 438 l 627 299 q 360 292 554 294 q 41 289 166 289 l 73 438 z "},"-":{"ha":677,"x_min":77,"x_max":600,"o":"m 108 445 l 600 445 l 576 317 q 328 302 496 309 q 77 295 159 295 l 108 445 z "},"­":{"ha":656,"x_min":77,"x_max":600,"o":"m 108 445 l 600 445 l 576 317 q 328 302 496 309 q 77 295 159 295 l 108 445 z "},"«":{"ha":688,"x_min":7,"x_max":651,"o":"m 224 313 q 333 156 285 231 q 404 33 380 82 l 321 -22 l 7 313 l 320 648 l 404 593 q 340 478 385 548 q 224 313 294 409 m 531 313 q 651 113 590 227 l 568 55 l 328 313 l 566 570 l 650 514 q 531 313 621 450 z "},"»":{"ha":688,"x_min":37,"x_max":682,"o":"m 465 313 q 349 478 394 409 q 285 593 303 548 l 368 648 l 682 313 l 367 -22 l 284 33 q 356 156 308 82 q 465 313 404 231 m 157 313 q 38 514 68 450 l 122 570 l 361 313 l 121 55 l 37 113 q 157 313 98 227 z "},"‹":{"ha":404,"x_min":7,"x_max":367,"o":"m 217 314 q 367 74 323 165 l 284 19 l 7 314 l 285 610 l 366 555 q 318 465 352 518 q 217 314 283 411 z "},"›":{"ha":404,"x_min":37,"x_max":397,"o":"m 187 314 q 86 465 121 411 q 38 555 52 518 l 119 610 l 397 314 l 120 19 l 37 74 q 187 314 81 165 z "},"„":{"ha":739,"x_min":41,"x_max":694,"o":"m 150 -55 q 95 -10 120 -35 q 56 38 70 15 q 41 75 41 61 q 67 126 41 91 q 126 190 93 161 q 180 218 159 218 q 239 192 203 218 q 303 132 276 166 q 331 75 331 98 q 280 -102 331 -13 q 136 -263 229 -192 l 60 -252 l 150 -55 m 513 -45 q 458 -4 484 -27 q 419 40 433 19 q 405 75 405 62 q 431 126 405 91 q 490 190 456 161 q 544 218 523 218 q 603 192 566 218 q 667 132 640 166 q 694 75 694 98 q 672 -32 694 25 q 607 -142 650 -89 q 506 -236 564 -196 l 430 -224 l 513 -45 z "}}}
